<svg xmlns="http://www.w3.org/2000/svg" xml:space="preserve" viewBox="0 0 171.16 170.76"><g transform="translate(-19.16 -62.47)"><ellipse cx="103.99" cy="148.43" rx="75.71" ry="75.27" style="fill:#63b32e;fill-opacity:1;stroke:#aec80c;stroke-width:0;stroke-linecap:square;stroke-linejoin:round;paint-order:markers fill stroke"/><path d="M188.33 166.13c.24-1.23 1.31-4.04.52-5.15-1.63-2.26-6.02-1.82-5.56-5.97.22-1.95 2.25-3.38 3.98-3.94 1-.33 2.64-.05 2.87-1.38.17-.95.43-3.8-.39-4.46-2.14-1.74-6.13-.7-6.42-4.77-.14-2 1.5-3.7 3.14-4.62 1.03-.58 2.6-.51 2.59-2-.01-1-.2-3.58-1.13-4.15-.67-.42-1.76-.05-2.51-.12-2.04-.2-4.18-1.33-4.82-3.4-.66-2.13.86-3.94 2.43-5.18.9-.72 2.14-1.12 1.97-2.49-.13-.99-.8-3.38-1.8-3.8-2.64-1.1-4.99 1.54-7.43-1.5-1.52-1.9-.83-4.15.68-5.8.96-1.07 2.4-1.84 1.71-3.45-.4-.92-1.27-2.66-2.3-3-2.58-.81-4.8 2.25-7.56-.08-1.77-1.5-1.7-4.06-.58-5.92.63-1.03 2-2.13 1.3-3.44-.48-.9-2.08-2.93-3.2-2.94-2.83-.04-5.1 3.86-8.1.77-1.34-1.38-1.47-3.5-.8-5.23.5-1.36 1.74-2.5.41-3.76-.75-.72-2.25-2.07-3.38-1.94-2.7.3-3.8 4.14-7.16 2.54-1.91-.9-2.86-3-2.57-5.05.2-1.37 1.26-2.9-.12-3.97-.8-.63-2.77-1.82-3.83-1.41-2.48.95-3.38 5.22-6.98 3.74-2.04-.85-2.9-2.88-2.9-4.97 0-.84.48-2.28-.17-2.95-.42-.43-1.14-.56-1.69-.71-.86-.24-2.23-.81-3.07-.3-2.36 1.45-2.46 5.9-6.45 4.87-4-1.03-2.3-4.57-3.98-6.85-.65-.87-3.22-.92-4.21-.86-1.4.1-1.4 1.8-1.82 2.83-.8 1.94-2.77 4.06-5.08 3.56-1.86-.4-3.06-2.15-3.72-3.82-.26-.67-.3-1.89-.93-2.33-.76-.53-2.94-.1-3.81.07-2.07.4-1.35 1.98-1.73 3.58-.44 1.84-2.1 3.83-4.1 3.93-3.72.18-4.29-5.65-7.14-5.12-.94.18-2.86.45-3.43 1.3-.51.78-.03 1.94-.03 2.8 0 2.29-1.65 5.2-4.21 5.24-2.94.05-4.13-4.15-6.36-4.04-7.25.34-.4 8.44-6.34 10.67-3.01 1.13-4.18-2.1-6.61-2.68-1.17-.28-2.92 1.19-3.62 2-1.13 1.3.1 2.6.56 3.9.68 1.9.4 3.84-1.19 5.2-4.1 3.48-7.74-3.95-10.95 1.93-.73 1.34.64 2.37 1.28 3.44.93 1.57 1.27 3.45.2 5.03-1.3 1.9-3.5 2.2-5.6 1.65-.84-.22-1.94-1-2.82-.68-.97.35-2.01 2.35-2.35 3.26-.5 1.38.88 2.08 1.68 2.94 1.2 1.28 2.12 3.26 1.46 5.01-1.62 4.33-5.14 1.58-7.96 2.56-1.07.37-1.71 2.78-1.93 3.78-.31 1.49 1.16 1.85 2.13 2.55 1.38 1 2.75 2.78 2.48 4.6-.35 2.31-2.7 3.68-4.86 3.92-.8.09-2.04-.2-2.72.32-.76.6-.8 2.28-.9 3.16-.4 3.39 5.68 3.06 5.68 7.15 0 4.72-6.76 3.26-6.82 6.61-.02.92-.38 3.05.42 3.7 2.08 1.69 7.2 1.08 6.35 5.56-.86 4.48-8.2 3.87-5.01 9.46.58 1.03 2.03.54 3 .68 2.13.3 4.23 1.4 4.81 3.62.98 3.7-3.35 4.06-4.51 6.42-.48.98.73 3.55 1.35 4.34.75.97 2.12.19 3.11.11 1.95-.14 4.22.5 5.17 2.36 1.97 3.83-2.63 4.82-3.05 7.68-.15 1.03 1.1 2.67 1.75 3.4 1.15 1.29 2.45.2 3.8-.1 1.92-.42 3.9-.14 5.19 1.47 2.68 3.36-1.59 5.02-1.58 7.92 0 1.05 1.48 2.48 2.24 3.1 2.48 1.97 5.7-3.15 8.96-.38 3.4 2.88-.12 5.06.16 8.12.1 1.14 1.86 2.2 2.76 2.7 2.7 1.49 5-4.07 8.47-2.22 4.1 2.19.93 5.23 1.8 8.2.3 1.05 2.54 1.9 3.5 2.18 2.8.86 4.13-5.07 7.93-3.71 2.03.72 3.2 2.95 3.16 5.03-.02.83-.5 2.03.02 2.78.57.82 2.5 1.1 3.43 1.28 3.07.6 3.44-5.84 7.68-5.02 4.62.89 2.2 7.13 6.35 7.53.77.08 2.1.27 2.76-.23 2.24-1.65 1.67-7.11 6.23-5.88 3.39.91 2.47 4.17 4.43 5.95.78.7 3.36.26 4.29-.02 1.4-.42 1.02-2.05 1.3-3.21.45-1.8 1.59-3.6 3.48-4.09 4-1.03 4.15 3.36 6.48 4.87.95.62 3.69-.3 4.54-.9.93-.66.34-2.35.36-3.32.04-1.97 1.01-3.91 2.9-4.7 3.73-1.56 4.51 2.93 7.17 3.72 1.09.32 3.04-.87 3.88-1.5 1.27-.94.18-2.63-.04-3.87a4.76 4.76 0 0 1 1.96-4.84c3.88-2.57 6.27 3.87 9.52 1.56.7-.5 1.94-1.2 2.19-2.1.24-.84-.58-1.82-.9-2.56-.71-1.7-.83-3.77.44-5.24 1.43-1.66 3.5-1.87 5.42-1.02 1.33.6 2.53 1.94 3.97.88.84-.62 2.36-1.94 2.39-3.09.03-1-1.07-1.85-1.56-2.64-1.04-1.7-1.16-3.95.15-5.53 1.3-1.59 3.53-1.71 5.37-1.15.84.26 1.93 1.04 2.82.57.5-.27.83-.84 1.14-1.3.52-.77 1.43-1.89 1.14-2.89-.7-2.44-4.27-3.42-3.3-6.64.7-2.3 3.12-3.3 5.34-3.15 1.16.09 2.72.96 3.46-.32.53-.92 1.55-3.07 1.13-4.13-.46-1.16-2.6-1.93-3.43-2.98-2.4-3.06-.17-6.47 3.34-7.06 1.12-.18 2.3-.08 3.44-.08m-88.9-91.2c34.22-4.05 67.45 21.76 75.96 54.16 3.39 12.86 3.42 27.21-.65 39.95a67.35 67.35 0 0 1-3.28 8.73c-.52 1.09-1.04 2.5-2.45 2.58-1.41.08-3.02-.98-4.23-1.59-2.95-1.47-6.74-4.05-10.03-4.43-4.3-.5-6.32 4.6-9.82 6.1-3.47 1.5-7.69-4.8-9.78-6.9-.86-.85-1.98-1.73-2.41-2.9-.75-2.04 1.47-4.15 2.34-5.83a38.82 38.82 0 0 0 4.22-13.23c2.35-19.1-13.61-37.51-32.73-38.35-20.15-.88-38.7 16.62-36.73 37.3.47 4.9 1.75 9.7 4.15 14.02 1 1.8 3.52 4.39 2.41 6.61-1.43 2.86-5.68 6.4-8.2 8.37-.96.75-2.2 1.37-3.43.92-3.81-1.4-5.62-6.93-10.33-6.03-3.6.7-7.21 3.33-10.58 4.8-1.11.48-2.68 1.7-3.95 1.26-2.47-.85-3.92-7.06-4.64-9.32a74.38 74.38 0 0 1-3.36-30.69c2.75-25.63 18.84-48.4 42.38-59.18 8.04-3.68 16.43-5.33 25.14-6.36m12.17 12.1c-.2 1.12-.46 2.2.8 2.64l-1.86 9c-1.52.12-1.79.97-1.85 2.38l5.82 1.06c.22-1.18.47-2.14-.8-2.65l.53-3.17c2.82 1.35 2.2 3.89 1.86 6.35.9.12 1.76.35 2.64.56.44.1.88.2 1.32.28 1.11.2 2.55-.05 1.96-1.58-.7-1.8-3.77-4.1-3.13-6.4.83-2.99 5.2-2.43 5.67-5.56l-5.55-1.33c-.6 2.5-1.45 3.96-3.97 5.03l.53-2.9c1.1-.14 2.83-1.58 1.23-2.52-1.3-.77-3.7-1-5.2-1.2m-19.32 15.35 5.3-.53-.53-3.7 4.76-.53.26 3.7c1-.18 4.74-.03 5.08-1.14.4-1.26-1.72-2.4-2.26-3.36-1.39-2.44-3.74-10.95-7.54-9.23-.96.43-1.15 1.71-1.4 2.62-.6 2.3-1.27 4.58-1.85 6.88-.5 1.98-2.03 3.22-1.82 5.3m-16.4-8.21 2.55 2.69 2.51 5.51.5 4.76 9.78-3.96-1.58-4.24-2.47 2.46-2.56 1.25c-.17-.7-.8-1.85-.47-2.54.56-1.17 2.74-.83 3.2-2.07 1.24-3.44-3.83-1.08-4.85-.68l-1.06-2.65c.84-.23 1.77-.78 2.65-.75.89.02 1.96.86 2.74.02.83-.88-.7-3.18-1.15-4.03l-9.8 4.23m23.03-2.38 1.58 3.44-2.64.26 1.06-3.7m38.36 18.78c-.47-3.65-4.1-1.82-5.32-5.02-1.16-3.04 2.54-6.97 5.59-5.44 2.17 1.1 1.25 3.19 2.9 4.64 5.78-4.77-3.16-9.91-7.93-7.52-7.72 3.87-3.57 15.33 4.76 13.34m-69.85-7.4c1.19 2.39 3.73 4.34 4.55 6.88.29.87-.33 2.7 1.06 2.93 2.49.41 6.8-5.5 2.06-4.52l-1.05-1.85c5.05-2.15 4.55-10.1-1.6-9.5-2.17.21-5.73 2.55-7.02 4.28-1.1 1.47.94 2 2 1.78m4.76 1.32c-.45-.8-1.14-1.54-1.49-2.38-1.25-3.03 6.68-1.75 2.77 1.7-.4.34-.8.5-1.28.68m72.5-2.91c-1.37 1.62-1.17 4.51-1.78 6.61-.44 1.55-.8 3.13-2.2 4.14-.86.63-3.07.16-3.11 1.69-.03 1.2 2.47 3.83 3.63 3.95 1.34.14 1.35-2.49 2.16-3.23 1.63-1.5 4.67-2.06 6.86-2.23 1.03-.07 2.22.65 3.08-.2 1.2-1.19-2.1-4.9-3.34-4.55-.76.21-.96 1.12-1.48 1.6-.75.72-2.04.86-3.03.95.3-.9.51-2.07 1.2-2.77.56-.56 1.58-.8 1.75-1.69.26-1.42-2.74-3.57-3.74-4.27m-86.78 6.88-3.18 5.29 5.3 1.59-2.65 4.76c-.78-.44-1.68-.9-2.22-1.64-.5-.68-.38-1.75-1.26-2.14-1.3-.58-4.13 3.64-3.62 4.73.58 1.26 2.4.44 3.4.88 1.84.82 4.29 2.41 5.75 3.8 1.1 1.05.75 2.25 2.45 2.84.65-1.07 3.72-4.43 2.29-5.55-1.07-.84-3.88.6-4.18-1.63-.18-1.3 1.66-3.03 2.15-4.2.83.34 1.88.8 2.41 1.57.48.67.19 1.56 1.07 2 1.72.85 3.62-3.42 4.2-4.63l-3.45-.67-5.55-3.48-2.91-3.52m92.6 19.84c.72-3.25-3.16-3.47-2.84-6.61.38-3.8 5.54-5.09 7.7-2.12 1.25 1.73-.35 3.15.43 5.03 7.73-2.28.6-11-5.29-9.97-7.5 1.32-8.16 13.48 0 13.67m-48.15-7.6c13.73-1.62 26.7 8.85 29.2 22.15a27.42 27.42 0 0 1-1.77 16.14c-.65 1.45-1.54 4.15-3.36 4.42-2.18.32-4.47-3.07-5.82-4.42l-10.84-10.84c-1.22-1.22-2.92-3.67-4.77-3.87-1.98-.21-3.8 2.38-5.02 3.6l-11.38 11.38c-1.33 1.33-4.12 5.4-6.34 4.03-3.85-2.4-5.03-10.52-5.04-14.62-.02-14.72 10.61-26.25 25.14-27.97m-48.16 6.8-1.32 5.03c1.67.38 2.67.6 3.17-1.32 2.55.68 1.67 3.32 0 4.65-3.11 2.48-7.87-.94-6.68-4.65.72-2.22 3.03-1.84 3.25-4.23-1.12-.17-2.84-1.04-3.92-.5-1.08.55-1.71 2.33-2.08 3.4-1.44 4.3.3 9.16 5.2 9.98 4.8.8 8.67-2.46 8.73-7.33.01-.99.22-2.48-.49-3.29-1-1.13-4.4-1.52-5.86-1.73m94.2 2.38 2.64 10.05 3.97-.79-2.65-5.56c2.49-.36 4.92-1.77 7.4-1.94 1.08-.07 2 .99 3.1.42 1.12-.57-.25-5.35-1.31-5.68-1.43-.44-1.98 1.62-3.1 2.05-1.86.7-4.37 1.6-6.34 1.76-1.34.1-2.26-.66-3.72-.31M44.4 139.93l-.26 6.09 3.52-1.07 8.12.54c.23 1.4 1.09 1.56 2.38 1.59l.53-6.09c-1.15 0-2.23-.18-2.65 1.06l-9-.53c-.3-1.48-1.26-1.57-2.64-1.59m109.54 2.38c-.43-1.34-1.4-1.27-2.65-1.05l.27 7.67.46 2.64h4.04c-.02-1.33-.19-2.08-1.59-2.38v-3.44c3.25 0 2.91 1.74 2.91 4.5 3.26 0 2.65-2.09 2.65-4.76h2.9c0 .88.2 2.03-.15 2.85-.34.8-2.26 1.95-.97 2.96.75.59 3.08.01 4.04.01l-.27-10.58-3.97 1.52-7.67.06m-98.69 7.94-9 1.32c-.43-1.3-1.5-1-2.64-.79l1.06 5.82 5.55-2.12.8 5.3-5.82-.53.79 6.08 4.23-2 6.33-.98 3.46.87-.79-6.09c-1.79.04-1.83 1.05-3.21 1.7-3.16 1.49-2.82-3.03-3.4-4.87l3.17-.53c.74 1.26 1.61 1.27 2.91.79l-1.06-5.82c-1.3.18-2.16.46-2.38 1.85m103.45 13.5c1 .38 2.86 1.17 3.92.7 3.6-1.57 2.04-8.4-1.27-9.25-1.85-.47-3.44.41-4.47 1.93-.56.82-1.2 2.57-2.4 2.56-2.04-.03-.9-2.92-.54-3.88 1.67.4 2.08-.62 2.12-2.12-1.14-.1-2.83-.88-3.88-.26-3.44 2.05-2.08 8.66 1.5 9.62 2.47.67 3.93-.84 5.18-2.74.4-.6 1.3-2.19 2.22-1.6 2.25 1.42-2.06 3.74-2.38 5.04m-33.86 40.74c-.91 1.95-2.9 3.09-4.77 4.03-3.88 1.98-8 3.52-12.17 4.78-4.98 1.5-10 2.87-15.08 4-2.06.46-4.49 1.47-6.61 1.31-6.32-.48-13.73-4.68-19.05-7.87-2.94-1.76-8.44-4.42-10-7.58-.75-1.47.57-2.93 1.55-3.92 2.56-2.56 5.2-5.04 7.77-7.6l28.99-28.95c2.2-2.2 4.34-4.48 6.61-6.6 1.1-1.03 2.49-1.98 3.97-1.11 2.38 1.39 4.4 4.18 6.35 6.12 2.13 2.12 6.35 5 7.24 7.94 1.07 3.57-6.86 6.21-9.36 7.13-7.48 2.74-16.17 2.7-23.28 6.3-4.03 2.03-6.58 6.47-4.92 10.9 1.71 4.58 7.48 6.17 11.8 6.9 5.85 1 11.82 1.4 17.73 1.82 4.4.3 9.16.51 13.23 2.4m-16.14 16.4c4.4-2.39 9.73-3.34 14.28-5.62 5.57-2.78 13.59-10 6.88-16.02-1-.9-2.22-1.54-3.44-2.08-7.7-3.45-17.93-2.74-26.19-3.5a40.83 40.83 0 0 1-8.73-1.55c-.84-.27-2.82-.87-2.3-2.13.62-1.48 3.58-1.95 4.94-2.26 4.77-1.1 9.58-1.85 14.3-3.2 4.2-1.2 8.43-2.89 12.16-5.2 1.67-1.02 3.97-3.36 6.09-3.05 2.3.34 4.53 3.63 6.08 5.2l14.56 14.54c1.44 1.45 5.87 4.49 5.04 6.87-.7 2.02-3.92 3.63-5.57 4.81a74.38 74.38 0 0 1-19.05 9.64c-5.96 2.07-12.73 3.54-19.05 3.56m-55.04-38.02c2.4-.41 6.17 1.93 5.74 4.68-.4 2.53-4.14 4.93-5.85 6.65-.7.72-1.47 1.58-2.53 1.73-2.44.35-7.42-6.02-6.42-8.33.82-1.91 7.07-4.38 9.06-4.73m100.56 0c2.74-.54 5.8 1.78 8.19 2.86.99.45 2.33.94 2.69 2.1.62 2-4.01 7.61-5.87 8.07-1.86.45-3.36-1.66-4.5-2.8-2.82-2.82-6.68-5.43-2.64-8.97a4.7 4.7 0 0 1 2.13-1.25z" style="fill:#040705;stroke:none"/></g></svg>