<?xml version="1.0" encoding="UTF-8" standalone="no"?>
<svg
   version="1.1"
   id="svg28"
   width="1010"
   height="1072"
   viewBox="0 0 1010 1072"
   sodipodi:docname="GKV_logo-whitebg.svg"
   inkscape:version="1.3.2 (091e20e, 2023-11-25)"
   xmlns:inkscape="http://www.inkscape.org/namespaces/inkscape"
   xmlns:sodipodi="http://sodipodi.sourceforge.net/DTD/sodipodi-0.dtd"
   xmlns="http://www.w3.org/2000/svg"
   xmlns:svg="http://www.w3.org/2000/svg"
   xmlns:rdf="http://www.w3.org/1999/02/22-rdf-syntax-ns#"
   xmlns:cc="http://creativecommons.org/ns#"
   xmlns:dc="http://purl.org/dc/elements/1.1/">
  <metadata
     id="metadata34">
    <rdf:RDF>
      <cc:Work
         rdf:about="">
        <dc:format>image/svg+xml</dc:format>
        <dc:type
           rdf:resource="http://purl.org/dc/dcmitype/StillImage" />
      </cc:Work>
    </rdf:RDF>
  </metadata>
  <defs
     id="defs32" />
  <sodipodi:namedview
     pagecolor="#ffffff"
     bordercolor="#666666"
     borderopacity="1"
     objecttolerance="10"
     gridtolerance="10"
     guidetolerance="10"
     inkscape:pageopacity="0"
     inkscape:pageshadow="2"
     inkscape:window-width="2560"
     inkscape:window-height="1440"
     id="namedview30"
     showgrid="false"
     inkscape:zoom="0.92873726"
     inkscape:cx="560.43837"
     inkscape:cy="588.43337"
     inkscape:window-x="1728"
     inkscape:window-y="0"
     inkscape:window-maximized="0"
     inkscape:current-layer="g36"
     inkscape:document-rotation="0"
     inkscape:showpageshadow="2"
     inkscape:pagecheckerboard="0"
     inkscape:deskcolor="#d1d1d1" />
  <g
     inkscape:groupmode="layer"
     inkscape:label="Image"
     id="g36">
    <path
       style="fill:#ffffff;fill-opacity:1;stroke-width:0;stroke-dasharray:none"
       d="m 0,877.43394 v -194.5 h 58.02023 58.02023 l -3.07119,-5.25 C 103.4893,661.47853 88.17293,628.61866 80.69105,608.43394 56.55397,543.31664 47.77415,466.73208 56.55888,397.93394 74.84124,254.75453 157.90571,130.2619 282.5,59.305347 c 86.40535,-49.20791 185.48195,-68.4256608 285,-55.2810408 46.5748,6.1517308 91.83874,19.9424988 135.2861,40.4815308 23.52519,11.12115 47.19413,25.292853 68.55976,41.224608 12.99656,9.691176 25.74685,19.403285 38.0077,30.023795 19.5273,17.32193 42.619,42.3491 58.802,63.73075 52.9844,70.00494 83.91,151.58732 90.9231,239.85661 1.5016,18.89978 0.6288,67.33908 -1.5242,84.59234 -7.71,61.78314 -25.3747,116.86193 -54.0263,168.45455 -3.0405,5.47501 -5.5282,10.08751 -5.5282,10.25 0,0.1625 25.2,0.29545 56,0.29545 H 1010 v 194.5 194.49996 H 505 0 Z"
       id="path44-3"
       sodipodi:nodetypes="ccccssssssscsssssscccccc" />
    <path
       style="fill:#ee1b24;fill-opacity:1"
       d="m 531,246.80985 c -6.325,-3.86988 -18.25,-11.35022 -26.5,-16.62297 -8.25,-5.27275 -16.8,-10.22149 -19,-10.99721 -4.74795,-1.67413 -19.75296,-1.09581 -31.5,1.21407 -10.95654,2.15443 -37.3413,9.06658 -45.9214,12.03026 l -7.42141,2.56345 -5.57859,-3.16507 C 353.12285,208.02836 322.43725,192.80515 286.5,177.96623 c -7.76389,-3.2058 -30.94268,-11.70437 -42.35027,-15.52784 -1.50257,-0.50362 3.72183,-5.4863 16.46979,-15.70776 48.71755,-39.06232 107.28599,-66.620344 167.38959,-78.761309 57.39683,-11.594197 121.25182,-10.076624 175.8075,4.178227 26.59899,6.950046 60.96179,19.73964 77.662,28.905252 l 7.31369,4.01398 -1.04415,3.40217 c -1.71738,5.59573 0.67824,11.98131 6.90783,18.41301 9.51198,9.82058 7.6579,11.6757 -12.69187,12.69895 -15.47249,0.77802 -20.67716,2.17367 -39.97948,10.72068 -20.90204,9.25536 -33.65537,17.24981 -51.48463,32.27323 -25.21026,21.24285 -38.12625,40.56652 -44.56586,66.67518 -0.64436,2.6125 -1.68065,4.71535 -2.30285,4.67301 -0.62221,-0.0423 -6.30629,-3.24327 -12.63129,-7.11316 z"
       id="path136" />
    <path
       id="path189"
       style="fill:#000000"
       d="m 744.30859,78.330078 c -2.08609,0.02209 -4.48645,0.09001 -7.30859,0.199219 -22.85831,0.884551 -22.11121,0.689242 -27.46094,7.1875 -2.72485,3.309852 -4.39358,6.221936 -4.06054,7.089844 0.32311,0.842013 -0.32752,2.098672 -1.51954,2.933593 -2.75546,1.930002 -4.33723,6.099026 -2.94921,7.771486 0.75986,0.91558 0.48131,2.238 -1.00196,4.75195 -1.55723,2.63931 -1.83231,4.05775 -1.13281,5.85938 1.29484,3.33497 6.15978,7.64262 9.08008,8.04101 2.18134,0.29757 2.49249,0.89222 2.77734,5.3125 0.17638,2.73709 0.75951,5.41381 1.29492,5.94922 2.61826,2.61826 0.0589,8.58983 -5.16211,12.04492 -4.84651,3.20727 -10.05154,4.28142 -26.36523,5.43946 -12.14307,0.86197 -13.75647,1.22982 -24.46875,5.59765 -21.33254,8.69813 -38.89429,18.52324 -51.53125,28.82813 -26.67033,21.7485 -38.27543,37.07568 -45.94336,60.67773 -5.76964,17.75911 -6.86345,30.25878 -3.60156,41.16797 1.72121,5.75644 7.19259,12.8931 12.60351,16.44141 12.23607,8.02401 15.74479,12.91151 18.93555,26.37695 1.92004,8.1028 7.46747,23.49016 12.3125,34.15234 l 3.02148,6.65235 -5.16406,2.21484 c -30.26111,12.97351 -38.91809,16.20338 -41.13281,15.35352 -0.83714,-0.32124 -2.48685,-2.3004 -3.66602,-4.39844 -1.17917,-2.09804 -2.86787,-4.01956 -3.7539,-4.27149 -0.88604,-0.25191 -6.27174,-8.42685 -11.96875,-18.16601 -9.29496,-15.88993 -10.36496,-18.21752 -10.41016,-22.67773 -0.031,-3.05953 0.49235,-5.46302 1.35938,-6.25 0.7747,-0.70322 7.39525,-3.17921 14.71289,-5.50391 13.00322,-4.13093 16.20003,-6.14694 13.09179,-8.25391 -2.31803,-1.57131 -11.4321,-0.0285 -24.25586,4.10547 -16.4421,5.30048 -29.63794,8.75562 -38.64062,10.11719 -8.90115,1.34622 -14,3.27064 -14,5.28516 0,2.03921 5.36503,6.34211 8.86719,7.11132 1.60592,0.35272 5.61096,-0.0591 8.91797,-0.91601 7.77278,-2.01413 9.62755,-1.96243 16.21484,0.44531 3.00947,1.1 5.54296,2 5.63086,2 0.0879,0 5.22968,8.14158 11.42578,18.0918 8.93602,14.35024 10.97489,18.27575 9.85547,18.98437 -0.77619,0.49135 -1.97461,0.9002 -2.66211,0.90821 -2.18834,0.0268 -1.39962,1.97801 5.27539,13.05664 l 6.52539,10.83007 -2.25976,7.67774 c -1.72403,5.85996 -2.78643,7.87956 -4.49024,8.52734 -1.22781,0.46682 -3.26146,2.45824 -4.51758,4.42578 -1.85797,2.91025 -2.74939,3.48417 -4.7832,3.07813 -11.26238,-2.24848 -20.81072,-2.80023 -29.64258,-1.71485 -11.00329,1.35222 -18.79853,3.82353 -29.85742,9.4668 -6.19039,3.15891 -10.16866,6.24055 -17.58984,13.625 -8.4526,8.41077 -10.20481,10.78884 -14.76368,20.04297 -6.00637,12.19244 -8.86443,22.54026 -9.76367,35.36133 -2.47379,35.27058 17.29275,73.50263 47.70703,92.27539 3.28997,2.03069 5.6275,3.99961 5.19532,4.37695 -0.72806,0.63568 -16.28006,6.07464 -95.78516,33.48828 -16.5,5.68926 -46.2,15.95706 -66,22.81836 -19.8,6.86131 -38.925,13.47707 -42.5,14.70117 -3.575,1.22411 -6.92672,2.61938 -7.44922,3.10157 -0.5225,0.48219 -0.69433,0.87695 -0.38086,0.87695 0.8898,0 68.41252,-14.42393 156.83008,-33.50195 48.55481,-10.47675 87.57065,-18.8467 123.95312,-26.5918 12.89874,-2.74588 29.54873,-6.35016 37,-8.00977 7.45128,-1.65961 21.87188,-4.77009 32.04688,-6.9121 10.175,-2.14202 37.4,-7.98448 60.5,-12.98243 38.64085,-8.36039 59.50736,-12.84884 127.5,-27.42383 32.53951,-6.9752 43.91574,-11.82624 58.99805,-25.15624 31.49228,-27.8334 39.65999,-75.06925 20.02148,-115.80079 -6.00098,-12.44641 -11.56081,-20.22381 -21.98437,-30.75586 C 844.33378,371.93799 818.47741,361 788.34766,361 c -13.64139,0 -23.7636,1.88705 -35.34766,6.5918 -10.99189,4.46427 -10.55057,4.43663 -10.18555,0.6582 0.38202,-3.95445 -1.4169,-4.25606 -7.34375,-1.23438 -4.31955,2.20223 -6.4707,1.98295 -6.4707,-0.65624 0,-0.93647 -0.62746,-2.41293 -1.39453,-3.28126 -3.06709,-3.47185 -7.28593,-37.25722 -5.29883,-42.43554 0.52204,-1.36041 1.3443,-1.29444 6.89258,0.5625 3.46503,1.15971 6.63106,2.60015 7.03516,3.20117 1.12021,1.66621 0.90452,15.09646 -0.29297,18.24609 -0.58195,1.53065 -2.63637,4.71105 -4.56641,7.06641 -2.47841,3.02458 -3.32323,4.86898 -2.875,6.28125 1.01006,3.18241 4.87223,2.47989 8.39062,-1.52734 5.52291,-6.29023 7.26156,-10.88719 7.21876,-19.07813 -0.0316,-6.04469 0.24593,-7.39453 1.51953,-7.39453 0.85686,0 1.79437,-0.9 2.08203,-2 0.28766,-1.1 1.11242,-2 1.83398,-2 1.84257,0 4.59854,-2.96071 3.86328,-4.15039 -0.33596,-0.5436 -0.78874,-2.83188 -1.00586,-5.08594 -0.21711,-2.25407 -1.00872,-4.81115 -1.75781,-5.68164 -0.7491,-0.87049 -1.8519,-3.04453 -2.45117,-4.83203 -1.56936,-4.68109 0.34192,-4.27848 8.30664,1.75 7.6193,5.76703 10.39964,6.55463 5.57812,1.58008 l -3.3164,-3.41992 3.8125,-1.05274 c 2.09692,-0.57899 4.01994,-0.84529 4.27344,-0.5918 0.98818,0.98819 0.0204,11.83788 -1.2793,14.33985 -0.75555,1.45446 -2.75632,4.38164 -4.44727,6.50391 -2.45204,3.07747 -2.86981,4.24151 -2.0625,5.75 1.60379,2.99669 4.50039,2.22277 8.29883,-2.21485 5.58563,-6.52556 6.93292,-10.33608 7.56836,-21.42187 0.4786,-8.34947 0.95069,-10.50528 2.82422,-12.88477 1.43332,-1.82039 2.25,-4.23051 2.25,-6.64062 0,-7.06658 0.66971,-7.38094 6.25781,-2.93165 2.77405,2.20874 5.2866,3.77201 5.58399,3.47461 0.29739,-0.29739 -1.73926,-2.89173 -4.52735,-5.76562 -2.7881,-2.87389 -5.35897,-6.46682 -5.71289,-7.98438 -0.85185,-3.65254 -7.06118,-8.04644 -15.42187,-10.91601 -5.68672,-1.95181 -8.76258,-2.29879 -20.67969,-2.33399 l -14,-0.041 -7.5,-3.64258 c -4.125,-2.00325 -8.625,-4.84284 -10,-6.30859 -2.29613,-2.44767 -2.49881,-3.41268 -2.47461,-11.83203 0.025,-8.69834 0.24009,-9.60048 4.18555,-17.66602 5.1992,-10.62852 9.31061,-22.80509 10.01953,-29.67383 0.3433,-3.32629 1.22889,-5.88372 2.40625,-6.94922 1.02483,-0.92746 1.86328,-2.73314 1.86328,-4.01172 0,-1.72135 1.10302,-2.89951 4.25,-4.53711 4.64785,-2.41856 12.48455,-2.88749 22.98047,-1.37695 6.62312,0.95318 8.28109,0.10524 9.31641,-4.76953 0.37157,-1.74949 1.31483,-3.90775 2.0957,-4.79492 1.55929,-1.77159 2.2578,-4.11854 3.2207,-10.82617 0.56704,-3.95006 0.98995,-4.53032 3.83789,-5.26563 1.76042,-0.45453 3.46137,-1.24999 3.78125,-1.76758 0.31989,-0.51759 -0.48489,-3.4718 -1.78906,-6.56445 l -2.37109,-5.62305 2.08984,-5.40234 c 1.58353,-4.09597 2.58567,-5.40702 4.14648,-5.41992 1.13238,-0.009 2.89123,-0.62551 3.90821,-1.36914 1.57874,-1.1544 1.75741,-2.22468 1.22461,-7.32227 C 784.8683,96.883647 773.8412,83.732905 757.5,79.515625 753.99666,78.611496 750.56688,78.2638 744.30859,78.330078 Z M 682.19922,226 c 0.27486,0 0.79759,4.8375 1.16016,10.75 0.87053,14.19609 2.36564,23.07521 4.5039,26.74609 2.50889,4.30717 6.54233,6.67921 17.91602,10.5293 l 10.03906,3.39649 -5.45898,3.28906 C 707.35677,282.51968 704.74179,284 704.54883,284 c -0.19296,0 -3.04323,-2.02434 -6.33399,-4.49805 C 685.59234,270.01344 667,247.95557 667,242.46875 c 0,-1.26673 0.84103,-4.25363 1.86914,-6.63672 1.52572,-3.53657 2.87625,-4.83745 7.34961,-7.08203 3.01435,-1.5125 5.70561,-2.75 5.98047,-2.75 z M 658.5,280.11328 l 8,6.07031 c 4.4,3.33904 12.63279,8.7973 18.29492,12.12891 6.44794,3.79397 9.81097,6.31264 9,6.73828 -0.71213,0.37376 -3.31992,0.92599 -5.79492,1.22852 -4.10309,0.50155 -4.94101,0.20548 -9.5,-3.35742 -2.75,-2.14918 -8.6,-6.15144 -13,-8.89454 -4.4,-2.7431 -8.60341,-5.38574 -9.3418,-5.87304 -1.09973,-0.72576 -1.0093,-1.53276 0.5,-4.46289 z M 742.91406,281 c 3.74091,0 18.75033,5.41209 22.07227,7.95898 l 2.48828,1.90821 -2.33594,2.48633 c -1.28473,1.36754 -3.61717,3.01603 -5.18164,3.66406 -1.56447,0.64802 -2.98169,1.99777 -3.15039,3 -0.26004,1.54487 -1.06768,1.2057 -5.30664,-2.23438 -5.95431,-4.83215 -11.88075,-7.71917 -16,-7.79297 -2.77579,-0.0498 -7.40341,-2.46816 -6.42773,-3.35937 C 730.98644,284.88241 740.5301,281 742.91406,281 Z m -36.35156,33.54297 c 0.16176,0.009 0.30091,0.0381 0.41406,0.0879 0.83761,0.36869 4.11094,1.38012 7.27344,2.24805 l 5.75,1.57812 0.0371,12.52149 c 0.0202,6.88679 0.62516,15.55898 1.34375,19.27148 0.71824,3.7125 1.03919,6.74338 0.71289,6.73438 C 720.63745,356.9452 704,328.82465 704,326.40234 c 0,-2.26622 -0.34752,-2.56948 -2.47852,-2.16211 -1.82132,0.34817 -2.88986,-0.15265 -4.02734,-1.88867 -1.50676,-2.29959 -1.42005,-2.44254 3.20703,-5.37695 2.47228,-1.56788 4.729,-2.49207 5.86133,-2.43164 z m -63.16016,16.55859 c 0.43576,0.0269 1.00528,0.12996 1.75196,0.2793 3.1074,0.62148 5.85299,2.26414 5.83789,3.49219 -0.004,0.34516 -1.75995,1.62835 -3.90235,2.85156 C 642.7279,340.21507 642,339.65244 642,333.79297 c 0,-2.16088 0.0951,-2.77223 1.40234,-2.69141 z m -124.10351,4.59961 c 0.22906,0.0246 0.30169,0.1364 0.16992,0.34961 -0.39206,0.63435 -2.2184,1.7819 -4.05859,2.55078 -3.88769,1.62438 -6.77674,1.84188 -4.15039,0.3125 3.10423,-1.80767 7.04645,-3.31955 8.03906,-3.21289 z m 174.54101,6.58594 c 0.62553,-0.0334 1.18928,0.005 1.66797,0.125 3.46259,0.86906 8.71352,10.08159 7.90821,13.875 -0.32554,1.53344 -5.19616,11.20844 -10.82422,21.5 -5.62805,10.29156 -17.35219,31.76289 -26.05274,47.71289 -8.70055,15.95 -17.37019,31.8125 -19.26562,35.25 -1.89543,3.4375 -3.77876,6.25 -4.18555,6.25 C 640.92443,467 634,456.91759 634,453.76758 c 0,-5.20425 10.13492,-52.60234 12.45898,-58.26758 1.35377,-3.3 2.77344,-7.35 3.1543,-9 0.38888,-1.68478 4.06055,-6.72645 8.37695,-11.5 8.41855,-9.31016 17.08194,-19.5163 21.26368,-25.05273 2.78249,-3.68388 10.20727,-7.42624 14.58593,-7.66016 z m 20.77539,28.04492 c 0.30489,-0.12495 0.38477,0.2842 0.38477,1 0,0.95227 0.675,1.99006 1.5,2.30664 0.91029,0.34931 1.5,1.86073 1.5,3.84571 0,1.79897 0.68876,4.92112 1.53125,6.9375 1.70636,4.08388 1.72838,4.02457 -4.14844,11.25976 -8.35673,10.2883 -15.11425,25.39504 -17.96484,40.15625 -1.8666,9.66584 -1.80313,26.91407 0.13867,37.15039 5.36806,28.2981 24.0145,56.42925 47.74219,72.0293 4.23071,2.78154 6.23773,4.65176 5.44922,5.07617 -0.68667,0.36959 -23.97305,6.83699 -51.74805,14.37109 -27.775,7.53411 -64.45,17.49411 -81.5,22.13282 -17.05,4.6387 -31.89848,8.71607 -32.99609,9.0625 -1.4183,0.44765 -0.66857,-0.93121 2.59179,-4.76563 12.50523,-14.70707 18.02757,-27.37294 21.40039,-49.08984 l 0.57422,-3.69727 3.60938,2.44922 c 1.98482,1.34693 5.45651,2.97065 7.71484,3.60742 6.18424,1.74372 7.8073,3.64318 6.62891,7.75196 -1.11039,3.87173 -0.65336,5.08398 1.91406,5.08398 1.07904,0 2.32563,1.22104 3.0625,3 1.57704,3.80732 5.18023,4.0954 6.79883,0.54297 1.03446,-2.27039 1.50361,-2.41282 6.16015,-1.86133 3.33794,0.39533 5.04102,0.22806 5.04102,-0.49414 0,-0.74906 2.66331,-0.90255 8.50586,-0.49023 C 668.40692,558.396 671,557.103 671,551.4668 c 0,-3.70343 -0.89774,-4.60686 -8.48047,-8.54102 -9.40694,-4.88062 -14.59497,-9.13586 -13.93164,-11.42578 2.59608,-8.96207 1.14313,-18.81102 -3.77734,-25.60352 l -2.9043,-4.00781 7.43164,-13.69531 C 653.42512,480.66169 664.41071,460.55 673.75,443.5 c 9.33929,-17.05 22.02861,-40.225 28.19922,-51.5 8.81881,-16.11382 11.75137,-21.29312 12.66601,-21.66797 z m 74.90039,0.80859 c 24.60639,0.14403 49.79125,10.42039 69.25196,29.76563 12.00845,11.9372 21.7654,28.80963 26.4043,45.66016 3.22243,11.70544 3.22907,34.61984 0.0137,45.93359 -8.33013,29.31026 -30.07294,50.76713 -58.83985,58.06445 -7.84457,1.98994 -11.91303,2.41794 -22.22461,2.33594 -22.26276,-0.17711 -39.57737,-5.92759 -57.09375,-18.95898 -32.51598,-24.19042 -47.54079,-64.221 -38.07422,-101.44141 3.04083,-11.95579 14.6157,-33.5 17.99805,-33.5 0.51251,0 3.09253,2.8125 5.73242,6.25 7.06143,9.19496 20.86976,25.23288 36.51172,42.40625 C 779.24855,458.69377 783,463.49496 783,465.32422 c 0,3.90474 0.99504,5.62095 4.22461,7.29101 4.0418,2.0901 8.64095,0.30889 9.43359,-3.65429 0.40947,-2.04735 1.29466,-2.90152 3.45703,-3.33399 8.03866,-1.60774 4.61825,-13.54084 -3.91211,-13.64843 -3.92942,-0.0496 -44.28167,-48.57575 -51.71093,-62.18555 l -2.57031,-4.70703 5.28906,-3.03125 c 12.98521,-7.43964 27.54086,-11.00046 42.30468,-10.91407 z m -184.13085,7.7168 1.78515,2.32227 c 0.9821,1.27657 1.7964,2.66623 1.8086,3.08789 0.0345,1.18955 -10.97782,22.88388 -13.23633,26.07617 -1.10633,1.56374 -3.93748,3.66888 -6.29102,4.67773 -2.7017,1.15808 -5.50876,3.50487 -7.61523,6.36719 -1.83502,2.49346 -3.6337,4.55077 -3.99805,4.57227 -0.36434,0.0215 -3.884,-5.34643 -7.82031,-11.92969 -5.11229,-8.55005 -7.06601,-12.74326 -6.83789,-14.67383 0.29566,-2.50214 1.87364,-3.36314 21.26172,-11.60156 z m -50.73633,41.60742 c 0.12338,0.008 0.24477,0.0666 0.35547,0.1836 0.44278,0.46786 5.77374,9.06406 11.84765,19.10156 6.07391,10.0375 10.95454,18.23861 10.84571,18.22461 -0.10883,-0.014 -2.89727,-2.28054 -6.19727,-5.03711 -5.11827,-4.27541 -18.83524,-13.21592 -21.78516,-14.19922 -0.51044,-0.17015 0.0501,-3.66792 1.24414,-7.77344 1.194,-4.10552 2.41102,-8.29854 2.70508,-9.3164 0.22056,-0.76343 0.61424,-1.20671 0.98438,-1.1836 z M 763.22266,429 C 764.21093,429 791,456.58395 791,457.60156 c 0,0.65116 -0.68208,1.44577 -1.51562,1.76563 -1.05803,0.406 -4.70866,-3.25946 -12.09376,-12.14258 C 766.86032,434.55828 762.53884,429 763.22266,429 Z m -252.02149,11 c 8.83986,0 23.46594,2.34678 25.21875,4.04688 0.82074,0.79604 -1.66074,9.39428 -17.12109,59.32031 -1.51022,4.87697 -3.20897,9.00142 -3.77344,9.16601 -0.56446,0.16459 -2.30146,0.58053 -3.86133,0.92383 -4.90107,1.07866 -7.6662,4.77788 -7.6582,10.24805 0.0157,11.42369 11.20026,17.44354 19.25976,10.36719 l 3.33399,-2.92774 29.44922,-2.50586 c 16.19772,-1.37827 32.48867,-2.70884 36.20117,-2.95703 l 6.75,-0.45117 -0.008,8.63476 c -0.0283,34.89288 -24.53191,65.35962 -57.66602,71.69922 -6.97382,1.33431 -20.53183,1.71621 -26.32617,0.74219 C 496.93577,603.27008 477.837,593.05852 465.41387,579.79297 442.23993,555.04716 433.85348,521.72184 443.125,491.22266 452.32223,460.96789 480.1892,440 511.20117,440 Z m 35.72461,8 c 0.38041,0 3.36516,1.60815 6.63281,3.57422 19.89445,11.97007 33.65095,28.99648 41.08594,50.85156 3.85983,11.34596 4.87299,10.57313 -13.89453,10.57813 -8.9375,0.002 -21.875,0.18098 -28.75,0.39648 -6.875,0.21549 -14.47456,0.18469 -16.88672,-0.0684 l -4.38476,-0.46094 0.5957,-5.68554 C 532.22484,498.60119 545.5636,448 546.92578,448 Z m 47.63867,5.14844 c 0.5291,-0.0624 2.70256,1.64395 5.04102,3.98242 4.03462,4.03462 4.49979,4.96218 4.21484,8.39258 l -0.32031,3.85547 -4.80273,-7.80274 c -2.64183,-4.29155 -4.53847,-8.06699 -4.21485,-8.39062 0.0202,-0.0202 0.0468,-0.0329 0.082,-0.0371 z m 36.82032,26.38086 c 0.0698,0.005 0.13903,0.0156 0.20898,0.0371 0.7736,0.23801 2.09271,0.64902 2.93164,0.91211 1.26898,0.39794 1.01975,1.47869 -1.47851,6.42773 -2.83237,5.61088 -4.92718,8.2172 -5.14454,6.40234 -0.72405,-6.04554 1.31912,-13.91913 3.48243,-13.77929 z M 640.01562,507 c 2.23479,0 5.39456,8.53901 5.43946,14.69922 0.0529,7.25035 -1.0386,8.98098 -4.2461,6.73437 C 639.39407,527.16237 639,525.92324 639,521.49023 c 0,-2.96793 -0.49694,-6.4851 -1.10352,-7.8164 C 636.74096,511.13774 638.05534,507 640.01562,507 Z m -97.62695,14.32031 c 3.68584,0.0277 4.0618,0.22929 1.61133,0.64844 -2.475,0.42335 -7.58812,1.09464 -11.36328,1.49219 -5.52867,0.5822 -6.77858,0.46163 -6.41992,-0.61914 0.33201,-1.00047 3.22414,-1.3798 11.36523,-1.49219 1.98191,-0.0274 3.57803,-0.0385 4.80664,-0.0293 z" />
    <path
       style="fill:#141112"
       d="M 183.64383,677.75 C 170.03639,658.6694 154.16273,629.94404 143.99471,606 128.95457,570.58289 119.67497,534.51921 114.78985,492.5 c -1.8801,-16.17159 -1.59405,-66.53493 0.47072,-82.87567 1.89098,-14.9654 1.67661,-14.62308 14.77539,-23.59461 31.76038,-21.7531 71.00053,-35.78912 167.59296,-59.94723 32.96242,-8.24402 40.84945,-10.96042 46.57443,-16.0409 5.23069,-4.64183 5.64516,-8.75151 1.43881,-14.26633 -10.67973,-14.00184 -70.31383,-36.86402 -137.86786,-52.85499 -5.34913,-1.26621 -9.56659,-2.46131 -9.37213,-2.65578 0.47399,-0.47399 20.70544,3.00822 38.60036,6.64384 83.19475,16.90227 137.95326,35.81377 157.89025,54.52929 14.65184,13.75416 11.26779,27.36057 -10.07091,40.49251 -7.57648,4.66261 -12.18505,6.82962 -35.32187,16.6088 -34.58205,14.61671 -60.49863,31.65549 -69.62388,45.77403 -7.11221,11.00397 -6.2334,19.51693 2.95611,28.63555 17.79964,17.66234 65.3661,29.25764 133.91777,32.64521 7.8375,0.3873 14.25,1.10212 14.25,1.58848 0,0.48636 -1.11948,3.09347 -2.48773,5.79358 -6.63157,13.08678 -10.29384,35.38051 -8.5541,52.07228 2.28325,21.90637 9.66818,40.83051 22.71702,58.21311 2.37864,3.16864 4.32481,5.93236 4.32481,6.14159 0,0.20923 -1.2375,0.69087 -2.75,1.0703 -1.5125,0.37943 -12.875,4.43232 -25.25,9.00643 -12.375,4.57411 -31.95,11.77979 -43.5,16.01261 -11.55,4.23283 -25.05,9.19337 -30,11.02343 C 293.82404,645.62062 188.96952,684 188.44935,684 c -0.19156,0 -2.35405,-2.8125 -4.80552,-6.25 z"
       id="path94" />
    <path
       id="path92"
       style="fill:#ee1b24;fill-opacity:1"
       d="m 753.16016,757.01953 c -10.90754,0.0124 -22.24469,2.18691 -31.16016,6.21875 -19.84973,8.97662 -34.13327,30.45046 -36.98242,55.60156 -4.29787,37.93976 17.45231,70.83202 50.73242,76.72071 9.31299,1.64787 26.2715,1.10518 34.78125,-1.11133 14.02604,-3.65332 27.31447,-12.93469 34.93945,-24.4043 8.06184,-12.12674 11.23729,-22.40949 12.21289,-39.54492 2.10958,-37.0528 -17.70549,-65.53283 -50.18359,-72.12891 -4.5127,-0.9165 -9.38187,-1.35718 -14.33984,-1.35156 z m 129.54101,1.19141 c -14.28877,-0.0323 -40.37857,1.34524 -43.24023,2.44336 C 838.2008,761.13787 838,770.29302 838,827.43945 c 0,36.42449 0.29935,66.52787 0.66602,66.89453 0.92305,0.92306 32.55676,0.81222 34.02148,-0.11914 0.86634,-0.55088 1.13623,-6.71707 1,-22.8457 L 873.5,849.2793 886,848.6875 c 14.43511,-0.68273 21.64872,-2.32489 31.6582,-7.21094 8.10168,-3.95478 15.68822,-11.42588 19.20899,-18.91601 5.41534,-11.52063 5.59133,-27.71092 0.42187,-38.75782 C 929.31877,766.77062 915.40498,759.57652 888,758.31641 c -1.45744,-0.067 -3.25758,-0.10087 -5.29883,-0.10547 z m -0.40234,26.79492 c 9.32513,0.007 14.09668,1.39442 18.27344,5.31641 9.26308,8.69803 5.22478,24.83251 -7.28125,29.09375 C 890.72608,820.28998 885.38378,821 881.36914,821 h -7.27539 l -0.29687,-16.57617 c -0.16316,-9.11713 0.0621,-17.21713 0.50195,-18 0.57657,-1.02626 2.80861,-1.42197 8,-1.41797 z m -130.9668,0.4707 c 4.06994,-0.0558 8.09936,0.57708 10.5957,1.91797 10.75404,5.77647 18.02078,21.32102 18.04688,38.60547 0.0303,20.10285 -7.72448,36.41981 -19.47461,40.97461 -14.30104,5.54362 -29.95136,-3.71301 -35.25781,-20.85156 C 723.93786,841.91039 723.5,836.98682 723.5,826.5 c 0,-12.13334 0.29981,-14.77011 2.24805,-19.78125 3.88953,-10.0044 8.17106,-15.52904 14.75195,-19.03125 2.65229,-1.41149 6.7621,-2.15513 10.83203,-2.21094 z" />
    <path
       style="fill:#ee1b24;fill-opacity:1"
       d="m 217,827 v -68 h 18 18 v 53 53 h 26 26 v 15 15 h -44 -44 z"
       id="path88" />
    <path
       style="fill:#ee1b24;fill-opacity:1"
       d="M 131,895.38699 C 116.99038,893.67805 105.9995,889.81161 96.325021,883.18882 85.38466,875.69945 78.032069,865.47994 73.386233,851.30574 70.778724,843.35037 70.500951,841.1963 70.509843,829 c 0.01131,-15.5144 1.45427,-22.25306 7.237118,-33.7976 5.986682,-11.95147 16.664959,-22.29965 30.016969,-29.08907 2.34516,-1.19251 8.64516,-3.38605 14,-4.87454 8.95527,-2.48931 11.21971,-2.70765 28.23607,-2.72257 14.63838,-0.0128 20.22406,0.37969 26.7595,1.88049 12.63502,2.90149 12.17236,1.88036 8.28204,18.27916 l -3.30859,13.94667 -8.11647,-2.36677 c -18.20692,-5.30914 -37.73543,-3.85647 -49.38607,3.67371 -6.55942,4.23955 -8.99054,7.18585 -13.01274,15.77029 -2.47631,5.2851 -2.71334,6.82158 -2.66893,17.30023 0.0453,10.68568 0.26632,11.96769 3.12147,18.10486 4.10569,8.82518 9.18758,14.20751 17.08567,18.09572 5.61227,2.76292 7.86278,3.27778 15.8555,3.62735 5.12316,0.22407 10.47062,0.11732 11.88324,-0.23722 L 159.063,865.94608 158.7815,854.22304 158.5,842.5 149.25,842.21247 140,841.92495 V 828.46247 815 h 26.5 26.5 v 36.85158 36.85158 l -6.25,1.65013 c -14.39957,3.80177 -21.80508,4.8383 -36.75,5.1438 -8.525,0.17426 -17.075,0.12472 -19,-0.1101 z"
       id="path86" />
    <path
       style="fill:#ee1b24;fill-opacity:1"
       d="m 599,895.96827 c -7.15638,-0.84652 -17.69931,-3.39947 -22.75,-5.50887 -4.05262,-1.69256 -4.05683,-2.1306 -0.17751,-18.44878 l 3.07249,-12.92429 4.87926,1.92323 c 14.21362,5.60248 33.76446,7.77687 41.36626,4.60064 7.73218,-3.23071 10.08469,-10.64739 5.08754,-16.03939 C 628.01877,846.91721 614.4924,840 611.76264,840 c -0.75264,0 -5.1278,-1.81799 -9.72258,-4.03997 -21.75801,-10.52193 -30.91398,-24.63397 -27.94477,-43.0711 2.49157,-15.47123 13.92922,-27.43858 31.40471,-32.85911 8.99587,-2.79033 26.15006,-3.74973 37.46465,-2.09532 11.19242,1.63655 21.03535,4.73978 21.03535,6.63193 0,1.48427 -6.05993,26.63211 -6.5716,27.27119 -0.14867,0.18569 -3.76258,-0.86775 -8.03091,-2.34098 -9.09767,-3.14009 -23.51361,-4.385 -30.07449,-2.59712 -4.84859,1.32127 -9.323,6.02898 -9.323,9.80913 0,4.60605 5.56369,8.43315 21.33248,14.67398 22.0602,8.7308 29.97011,14.6403 35.56641,26.57174 2.25836,4.81489 2.60111,6.86332 2.60111,15.54563 0,8.80519 -0.32666,10.69728 -2.734,15.83589 -3.70551,7.90966 -7.77226,12.81003 -14.13664,17.03446 -13.3217,8.84244 -31.90305,12.1679 -53.62936,9.59792 z"
       id="path80" />
    <path
       style="fill:#ee1b24;fill-opacity:1"
       d="m 488,896.31735 c -9.33459,-1.01288 -29,-6.28998 -29,-7.78199 0,-0.68968 6.04971,-27.10776 6.47297,-28.2664 0.33673,-0.92176 1.53901,-0.7641 4.78561,0.62756 12.41927,5.32352 31.77362,7.67215 40.83976,4.95587 8.47137,-2.53808 11.18596,-10.81488 5.49518,-16.75478 -2.76838,-2.88956 -5.27546,-4.09492 -23.70987,-11.39921 -15.02584,-5.95371 -23.99829,-13.21153 -29.5617,-23.9125 -2.42185,-4.6583 -3.62586,-9.89592 -3.59259,-15.05508 0.035,-5.43314 1.03883,-9.77885 3.98756,-15.80448 C 471.88773,766.2296 490.27583,757 515.36987,757 528.50887,757 551,761.57452 551,764.24689 c 0,1.06686 -6.95435,27.04079 -7.34444,27.43088 -0.13274,0.13274 -3.82204,-0.91856 -8.19845,-2.33623 -11.40866,-3.69565 -25.37035,-4.3582 -31.8102,-1.50955 -8.21791,3.63517 -9.3111,11.1462 -2.31705,15.91984 1.81458,1.23851 8.85961,4.51561 15.65561,7.28246 17.30969,7.04726 23.20097,10.41224 29.04185,16.58811 7.56651,8.00047 10.37439,14.86005 10.38925,25.38063 0.0177,12.56174 -2.82374,19.5643 -11.3605,27.99697 -7.37014,7.28027 -14.51698,11.20465 -24.74231,13.58615 -6.55794,1.52736 -25.05804,2.5185 -32.31376,1.7312 z"
       id="path78"
       sodipodi:nodetypes="ssssssssasssssssssssss" />
    <path
       id="path76"
       style="fill:#ee1b24;fill-opacity:1"
       d="m 378,757 c -32.21093,0 -56.20235,18.24222 -65.17578,49.55664 -2.94872,10.29007 -3.17156,31.27641 -0.43945,41.44336 3.22937,12.0174 9.05341,22.47472 16.9414,30.42188 10.10899,10.18483 20.14276,15.43076 33.64649,17.58984 7.38629,1.18098 24.99751,0.36302 32.92382,-1.5293 15.95211,-3.80838 32.47522,-17.04938 39.42774,-31.5957 5.96851,-12.48754 7.92619,-18.07828 7.95599,-36.11754 C 443.3004,814.55855 442.08355,808.96057 440.74023,804 432.82363,774.76582 409.10779,757 378,757 Z m -1.58203,28.21484 c 1.12135,-0.0393 2.2324,0.0144 3.32422,0.16407 15.81339,2.16747 25.22851,17.69882 25.22851,41.62109 0,19.7952 -6.11808,33.37069 -17.74804,39.38477 -5.91171,3.05707 -15.29029,2.70064 -22.14063,-0.8418 -4.36919,-2.2594 -10.79802,-10.16529 -12.92773,-15.89649 -6.13792,-16.51756 -4.6187,-39.87773 3.39258,-52.14648 4.73222,-7.24711 13.0216,-12.01003 20.87109,-12.28516 z"
       sodipodi:nodetypes="ssssssssssssssssss" />
    <path
       style="fill:#141112"
       d="M 804.25,1011.2357 775,1010.9706 v -47.01478 -47.01477 l 12.75,0.27987 12.75,0.27988 0.26245,36.22698 0.26245,36.22697 17.73755,0.27303 L 836.5,990.5 l 0.2836,10.1246 c 0.25323,9.0404 0.0926,10.1648 -1.5,10.5 -0.98098,0.2065 -14.9461,0.2561 -31.0336,0.1103 z"
       id="path72" />
    <path
       style="fill:#141112"
       d="m 698.75,1011.3327 c -1.63501,-0.4472 -1.75,-3.5623 -1.75,-47.40532 V 917 h 31.03498 31.03499 l -0.28499,10.25 -0.28498,10.25 -17.75,0.27307 -17.75,0.27308 v 7.45275 7.45274 l 16.75,0.27418 16.75,0.27418 0.16022,9 c 0.0918,5.15601 -0.29594,9.55208 -0.90779,10.29259 -0.7995,0.96762 -4.988,1.25685 -16.66022,1.15046 L 723.5,973.80092 723.21107,982.40046 722.92213,991 H 741.96107 761 v 10 10 l -28.25,0.014 c -15.5375,0.01 -29.15,0.1899 -30.25,0.4053 -1.1,0.2154 -2.7875,0.1763 -3.75,-0.087 z"
       id="path70" />
    <path
       style="fill:#141112"
       d="m 626.71075,1011.1864 c -0.88923,-0.1728 -1.89648,-1.2978 -2.23835,-2.5 -0.6409,-2.2536 -9.35648,-29.76526 -20.809,-65.6857 -3.59481,-11.275 -6.83846,-21.7375 -7.20812,-23.25 l -0.6721,-2.75 h 14.10841 C 620.96863,917 624,917.28594 624,918.33082 c 0,0.73196 2.87368,11.86946 6.38595,24.75 3.51227,12.88055 7.14655,27.01918 8.07619,31.41918 0.92963,4.4 1.92914,8.675 2.22113,9.5 0.292,0.825 3.11517,-8.4 6.27372,-20.5 3.15855,-12.1 7.21812,-27.5125 9.02127,-34.25 L 659.25671,917 h 13.37165 c 7.44849,0 13.37164,0.40652 13.37164,0.91772 0,0.99234 -30.01536,92.36718 -30.52024,92.91178 -0.40369,0.4355 -26.68698,0.7609 -28.76901,0.3562 z"
       id="path68" />
    <path
       id="path66"
       style="fill:#141112"
       d="m 519.53125,916.31641 c -3.45717,0.0502 -7.12583,0.22121 -11.00977,0.51367 -8.02898,0.60458 -15.03176,1.36655 -15.56054,1.69336 C 492.36826,918.88974 492,936.73846 492,965.05859 V 1011 h 13 13 V 993.36133 975.7207 l 5.10547,0.60547 c 2.80823,0.3326 5.76726,1.15254 6.57422,1.82227 2.13429,1.7713 4.85075,7.61311 6.20898,13.35156 0.65089,2.75 2.12766,8.24954 3.28321,12.2207 l 2.10156,7.2207 c 9.09324,0.2696 -0.38068,0 26.90429,0.4611 -0.98376,-3.3675 -3.22691,-9.6489 -5.76562,-18.9025 -3.6336,-13.27266 -5.55614,-17.57762 -9.70117,-21.72266 l -3.46485,-3.46289 4.62696,-3.42187 c 6.75192,-4.99382 10.07411,-11.62683 10.10351,-20.17383 0.0129,-3.73016 -0.59537,-8.26438 -1.35156,-10.07422 -5.04031,-12.06313 -18.89353,-17.67956 -43.09375,-17.32812 z m -172.74414,0.43945 c -1.5959,-0.005 -3.34791,-10e-4 -5.28711,0.008 -9.9,0.0465 -20.025,0.468 -22.5,0.9375 l -4.5,0.85352 -0.25977,45.41211 c -0.17201,30.00723 0.0868,45.76061 0.76368,46.43751 0.56342,0.5634 4.73,1.3072 9.25976,1.6543 13.18975,1.0106 15.9507,1.0006 26.72852,-0.1055 25.09419,-2.5751 39.96525,-10.9927 46.23437,-29.84764 4.54794,-13.67832 4.64741,-28.71517 -1.4707,-41.28711 -5.76589,-11.66382 -14.02203,-18.06699 -28.3418,-21.97852 -5.96809,-1.63021 -9.45564,-2.05243 -20.62695,-2.08398 z M 414,917 v 46.98633 46.98437 l 29.75,0.2656 c 16.3625,0.1456 30.7625,0.3478 32,0.4512 2.2016,0.1838 2.25,-0.037 2.25,-10.25 V 991 h -19 -19 v -8.47461 -8.47656 L 456.75,973.77539 473.5,973.5 473.78516,963.25 474.07031,953 H 457.03516 440 v -7.5 -7.5 h 18 18 V 927.5 917 h -31 z m 109.87695,18.09375 c 3.81254,0.0464 8.71622,1.06443 10.85352,2.46484 6.9718,4.5681 5.03056,15.55369 -3.36719,19.0625 C 529.54829,957.37944 525.79891,958 523.03125,958 H 518 v -10.98047 c 0,-10.95978 0.004,-10.98364 2.57031,-11.62695 0.88585,-0.22234 2.0358,-0.3143 3.30664,-0.29883 z M 340,935.71875 l 8.29883,0.51758 c 16.94293,1.05703 24.63893,9.24889 24.67383,26.26367 0.0292,14.2568 -4.02466,22.42082 -13.41211,27.01367 -3.88233,1.89945 -7.8063,2.91485 -12.59961,3.25781 L 340,993.26953 v -28.77539 z"
       sodipodi:nodetypes="ssssccccccsscccccccssscssccsscscsscsccsscccccccccccccccccccscsscscscsssscccs" />
    <path
       style="fill:#141112"
       d="M 224.75,1011.2138 215,1010.9276 V 963.96379 917 h 14.87655 14.87656 l 8.68986,16.75 c 9.72486,18.74499 14.77382,29.11737 18.13216,37.25 l 2.2712,5.5 -0.57969,-29.75 L 272.68696,917 H 284.34348 296 v 47.02822 47.02818 L 282.41619,1010.7782 268.83238,1010.5 258.45865,990 C 252.7531,978.725 245.70332,964.44264 242.79246,958.26141 L 237.5,947.02283 l 0.31714,31.8544 c 0.29987,30.12057 0.21823,31.87527 -1.5,32.23857 -0.99943,0.2113 -6.20464,0.2554 -11.56714,0.098 z"
       id="path60" />
    <path
       style="fill:#141112"
       d="M 171.99818,964.25 172,917 h 12.5 12.5 v 46.94285 46.94285 l -12.50182,0.3071 -12.50182,0.3072 0.002,-47.25 z"
       id="path58" />
    <path
       style="fill:#141112"
       d="M 79.972962,1010.9251 C 79.972962,999.97841 80,989.59167 80,963.83333 V 917 H 92.5 105 v 18.94098 c 0,10.41754 0.3375,19.1422 0.75,19.38814 0.4125,0.24593 5.90209,-8.10101 12.19909,-18.54877 6.29699,-10.44775 11.94176,-19.18497 12.54393,-19.41604 0.60216,-0.23108 7.72278,-0.29508 15.82359,-0.14222 L 161.04535,917.5 146.52267,936.9033 C 138.5352,947.57512 132,956.85578 132,957.527 c 0,0.99742 14.44201,26.68011 27.39814,48.723 l 2.7919,4.75 H 147.34502 132.5 L 123,992.52205 c -5.225,-10.16285 -9.725,-18.46782 -10,-18.45548 -0.275,0.0123 -2.1875,2.21158 -4.25,4.88721 l -3.75,4.86479 v 13.59262 13.59261 c -9.35595,-0.1317 -15.665913,-0.079 -25.027038,-0.079 z"
       id="path56"
       sodipodi:nodetypes="cscccssssscssscccssscccc" />
    <path
       id="path54"
       style="fill:#141112"
       d="m 887.02344,915.62695 c -21.14341,0.10813 -38.99696,13.72547 -44.66016,34.87305 -1.72219,6.43236 -1.72389,22.56337 -0.002,29 4.32349,16.16116 15.56913,27.837 30.74219,31.918 h 0.002 c 16.51951,4.4415 38.13159,-1.0637 47.94726,-12.21488 4.95627,-5.6306 9.48364,-14.65024 10.98633,-21.88867 0.67368,-3.24531 1.56196,-10.50709 1.3054,-16.90909 -0.51112,-12.75416 -3.19021,-19.25015 -9.84837,-28.14755 -7.17667,-9.5903 -16.38423,-14.52426 -29.81445,-16.22461 -2.24777,-0.28458 -4.47095,-0.41743 -6.6582,-0.40625 z m 0.56445,20.43164 c 2.27995,-0.002 4.47548,0.44067 6.3125,1.39063 8.00529,4.13969 12.09961,13.51026 12.09961,27.69531 0,13.81162 -4.86872,23.61075 -13.31445,26.79492 -8.26905,3.11755 -17.06012,-0.97763 -21.77539,-10.14453 -5.60153,-10.88984 -3.94007,-30.76285 3.33593,-39.91797 2.90443,-3.65452 8.3259,-5.8136 13.3418,-5.81836 z"
       sodipodi:nodetypes="scsccsssssssssssss" />
    <path
       style="fill:#141112"
       d="M 0,877.5 V 683 h 58.020228 58.020232 l -3.07119,-5.25 C 103.4893,661.54459 88.172933,628.68472 80.691049,608.5 56.553969,543.3827 47.774151,466.79814 56.558879,398 74.841236,254.82059 157.90571,130.32796 282.5,59.37141 368.90535,10.163497 467.98195,-9.0542504 567.5,4.0903687 614.07482,10.2421 659.44137,23.817093 702.78607,44.571899 c 14.91353,7.141067 39.68033,20.755705 40.66983,22.35674 0.27233,0.44065 -6.13133,1.014914 -14.23037,1.276144 -17.37012,0.560262 -22.42717,2.16324 -26.68786,8.459502 -1.4276,2.109643 -3.67728,5.319786 -4.9993,7.13365 -1.32201,1.813865 -2.55286,3.745522 -2.73521,4.292573 -0.18235,0.547051 -5.55717,-1.489286 -11.94405,-4.525193 C 655.5017,70.561387 620.69593,58.782418 591.5,52.647562 542.36515,42.323001 486.0301,41.400248 435,50.084133 420.20582,52.601685 388.849,60.728855 373.60601,65.996437 253.53028,107.49151 159.37058,202.10133 118.82042,322 c -9.65437,28.54604 -15.59785,55.67837 -19.386401,88.5 -2.11065,18.28538 -2.433328,62.20496 -0.58776,80 5.504411,53.07376 18.987131,100.2423 41.505041,145.2031 15.84691,31.641 32.0528,55.81325 58.69442,87.5469 l 3.14827,3.75 H 123.09699 44 V 877.5 1028 H 505 966 V 877.5 727 h -77 c -42.35,0 -77,-0.22412 -77,-0.49805 0,-0.27393 4.43342,-5.78643 9.85205,-12.25 C 873.27418,652.91343 904.07466,579.93054 914.17049,495.5 916.233,478.25144 915.94501,424.14573 913.69411,406 902.3741,314.74311 864.07326,234.03379 801.17258,168.88932 l -14.10194,-14.60498 1.93491,-3.79523 c 2.10728,-4.1333 1.89388,-8.84913 -0.62046,-13.71133 -1.37367,-2.65638 -1.30238,-2.8049 2.49777,-5.20383 5.2764,-3.33085 7.63204,-9.37352 6.791,-17.4202 -0.33452,-3.20052 -0.92023,-6.6322 -1.30157,-7.62596 -1.06984,-2.78796 1.17147,-1.18355 12.98131,9.29251 19.52732,17.32193 42.61897,42.3491 58.802,63.73075 52.98436,70.00494 83.91001,151.58732 90.9231,239.85661 1.50161,18.89978 0.6288,67.33908 -1.52424,84.59234 -7.70993,61.78314 -25.37464,116.86193 -54.02626,168.45455 -3.04051,5.47501 -5.5282,10.08751 -5.5282,10.25 0,0.1625 25.2,0.29545 56,0.29545 h 56 V 877.5 1072 H 505 0 Z"
       id="path44" />
    <path
       style="fill:#ee1b24;fill-opacity:1"
       d="m 778.28127,170.61738 c -0.9473,-0.0228 -1.2813,0.99501 -1.2813,2.90625 0,3.30078 -5.3359,9.10229 -9.6953,10.54101 -3.4126,1.12626 -8.7008,0.95557 -20.39451,-0.65625 -4.58292,-0.63169 -4.59307,-0.62534 -7.12891,3.73047 -1.39668,2.39907 -2.85034,5.93633 -3.23047,7.86133 -1.23251,6.24146 -4.73991,16.27898 -9.25976,26.5 -3.20039,7.23724 -4.47178,11.4786 -4.60547,15.35352 l -0.18555,5.35546 5.45508,3.10743 c 5.34882,3.0477 5.7202,3.10959 19,3.15429 11.91839,0.0401 14.58189,0.37466 22.18159,2.78516 10.331,3.27677 19.809,9.72106 21.8614,14.86328 0.7423,1.85981 3.4809,5.67417 6.0859,8.47656 5.8538,6.29732 7.4236,11.09493 5.3359,16.3125 -1.8018,4.50338 -5.895,7.0918 -11.2167,7.0918 -4.7094,0 -5.2032,0.84062 -5.2032,8.87109 0,11.04834 -3.5395,20.27684 -10.9082,28.44336 -4.7214,5.2326 -8.473,6.96197 -14.7871,6.81641 -4.42261,-0.10195 -5.30644,0.16781 -5.31444,1.62305 -0.005,0.95989 -1.1088,4.10859 -2.45312,6.99609 -1.34433,2.8875 -2.28746,5.25 -2.0957,5.25 0.19176,0 3.20769,-0.86578 6.70316,-1.92383 11.2181,-3.3957 20.838,-4.38101 37.0879,-3.79687 19.5744,0.70366 29.3149,3.21993 47.4277,12.24804 20.532,10.23389 37.809,25.86433 49.9863,45.22266 2.5083,3.9875 5.0268,7.25 5.5957,7.25 3.1917,0 -5.4758,-48.0607 -13.4355,-74.5 -17.7944,-59.10686 -50.9264,-115.41861 -94.3789,-160.4082 -6.2842,-6.50646 -9.5677,-9.43658 -11.1465,-9.47461 z"
       id="path153" />
  </g>
</svg>
