<svg xmlns="http://www.w3.org/2000/svg" width="1010" height="1072"><defs/><path d="M531 246.8c-6.3-3.9-18.3-11.3-26.5-16.6a174.5 174.5 0 00-19-11 87.4 87.4 0 00-31.5 1.2 542 542 0 00-46 12l-7.3 2.6-5.6-3.2c-42-23.8-72.7-39-108.6-53.8-7.8-3.2-31-11.7-42.4-15.6-1.5-.5 3.8-5.4 16.5-15.7A396 396 0 01428 68 402.7 402.7 0 01603.8 72c26.6 7 61 19.8 77.7 29l7.3 4-1 3.4c-1.8 5.6.6 12 6.9 18.4 9.5 9.8 7.6 11.7-12.7 12.7-15.5.8-20.7 2.2-40 10.7a190 190 0 00-51.5 32.3c-25.2 21.2-38.1 40.5-44.6 66.6-.6 2.7-1.6 4.8-2.3 4.7-.6 0-6.3-3.2-12.6-7z" fill="#ee1b24"/><path d="M744.3 78.3l-7.3.2c-22.9 1-22.1.7-27.5 7.2-2.7 3.3-4.4 6.2-4 7.1.3.8-.3 2.1-1.5 3-2.8 1.9-4.4 6-3 7.7.8 1 .5 2.2-1 4.8-1.5 2.6-1.8 4-1.1 5.8 1.3 3.4 6.1 7.7 9 8 2.2.4 2.5 1 2.8 5.4.2 2.7.8 5.4 1.3 6 2.6 2.5 0 8.5-5.1 12-4.9 3.2-10 4.3-26.4 5.4a56.9 56.9 0 00-24.5 5.6 205.3 205.3 0 00-51.5 28.8c-26.7 21.8-38.3 37.1-46 60.7-5.7 17.8-6.8 30.3-3.5 41.2a34.3 34.3 0 0012.6 16.4c12.2 8 15.7 13 18.9 26.4 2 8.1 7.5 23.5 12.3 34.2l3 6.6-5.1 2.2c-30.3 13-39 16.2-41.2 15.4-.8-.3-2.5-2.3-3.6-4.4-1.2-2.1-2.9-4-3.8-4.3a114 114 0 01-12-18.2c-9.3-15.9-10.3-18.2-10.4-22.6 0-3.1.5-5.5 1.4-6.3.8-.7 7.4-3.2 14.7-5.5 13-4.1 16.2-6.1 13.1-8.2-2.3-1.6-11.4 0-24.3 4a270 270 0 01-38.6 10.2c-8.9 1.3-14 3.2-14 5.3 0 2 5.4 6.3 8.9 7 1.6.4 5.6 0 8.9-.8 7.8-2 9.6-2 16.2.4l5.6 2c.1 0 5.3 8.1 11.5 18 8.9 14.4 11 18.4 9.8 19-.8.6-2 1-2.6 1-2.2 0-1.4 2 5.2 13l6.6 10.9-2.3 7.6c-1.7 6-2.8 8-4.5 8.6-1.2.4-3.3 2.4-4.5 4.4-1.9 3-2.8 3.5-4.8 3a92.4 92.4 0 00-29.6-1.6 81 81 0 00-29.9 9.4 63.4 63.4 0 00-17.6 13.7 57.4 57.4 0 00-14.8 20 89 89 0 00-9.7 35.4 104.7 104.7 0 0047.7 92.2c3.3 2 5.6 4 5.2 4.4-.7.6-16.3 6-95.8 33.5A55187.2 55187.2 0 00279 677c-3.6 1.2-7 2.6-7.4 3.1-.6.5-.7.9-.4.9.9 0 68.4-14.4 156.8-33.5a45295.2 45295.2 0 01161-34.6l32-7c10.2-2 37.4-7.9 60.5-12.9 38.6-8.4 59.5-12.8 127.5-27.4 32.5-7 44-11.8 59-25.2 31.5-27.8 39.7-75 20-115.8a102 102 0 00-22-30.7 105.4 105.4 0 00-77.7-32.9 87 87 0 00-35.3 6.6c-11 4.5-10.6 4.4-10.2.6.4-3.9-1.4-4.2-7.3-1.2-4.3 2.2-6.5 2-6.5-.6a6 6 0 00-1.4-3.3c-3-3.5-7.3-37.3-5.3-42.5.5-1.3 1.4-1.3 6.9.6 3.5 1.2 6.6 2.6 7 3.2 1.2 1.7 1 15.1-.3 18.3a34 34 0 01-4.5 7c-2.5 3-3.3 4.9-2.9 6.3 1 3.2 4.9 2.5 8.4-1.5a24.7 24.7 0 007.2-19.1c0-6 .3-7.4 1.5-7.4.9 0 1.8-.9 2.1-2 .3-1.1 1.1-2 1.8-2 1.9 0 4.6-3 4-4.2a19 19 0 01-1.1-5c-.2-2.3-1-4.8-1.8-5.7-.7-.9-1.8-3-2.4-4.9-1.6-4.6.3-4.2 8.3 1.8 7.6 5.8 10.4 6.6 5.6 1.6l-3.3-3.4 3.8-1c2-.7 4-1 4.2-.7 1 1 0 11.9-1.2 14.4-.8 1.4-2.8 4.3-4.5 6.5-2.4 3-2.8 4.2-2 5.7 1.6 3 4.5 2.2 8.3-2.2 5.5-6.5 6.9-10.3 7.5-21.4.5-8.4 1-10.5 2.9-13 1.4-1.7 2.2-4.1 2.2-6.6 0-7 .7-7.3 6.3-2.9 2.7 2.2 5.2 3.8 5.5 3.5.3-.3-1.7-2.9-4.5-5.8a26.2 26.2 0 01-5.7-8c-.9-3.6-7-8-15.4-10.9-5.7-2-8.8-2.3-20.7-2.3h-14l-7.5-3.7a45 45 0 01-10-6.3c-2.3-2.4-2.5-3.4-2.5-11.8 0-8.7.3-9.6 4.2-17.7 5.2-10.6 9.3-22.8 10-29.7.4-3.3 1.3-5.9 2.4-7 1-.9 1.9-2.7 1.9-4 0-1.7 1.1-2.8 4.3-4.5 4.6-2.4 12.4-2.9 23-1.3 6.6.9 8.2 0 9.2-4.8.4-1.8 1.4-4 2.1-4.8 1.6-1.8 2.3-4.1 3.3-10.8.5-4 1-4.6 3.8-5.3 1.8-.5 3.5-1.3 3.8-1.8.3-.5-.5-3.4-1.8-6.5l-2.4-5.7 2.1-5.4c1.6-4 2.6-5.4 4.2-5.4a8 8 0 003.9-1.4c1.5-1.1 1.7-2.2 1.2-7.3a38.7 38.7 0 00-29.2-34.8c-3.5-.9-7-1.2-13.2-1.2zM682.2 226c.3 0 .8 4.8 1.2 10.8.8 14.1 2.3 23 4.5 26.7 2.5 4.3 6.5 6.7 17.9 10.5l10 3.4-5.4 3.3c-3 1.8-5.7 3.3-5.9 3.3-.1 0-3-2-6.3-4.5-12.6-9.5-31.2-31.5-31.2-37 0-1.3.8-4.3 1.9-6.7 1.5-3.5 2.8-4.8 7.3-7a55 55 0 016-2.8zm-23.7 54.1l8 6c4.4 3.4 12.6 8.9 18.3 12.2 6.4 3.8 9.8 6.3 9 6.8-.7.3-3.3.9-5.8 1.2-4.1.5-5 .2-9.5-3.4-2.8-2.1-8.6-6.1-13-8.9l-9.3-5.8c-1.1-.8-1-1.6.5-4.5l1.8-3.6zm84.4.9c3.8 0 18.8 5.4 22 8l2.6 1.9-2.4 2.5a18 18 0 01-5.1 3.6c-1.6.7-3 2-3.2 3-.3 1.6-1 1.2-5.3-2.2-6-4.8-11.9-7.7-16-7.8-2.8 0-7.4-2.5-6.4-3.4 1.9-1.7 11.4-5.6 13.8-5.6zm-36.3 33.5l.4.1c.8.4 4 1.4 7.3 2.3l5.7 1.6V331c0 6.9.7 15.5 1.4 19.3.7 3.7 1 6.7.7 6.7a171 171 0 01-18.1-30.6c0-2.3-.3-2.6-2.5-2.2-1.8.4-2.9-.1-4-1.8-1.5-2.3-1.4-2.5 3.2-5.4 2.5-1.6 4.7-2.5 5.9-2.5zm-63.2 16.6l1.8.3c3 .6 5.8 2.2 5.8 3.5 0 .3-1.8 1.6-4 2.8-4.3 2.5-5 2-5-4 0-2 .1-2.7 1.4-2.6zm-124.1 4.6c.2 0 .3.1.2.4-.4.6-2.2 1.7-4 2.5-4 1.6-6.9 1.8-4.2.3a24 24 0 018-3.2zm174.5 6.6l1.7.1c3.5.9 8.7 10 8 13.9-.4 1.5-5.3 11.2-11 21.5a64790.7 64790.7 0 00-45.2 83 24.3 24.3 0 01-4.2 6.2c-2.2 0-9.1-10-9.1-13.2 0-5.2 10.1-52.6 12.5-58.3 1.3-3.3 2.7-7.4 3.1-9 .4-1.7 4-6.7 8.4-11.5 8.4-9.3 17-19.5 21.3-25a24.5 24.5 0 0114.5-7.7zm20.8 28c.3 0 .4.3.4 1 0 1 .7 2 1.5 2.3 1 .4 1.5 1.9 1.5 3.9 0 1.8.7 5 1.5 7 1.7 4 1.8 4-4.1 11.2a95.3 95.3 0 00-18 40.1c-1.8 9.7-1.8 27 .2 37.2 5.3 28.3 24 56.4 47.7 72 4.2 2.8 6.2 4.7 5.4 5-.6.5-24 7-51.7 14.5a142075.1 142075.1 0 00-114.5 31.2c-1.4.4-.7-1 2.6-4.8a87.5 87.5 0 0021.4-49.1l.6-3.7 3.6 2.5c2 1.3 5.4 3 7.7 3.6 6.2 1.7 7.8 3.6 6.6 7.7-1 3.9-.6 5.1 2 5.1 1 0 2.3 1.2 3 3 1.6 3.8 5.2 4.1 6.8.5 1-2.2 1.5-2.4 6.2-1.8 3.3.4 5 .2 5-.5 0-.8 2.7-1 8.5-.5 10 .7 12.5-.6 12.5-6.2 0-3.7-.9-4.6-8.5-8.6-9.4-4.9-14.6-9.1-14-11.4 2.7-9 1.2-18.8-3.7-25.6l-2.9-4 7.4-13.7A18102 18102 0 01702 392c8.9-16.1 11.8-21.3 12.7-21.7zm75 .8a99.9 99.9 0 0169.2 29.8c12 12 21.7 28.8 26.4 45.7 3.2 11.7 3.2 34.6 0 45.9a81.5 81.5 0 01-81 60.4c-22.3-.2-39.7-6-57.2-19a97.4 97.4 0 01-38-101.4c3-12 14.6-33.5 18-33.5.5 0 3 2.8 5.7 6.3 7 9.1 20.9 25.2 36.5 42.4 10 11 13.8 15.8 13.8 17.6 0 4 1 5.6 4.2 7.3 4 2.1 8.7.3 9.5-3.6.4-2 1.3-3 3.4-3.4 8-1.6 4.6-13.5-3.9-13.6-4 0-44.3-48.6-51.7-62.2l-2.6-4.7 5.3-3c13-7.5 27.6-11 42.3-11zM605.3 379l1.8 2.3a10 10 0 011.8 3c0 1.3-11 23-13.3 26.1-1 1.6-3.9 3.7-6.2 4.7a19.7 19.7 0 00-7.7 6.4 20.9 20.9 0 01-4 4.6c-.3 0-3.8-5.4-7.8-12-5-8.5-7-12.7-6.8-14.6.3-2.5 1.9-3.4 21.2-11.6l21-9zm-50.8 41.6l.4.1a717 717 0 0122.7 37.3 142 142 0 00-28-19.2c-.5-.1 0-3.6 1.3-7.7l2.7-9.4c.2-.7.6-1.2 1-1.1zm208.6 8.5c1 0 27.8 27.6 27.8 28.6 0 .7-.7 1.4-1.5 1.8-1 .4-4.7-3.3-12.1-12.2-10.5-12.6-14.9-18.2-14.2-18.2zm-252 11c8.8 0 23.5 2.3 25.2 4 .8.8-1.6 9.4-17.1 59.4-1.5 4.8-3.2 9-3.8 9.1l-3.8 1c-5 1-7.7 4.7-7.7 10.2 0 11.4 11.2 17.4 19.3 10.4l3.3-3 29.4-2.5a3734 3734 0 0136.3-3l6.7-.4v8.7a72.8 72.8 0 01-57.7 71.7 102 102 0 01-26.3.7c-18-3-37.2-13.2-49.6-26.5a90.7 90.7 0 01-22.3-88.6 71.9 71.9 0 0168.1-51.2zm35.7 8a92.6 92.6 0 0147.7 54.4c3.9 11.4 5 10.6-13.9 10.6-8.9 0-21.8.2-28.7.4-6.9.2-14.5.2-16.9 0l-4.4-.5.6-5.7c1-8.6 14.3-59.2 15.6-59.2zm47.7 5.1c.5 0 2.7 1.7 5 4 4 4 4.5 5 4.2 8.4l-.3 3.9-4.8-7.8a29 29 0 01-4.1-8.5zm36.8 26.4h.2l3 1c1.2.4 1 1.5-1.6 6.4-2.8 5.6-4.9 8.2-5.1 6.4-.7-6 1.3-14 3.5-13.8zM640 507c2.3 0 5.4 8.5 5.5 14.7 0 7.2-1 9-4.3 6.7-1.8-1.2-2.2-2.5-2.2-7 0-2.9-.5-6.4-1.1-7.7-1.2-2.6.2-6.7 2.1-6.7zm-97.6 14.3c3.7 0 4 .2 1.6.7l-11.4 1.5c-5.5.5-6.7.4-6.4-.7.3-1 3.2-1.3 11.4-1.5h4.8z"/><path d="M183.6 677.8A418.5 418.5 0 01144 606a400.7 400.7 0 01-29.2-113.5c-1.9-16.2-1.6-66.5.5-82.9 1.9-15 1.6-14.6 14.7-23.6 31.8-21.7 71-35.8 167.6-60 33-8.2 40.9-10.9 46.6-16 5.2-4.6 5.6-8.7 1.4-14.2-10.6-14-70.3-36.9-137.8-52.9a53.6 53.6 0 01-9.4-2.6c.5-.5 20.7 3 38.6 6.6 83.2 17 138 35.8 157.9 54.5 14.6 13.8 11.3 27.4-10 40.5-7.7 4.7-12.3 6.9-35.4 16.6-34.6 14.7-60.5 31.7-69.6 45.8-7.1 11-6.3 19.5 3 28.6 17.7 17.7 65.3 29.3 133.9 32.7 7.8.4 14.2 1.1 14.2 1.6s-1.1 3-2.5 5.8c-6.6 13-10.3 35.4-8.5 52 2.2 22 9.6 40.9 22.7 58.3a67 67 0 014.3 6.1 710.3 710.3 0 00-28 10 20292.3 20292.3 0 01-73.5 27.1C293.8 645.6 189 684 188.5 684c-.2 0-2.4-2.8-4.9-6.3z" fill="#141112"/><path d="M753.2 757c-11 0-22.3 2.2-31.2 6.2-19.8 9-34.1 30.5-37 55.6-4.3 38 17.5 70.9 50.8 76.8 9.3 1.6 26.2 1 34.7-1.2a62 62 0 0035-24.4 70.6 70.6 0 0012.2-39.5c2-37-17.7-65.5-50.2-72.1-4.5-1-9.4-1.4-14.3-1.4zm129.5 1.2c-14.3 0-40.4 1.4-43.2 2.5-1.3.4-1.5 9.6-1.5 66.7 0 36.5.3 66.6.7 67 .9.9 32.5.7 34-.2.9-.5 1.1-6.7 1-22.8l-.2-22.1 12.5-.6a69.7 69.7 0 0031.7-7.2c8-4 15.6-11.4 19.2-19a49.3 49.3 0 00.4-38.7c-8-17-21.9-24.2-49.3-25.5h-5.3zm-.4 26.8c9.3 0 14.1 1.4 18.3 5.3 9.2 8.7 5.2 24.9-7.3 29.1-2.6.9-8 1.6-12 1.6h-7.2l-.3-16.6c-.2-9 0-17.2.5-18 .6-1 2.8-1.4 8-1.4zm-131 .5c4.1 0 8.1.6 10.6 1.9 10.8 5.8 18 21.3 18 38.6.1 20.1-7.6 36.4-19.4 41-14.3 5.5-30-3.7-35.3-20.9a66.4 66.4 0 01-1.7-19.6c0-12.1.3-14.8 2.2-19.8 4-10 8.2-15.5 14.8-19 2.7-1.4 6.8-2.2 10.8-2.2zM217 827v-68h36v106h52v30h-88zM131 895.4c-14-1.7-25-5.6-34.7-12.2a58.7 58.7 0 01-23-31.9c-2.5-8-2.8-10.1-2.8-22.3 0-15.5 1.5-22.3 7.2-33.8a67.5 67.5 0 0144-34c9-2.5 11.3-2.7 28.3-2.7 14.6 0 20.2.4 26.8 1.9 12.6 2.9 12.1 1.9 8.2 18.3l-3.3 14-8-2.4c-18.3-5.4-37.8-3.9-49.5 3.6-6.5 4.3-9 7.2-13 15.8-2.5 5.3-2.7 6.8-2.7 17.3 0 10.7.3 12 3.2 18.1a34.7 34.7 0 0017 18.1 31 31 0 0016 3.6c5 .3 10.4.1 11.8-.2l2.6-.7-.3-11.7-.3-11.7-9.3-.3-9.2-.3V815h53V888.7l-6.3 1.7a130.4 130.4 0 01-36.7 5.1c-8.5.2-17 .1-19-.1zM599 896a106 106 0 01-22.8-5.5c-4-1.7-4-2.2-.1-18.5l3-13 5 2c14.1 5.6 33.7 7.8 41.3 4.6 7.7-3.2 10-10.6 5-16-2.4-2.7-16-9.6-18.6-9.6-.8 0-5.2-1.8-9.8-4-21.7-10.6-30.9-24.7-27.9-43.1 2.5-15.5 14-27.4 31.4-32.9 9-2.8 26.2-3.7 37.5-2 11.2 1.6 21 4.7 21 6.6 0 1.5-6 26.6-6.6 27.2-.1.2-3.7-.8-8-2.3a65.3 65.3 0 00-30-2.6c-5 1.3-9.4 6-9.4 9.8 0 4.6 5.6 8.4 21.3 14.7 22 8.7 30 14.6 35.6 26.6 2.3 4.8 2.6 6.8 2.6 15.5 0 8.8-.3 10.7-2.7 15.8-3.7 8-7.8 12.8-14.2 17-13.3 9-31.9 12.2-53.6 9.7zM488 896.3c-9.3-1-29-6.3-29-7.8 0-.7 6-27 6.5-28.2.3-1 1.5-.8 4.8.6 12.4 5.3 31.7 7.7 40.8 5 8.5-2.6 11.2-10.9 5.5-16.8-2.8-2.9-5.3-4.1-23.7-11.4-15-6-24-13.2-29.6-24a33.4 33.4 0 01.4-30.9c8.2-16.6 26.6-25.8 51.7-25.8 13.1 0 35.6 4.6 35.6 7.2 0 1.1-7 27-7.3 27.5-.2.1-3.9-1-8.2-2.4-11.5-3.7-25.4-4.3-31.9-1.5-8.2 3.7-9.3 11.2-2.3 16 1.8 1.2 8.9 4.5 15.7 7.2 17.3 7 23.2 10.4 29 16.6a33 33 0 0110.4 25.4c0 12.6-2.8 19.6-11.3 28a48 48 0 01-24.8 13.6 149 149 0 01-32.3 1.7zM378 757a64.6 64.6 0 00-65.2 49.6c-3 10.2-3.1 31.2-.4 41.4 3.2 12 9 22.5 17 30.4A57 57 0 00363 896c7.4 1.2 25 .4 32.9-1.5 16-3.8 32.5-17 39.4-31.6 6-12.5 8-18 8-36.1 0-12.2-1.2-17.8-2.6-22.8a62 62 0 00-62.7-47zm-1.6 28.2c1.1 0 2.3 0 3.3.2C395.6 787.5 405 803 405 827c0 19.8-6.1 33.4-17.8 39.4-5.9 3-15.3 2.7-22.1-.9a36.3 36.3 0 01-13-15.9c-6-16.5-4.6-39.8 3.4-52.1 4.8-7.2 13-12 21-12.3z" fill="#ee1b24"/><path d="M804.3 1011.2l-29.3-.2v-94l12.8.2 12.7.3.3 36.2.2 36.3 17.8.2 17.7.3.3 10.1c.2 9 0 10.2-1.5 10.5-1 .2-15 .3-31 .1zM698.8 1011.3c-1.7-.4-1.8-3.5-1.8-47.4V917h62l-.2 10.3-.3 10.2-17.8.3-17.7.2v15l16.8.2 16.7.3.2 9c0 5.2-.3 9.6-1 10.3-.7 1-5 1.2-16.6 1.1l-15.6-.1-.3 8.6-.3 8.6H761v20h-28.3a667.1 667.1 0 00-34 .3zM626.7 1011.2c-.9-.2-1.9-1.3-2.2-2.5L603.7 943a937.2 937.2 0 01-7.2-23.2l-.7-2.8h14c11.2 0 14.2.3 14.2 1.3 0 .8 2.9 11.9 6.4 24.8a861.7 861.7 0 0110.3 40.9c.3.8 3.1-8.4 6.3-20.5a7475 7475 0 019-34.3l3.3-12.2h13.3a49 49 0 0113.4 1c0 1-30 92.3-30.5 92.8-.4.5-26.7.8-28.8.4zM519.5 916.3c-3.4 0-7 .2-11 .5-8 .6-15 1.4-15.5 1.7-.6.4-1 18.2-1 46.6v45.9h26v-35.3l5.1.6c2.8.4 5.8 1.2 6.6 1.8a30 30 0 016.2 13.4c.6 2.7 2.1 8.2 3.3 12.2l2 7.2c9.2.3-.3 0 27 .5-1-3.4-3.2-9.6-5.8-18.9-3.6-13.3-5.5-17.6-9.7-21.7l-3.5-3.5 4.7-3.4c6.7-5 10-11.6 10-20.2 0-3.7-.5-8.2-1.3-10-5-12.1-18.9-17.7-43-17.4zm-172.7.5h-5.3c-9.9 0-20 .4-22.5.9l-4.5.9-.3 45.4c-.1 30 .1 45.7.8 46.4a111.9 111.9 0 0036 1.5c25-2.5 40-11 46.2-29.8a55.2 55.2 0 00-1.4-41.3c-5.8-11.6-14-18-28.4-22a66 66 0 00-20.6-2zm67.2.2v94l29.8.2 32 .5c2.2.2 2.2 0 2.2-10.3V991h-38v-17l16.8-.2 16.7-.3.3-10.3.3-10.2H440v-15h36v-21h-31zm109.9 18c3.8.1 8.7 1.2 10.8 2.6 7 4.5 5 15.5-3.3 19-1.9.8-5.6 1.4-8.4 1.4h-5v-11c0-11 0-11 2.6-11.6.9-.2 2-.3 3.3-.3zm-183.9.7l8.3.5c17 1 24.6 9.3 24.7 26.3 0 14.3-4 22.4-13.4 27-4 2-7.8 3-12.6 3.3l-7 .5v-28.8zM224.8 1011.2l-9.8-.3V917h29.8l8.6 16.8a503.7 503.7 0 0118.2 37.2l2.2 5.5-.5-29.8-.6-29.7H296v94l-13.6-.2-13.6-.3-10.3-20.5c-5.7-11.3-12.8-25.6-15.7-31.7l-5.3-11.3.3 31.9c.3 30.1.2 31.9-1.5 32.2-1 .2-6.2.3-11.6.1zM172 964.3V917h25v93.9l-12.5.3-12.5.3v-47.3zM80 1011v-94h25v19c0 10.4.3 19 .8 19.3.4.3 5.9-8 12.1-18.5 6.3-10.5 12-19.2 12.6-19.4.6-.3 7.7-.3 15.8-.2l14.7.3-14.5 19.4a235 235 0 00-14.5 20.6c0 1 14.4 26.7 27.4 48.8l2.8 4.7H132.5l-9.5-18.5a248.3 248.3 0 00-10-18.4c-.3 0-2.2 2.2-4.3 4.9l-3.7 4.8v27.2H80zM887 915.6c-21.1.1-39 13.8-44.6 34.9a82 82 0 000 29 43.4 43.4 0 0030.7 32c16.5 4.4 38.1-1.1 48-12.3a53.2 53.2 0 0012.2-38.8 43.2 43.2 0 00-9.8-28.1 40.5 40.5 0 00-29.8-16.3 51 51 0 00-6.7-.4zm.6 20.5c2.3 0 4.5.4 6.3 1.3 8 4.2 12.1 13.6 12.1 27.7 0 13.9-4.9 23.7-13.3 26.8-8.3 3.2-17-1-21.8-10.1a43.6 43.6 0 013.3-40c3-3.6 8.4-5.7 13.4-5.7z" fill="#141112"/><path d="M0 877.5V683h116l-3-5.3c-9.5-16.2-24.8-49-32.3-69.2A458 458 0 0156.6 398 454 454 0 01702.8 44.6c14.9 7.1 39.7 20.7 40.7 22.3.2.5-6.2 1-14.3 1.3-17.3.6-22.4 2.2-26.7 8.5-1.4 2-3.6 5.3-5 7.1a29 29 0 00-2.7 4.3c-.2.5-5.6-1.5-12-4.5a438.3 438.3 0 00-91.3-31A432.5 432.5 0 00435 50.1 526.3 526.3 0 00373.6 66 410.3 410.3 0 0099.4 410.5a540.5 540.5 0 00-.6 80A412.4 412.4 0 00199 723.3l3.2 3.7H44v301h922V727h-77c-42.4 0-77-.2-77-.5s4.4-5.8 9.9-12.2c51.4-61.4 82.2-134.4 92.3-218.8 2-17.2 1.7-71.4-.5-89.5a408.1 408.1 0 00-112.5-237.1L787 154.3l2-3.8c2-4.1 1.8-8.9-.7-13.7-1.4-2.7-1.3-2.8 2.5-5.2 5.3-3.4 7.6-9.4 6.8-17.4-.4-3.2-1-6.7-1.3-7.7-1.1-2.8 1.1-1.2 13 9.3A452.7 452.7 0 01959 419.4c1.5 19 .6 67.3-1.5 84.6a456.7 456.7 0 01-54 168.5c-3.1 5.4-5.6 10-5.6 10.2 0 .2 25.2.3 56 .3h56v389H0z" fill="#141112"/><path d="M778.3 170.6c-1 0-1.3 1-1.3 3 0 3.2-5.3 9-9.7 10.5-3.4 1-8.7 1-20.4-.7-4.6-.6-4.6-.6-7.1 3.7-1.4 2.4-2.9 6-3.2 7.9-1.3 6.2-4.8 16.3-9.3 26.5a42.2 42.2 0 00-4.6 15.4l-.2 5.3 5.5 3.1c5.3 3 5.7 3.1 19 3.2 11.9 0 14.5.3 22.1 2.8 10.4 3.2 19.8 9.7 21.9 14.8.7 1.9 3.5 5.7 6 8.5 6 6.3 7.5 11 5.4 16.3-1.8 4.5-5.9 7.1-11.2 7.1-4.7 0-5.2.8-5.2 8.9 0 11-3.5 20.2-11 28.4-4.6 5.2-8.4 7-14.7 6.8-4.4 0-5.3.2-5.3 1.7 0 1-1.1 4-2.5 7a24.4 24.4 0 00-2 5.2l6.6-2c11.3-3.3 20.9-4.3 37.1-3.7 19.6.7 29.3 3.2 47.5 12.2a124.7 124.7 0 0150 45.3c2.5 4 5 7.2 5.5 7.2 3.2 0-5.4-48-13.4-74.5a400 400 0 00-94.4-160.4c-6.3-6.5-9.5-9.4-11.1-9.5z" fill="#ee1b24"/></svg>