<?xml version="1.0" standalone="no"?>
<!DOCTYPE svg PUBLIC "-//W3C//DTD SVG 20010904//EN"
 "http://www.w3.org/TR/2001/REC-SVG-20010904/DTD/svg10.dtd">
<svg version="1.0" xmlns="http://www.w3.org/2000/svg"
 width="1072.000000pt" height="1072.000000pt" viewBox="0 0 1072.000000 1072.000000"
 preserveAspectRatio="xMidYMid meet">
<metadata>
Created by potrace 1.14, written by Peter Selinger 2001-2017
</metadata>
<g transform="translate(0.000000,1072.000000) scale(0.100000,-0.100000)"
fill="#000000" stroke="none">
<path d="M5128 10715 c-2 -1 -46 -6 -98 -9 -86 -6 -299 -30 -360 -42 -14 -2
-41 -7 -60 -10 -19 -3 -80 -14 -135 -26 -55 -11 -109 -22 -120 -24 -104 -20
-509 -143 -557 -170 -16 -8 -28 -13 -28 -10 0 4 -45 -13 -115 -44 -27 -12 -99
-43 -105 -45 -47 -16 -174 -79 -178 -87 -2 -5 -9 -8 -15 -8 -42 0 -480 -263
-644 -386 -28 -21 -61 -46 -73 -54 -13 -8 -28 -19 -34 -25 -6 -5 -45 -37 -86
-69 -41 -33 -82 -67 -91 -75 -9 -9 -41 -38 -72 -64 -124 -106 -389 -382 -482
-501 -16 -21 -34 -44 -40 -50 -48 -54 -325 -445 -325 -459 0 -3 -28 -53 -63
-113 -34 -60 -74 -131 -87 -159 -14 -27 -28 -51 -32 -53 -5 -2 -8 -8 -8 -14 0
-5 -16 -43 -35 -84 -88 -185 -146 -329 -210 -519 -39 -116 -109 -371 -129
-466 -21 -101 -38 -189 -42 -219 -3 -19 -9 -60 -14 -90 -14 -80 -23 -165 -37
-330 -8 -108 -9 -520 0 -625 16 -193 19 -221 22 -240 2 -11 4 -20 5 -20 1 0 3
-21 6 -47 2 -26 11 -87 19 -135 9 -49 20 -110 25 -138 11 -62 62 -276 89 -370
29 -102 100 -310 126 -370 7 -16 30 -70 50 -120 56 -138 244 -515 257 -515 6
0 8 -3 5 -7 -4 -3 -2 -12 4 -20 10 -11 -85 -13 -570 -13 l-581 0 0 -1945 0
-1945 5050 0 5050 0 0 1945 0 1945 -435 0 c-239 1 -491 1 -559 1 l-125 1 43
81 c24 45 61 116 83 157 37 71 183 393 188 415 1 5 6 21 12 35 14 33 89 256
101 300 6 19 20 67 31 105 11 39 22 81 25 95 3 14 7 34 10 45 31 134 45 196
50 225 3 19 7 44 10 55 2 11 7 40 11 65 4 25 9 54 11 65 2 11 7 43 9 71 3 28
7 60 9 70 12 63 20 255 20 519 1 262 -2 340 -18 480 -17 141 -21 171 -30 225
-3 19 -8 46 -10 60 -15 93 -39 208 -47 223 -6 11 -8 21 -6 24 3 2 1 19 -4 36
-6 18 -12 43 -15 57 -8 39 -72 253 -100 333 -13 40 -26 77 -28 82 -21 69 -114
292 -169 405 -33 69 -61 127 -62 130 -3 12 -58 115 -64 120 -3 3 -15 23 -26
45 -11 22 -22 42 -25 45 -10 10 -41 65 -47 83 -3 9 -9 17 -14 17 -5 0 -9 4 -9
10 0 12 -64 112 -85 134 -9 8 -15 18 -14 21 0 4 -18 31 -40 61 -23 30 -41 57
-41 59 0 3 -6 13 -14 22 -14 18 -91 116 -133 171 -12 16 -33 40 -45 54 -13 13
-50 56 -83 94 -71 82 -348 364 -358 364 -3 0 -25 18 -49 40 -24 22 -50 47 -59
55 -28 26 -37 18 -29 -27 19 -99 -2 -167 -65 -217 -26 -20 -32 -50 -15 -67 16
-16 14 -88 -3 -124 l-17 -33 69 -71 c106 -109 162 -169 208 -222 23 -27 53
-62 68 -79 14 -16 45 -55 68 -85 23 -30 45 -57 48 -60 11 -9 188 -264 201
-290 7 -14 15 -27 18 -30 6 -5 44 -69 93 -155 82 -145 268 -553 282 -619 1 -6
7 -23 13 -39 7 -15 14 -38 16 -50 2 -12 12 -39 20 -59 9 -21 14 -38 11 -38 -3
0 -1 -8 4 -18 6 -11 13 -32 16 -48 7 -36 13 -57 16 -64 1 -3 3 -9 4 -15 1 -5
5 -17 8 -25 8 -21 18 -71 20 -97 1 -13 5 -23 9 -23 4 0 7 -8 6 -17 0 -10 5
-43 12 -73 6 -30 14 -71 16 -90 3 -19 8 -42 11 -50 3 -8 7 -28 9 -45 2 -16 6
-48 9 -70 21 -152 28 -292 28 -570 0 -132 -3 -285 -7 -340 -5 -55 -9 -115 -10
-132 0 -18 -3 -33 -6 -33 -4 0 -6 -10 -6 -22 -1 -13 -4 -41 -8 -63 -4 -22 -9
-57 -12 -78 -7 -44 -8 -53 -17 -87 -4 -14 -9 -36 -11 -50 -12 -60 -17 -86 -22
-102 -3 -10 -8 -30 -11 -45 -8 -42 -11 -58 -13 -60 -2 -2 -3 -6 -4 -10 -1 -5
-5 -17 -9 -28 -3 -11 -8 -31 -11 -45 -2 -14 -17 -63 -32 -110 -15 -47 -27 -91
-27 -97 0 -7 -5 -13 -10 -13 -6 0 -7 -3 -4 -7 4 -3 2 -12 -4 -20 -6 -7 -8 -13
-4 -13 4 0 3 -6 -2 -13 -6 -6 -13 -25 -17 -42 -4 -16 -14 -43 -21 -60 -8 -16
-23 -52 -33 -80 -66 -169 -285 -591 -314 -603 -5 -2 -8 -7 -8 -12 0 -10 -103
-164 -112 -168 -5 -2 -8 -10 -8 -17 0 -7 -3 -15 -7 -17 -5 -1 -28 -30 -53 -63
-47 -64 -49 -67 -81 -105 -12 -14 -33 -41 -48 -60 -14 -19 -36 -44 -48 -56
-13 -12 -23 -26 -23 -33 0 -6 -4 -11 -10 -11 -5 0 -10 -6 -10 -14 0 -10 12
-14 38 -14 20 0 364 0 765 -1 l727 -1 -2 -1507 c-3 -1335 -5 -1508 -18 -1504
-31 7 -56 7 -72 -1 -11 -5 -18 -5 -18 1 0 5 -14 6 -34 1 -18 -4 -41 -3 -50 2
-10 5 -23 5 -36 -2 -11 -6 -26 -8 -33 -3 -16 10 -48 10 -69 0 -10 -4 -18 -4
-18 2 0 5 -14 6 -34 1 -18 -4 -41 -3 -50 2 -10 5 -23 5 -36 -2 -11 -6 -26 -8
-33 -3 -16 10 -48 10 -69 0 -10 -4 -18 -4 -18 2 0 5 -14 6 -34 1 -18 -4 -41
-3 -50 2 -10 5 -23 5 -36 -2 -11 -6 -26 -8 -33 -3 -16 10 -48 10 -69 0 -10 -4
-18 -4 -18 2 0 5 -14 6 -34 1 -18 -4 -41 -3 -50 2 -10 5 -23 5 -36 -2 -11 -6
-26 -8 -33 -3 -16 10 -48 10 -69 0 -10 -4 -18 -4 -18 2 0 5 -14 6 -34 1 -18
-4 -41 -3 -50 2 -10 5 -23 5 -36 -2 -11 -6 -26 -8 -33 -3 -16 10 -48 10 -69 0
-10 -4 -18 -4 -18 2 0 5 -14 6 -34 1 -18 -4 -41 -3 -50 2 -10 5 -23 5 -36 -2
-11 -6 -26 -8 -33 -3 -16 10 -48 10 -69 0 -10 -4 -18 -4 -18 2 0 5 -14 6 -34
1 -18 -4 -41 -3 -50 2 -10 5 -23 5 -36 -2 -11 -6 -26 -8 -33 -3 -16 10 -48 10
-69 0 -10 -4 -18 -4 -18 2 0 5 -14 6 -34 1 -18 -4 -41 -3 -50 2 -10 5 -23 5
-36 -2 -11 -6 -26 -8 -33 -3 -16 10 -48 10 -69 0 -10 -4 -18 -4 -18 2 0 5 -14
6 -34 1 -18 -4 -41 -3 -50 2 -10 5 -23 5 -36 -2 -11 -6 -26 -8 -33 -3 -16 10
-48 10 -69 0 -10 -4 -18 -4 -18 2 0 5 -14 6 -34 1 -18 -4 -41 -3 -50 2 -10 5
-23 5 -36 -2 -11 -6 -26 -8 -33 -3 -16 10 -48 10 -69 0 -10 -4 -18 -4 -18 2 0
5 -14 6 -34 1 -18 -4 -41 -3 -50 2 -10 5 -23 5 -36 -2 -11 -6 -26 -8 -33 -3
-16 10 -48 10 -69 0 -10 -4 -18 -4 -18 2 0 5 -14 6 -34 1 -18 -4 -41 -3 -50 2
-10 5 -23 5 -36 -2 -11 -6 -26 -8 -33 -3 -16 10 -48 10 -69 0 -10 -4 -18 -4
-18 2 0 5 -14 6 -34 1 -18 -4 -41 -3 -50 2 -10 5 -23 5 -36 -2 -11 -6 -26 -8
-33 -3 -16 10 -48 10 -69 0 -10 -4 -18 -4 -18 2 0 5 -14 6 -34 1 -18 -4 -41
-3 -50 2 -10 5 -23 5 -36 -2 -11 -6 -26 -8 -33 -3 -16 10 -48 10 -69 0 -10 -4
-18 -4 -18 2 0 5 -14 6 -34 1 -18 -4 -41 -3 -50 2 -10 5 -23 5 -36 -2 -11 -6
-26 -8 -33 -3 -16 10 -48 10 -69 0 -10 -4 -18 -4 -18 2 0 5 -14 6 -34 1 -18
-4 -41 -3 -50 2 -10 5 -23 5 -36 -2 -11 -6 -26 -8 -33 -3 -16 10 -48 10 -69 0
-10 -4 -18 -4 -18 2 0 5 -14 6 -34 1 -18 -4 -41 -3 -50 2 -10 5 -23 5 -36 -2
-11 -6 -26 -8 -33 -3 -16 10 -48 10 -69 0 -10 -4 -18 -4 -18 2 0 5 -14 6 -34
1 -18 -4 -41 -3 -50 2 -10 5 -23 5 -36 -2 -11 -6 -26 -8 -33 -3 -16 10 -48 10
-69 0 -10 -4 -18 -4 -18 2 0 5 -14 6 -34 1 -18 -4 -41 -3 -50 2 -10 5 -23 5
-36 -2 -11 -6 -26 -8 -33 -3 -16 10 -48 10 -69 0 -10 -4 -18 -4 -18 2 0 5 -14
6 -34 1 -18 -4 -41 -3 -50 2 -10 5 -23 5 -36 -2 -11 -6 -26 -8 -33 -3 -16 10
-48 10 -69 0 -10 -4 -18 -4 -18 2 0 5 -14 6 -34 1 -18 -4 -41 -3 -50 2 -10 5
-23 5 -36 -2 -11 -6 -26 -8 -33 -3 -16 10 -48 10 -69 0 -10 -4 -18 -4 -18 2 0
5 -14 6 -34 1 -18 -4 -41 -3 -50 2 -10 5 -23 5 -36 -2 -11 -6 -26 -8 -33 -3
-16 10 -48 10 -69 0 -10 -4 -18 -4 -18 2 0 5 -14 6 -34 1 -18 -4 -41 -3 -50 2
-10 5 -23 5 -36 -2 -11 -6 -26 -8 -33 -3 -16 10 -48 10 -69 0 -10 -4 -18 -4
-18 2 0 5 -14 6 -34 1 -18 -4 -41 -3 -50 2 -10 5 -23 5 -36 -2 -11 -6 -26 -8
-33 -3 -16 10 -48 10 -69 0 -10 -4 -18 -4 -18 2 0 5 -14 6 -34 1 -18 -4 -41
-3 -50 2 -10 5 -23 5 -36 -2 -11 -6 -26 -8 -33 -3 -16 10 -48 10 -69 0 -10 -4
-18 -4 -18 2 0 5 -14 6 -34 1 -18 -4 -41 -3 -50 2 -10 5 -23 5 -36 -2 -11 -6
-26 -8 -33 -3 -16 10 -48 10 -69 0 -10 -4 -18 -4 -18 2 0 5 -14 6 -34 1 -18
-4 -41 -3 -50 2 -10 5 -23 5 -36 -2 -11 -6 -26 -8 -33 -3 -16 10 -48 10 -69 0
-10 -4 -18 -4 -18 2 0 5 -14 6 -34 1 -18 -4 -41 -3 -50 2 -10 5 -23 5 -36 -2
-11 -6 -26 -8 -33 -3 -16 10 -48 10 -69 0 -10 -4 -18 -4 -18 2 0 5 -14 6 -34
1 -18 -4 -41 -3 -50 2 -10 5 -23 5 -36 -2 -11 -6 -26 -8 -33 -3 -16 10 -48 10
-69 0 -10 -4 -18 -4 -18 2 0 5 -14 6 -34 1 -18 -4 -41 -3 -50 2 -10 5 -23 5
-36 -2 -11 -6 -26 -8 -33 -3 -16 10 -48 10 -69 0 -10 -4 -18 -4 -18 2 0 5 -14
6 -34 1 -18 -4 -41 -3 -50 2 -10 5 -23 5 -36 -2 -11 -6 -26 -8 -33 -3 -16 10
-48 10 -69 0 -10 -4 -18 -4 -18 2 0 5 -14 6 -34 1 -18 -4 -41 -3 -50 2 -10 5
-23 5 -36 -2 -11 -6 -26 -8 -33 -3 -16 10 -48 10 -69 0 -10 -4 -18 -4 -18 2 0
5 -14 6 -34 1 -18 -4 -41 -3 -50 2 -10 5 -23 5 -36 -2 -11 -6 -26 -8 -33 -3
-16 10 -48 10 -69 0 -10 -4 -18 -4 -18 2 0 5 -14 6 -34 1 -18 -4 -41 -3 -50 2
-10 5 -23 5 -36 -2 -11 -6 -26 -8 -33 -3 -16 10 -48 10 -69 0 -10 -4 -18 -4
-18 2 0 5 -14 6 -34 1 -18 -4 -41 -3 -50 2 -10 5 -23 5 -36 -2 -11 -6 -26 -8
-33 -3 -16 10 -48 10 -69 0 -10 -4 -18 -4 -18 2 0 5 -14 6 -34 1 -18 -4 -41
-3 -50 2 -10 5 -23 5 -36 -2 -11 -6 -26 -8 -33 -3 -16 10 -48 10 -70 0 -9 -4
-17 -4 -17 2 0 5 -14 6 -34 1 -18 -4 -41 -3 -50 2 -10 5 -23 5 -36 -2 -11 -6
-26 -8 -33 -3 -16 10 -48 10 -69 0 -10 -4 -18 -4 -18 2 0 5 -14 6 -34 1 -18
-4 -41 -3 -50 2 -10 5 -23 5 -37 -2 -12 -7 -25 -8 -32 -3 -7 5 -27 8 -45 7
l-32 -2 0 1504 0 1504 791 0 791 0 -44 52 c-23 29 -50 61 -58 71 -8 11 -19 24
-25 31 -5 6 -30 38 -55 71 -25 33 -47 62 -50 65 -3 3 -17 21 -30 40 -14 19
-32 44 -42 54 -10 11 -18 25 -18 32 0 7 -3 14 -8 16 -10 4 -88 123 -159 243
-79 132 -220 422 -273 560 -23 61 -46 119 -52 130 -5 12 -10 27 -12 35 -2 8
-6 22 -9 30 -8 20 -40 122 -44 138 -2 6 -5 18 -6 25 -2 6 -7 26 -11 42 -4 17
-10 37 -13 45 -3 8 -8 24 -9 35 -2 11 -7 31 -11 45 -4 14 -8 30 -9 35 -1 6 -3
15 -4 20 -2 6 -4 15 -5 20 -1 6 -4 24 -8 40 -15 64 -23 104 -31 155 -3 19 -8
46 -12 60 -3 14 -6 40 -6 58 -1 17 -4 32 -7 32 -3 0 -7 19 -7 43 -1 23 -5 60
-8 82 -24 154 -25 655 -1 860 11 95 14 120 20 155 3 19 7 51 10 70 3 19 7 46
10 60 3 14 7 36 10 50 3 14 7 36 10 50 11 54 16 85 16 92 0 4 6 26 14 48 8 22
12 40 10 40 -3 0 0 11 5 25 5 14 12 36 14 48 10 45 15 64 41 142 14 44 28 87
30 95 6 24 63 178 96 260 72 176 250 519 317 608 13 17 21 32 18 32 -4 0 2 10
14 22 11 12 20 26 20 31 0 4 6 15 13 22 30 35 37 45 30 45 -4 0 -3 4 2 8 6 4
28 32 50 62 82 115 204 264 305 373 124 134 335 336 391 375 13 9 33 25 44 35
11 10 45 37 75 60 30 23 57 45 58 50 2 4 10 7 17 7 7 0 15 4 17 9 4 12 225
161 238 161 5 0 10 4 10 10 0 5 11 12 25 16 14 3 25 9 25 13 0 3 21 17 48 31
26 13 50 29 54 35 4 5 8 6 8 1 0 -5 8 -3 18 5 31 25 253 139 271 139 6 0 11 3
11 8 0 4 15 12 33 18 17 6 77 30 132 54 97 40 335 123 385 134 14 3 59 14 100
26 67 18 272 68 310 75 23 4 113 18 135 21 11 1 42 5 69 9 298 40 840 39 1091
-1 30 -5 68 -10 128 -19 74 -10 113 -17 127 -22 8 -3 24 -7 35 -8 11 -1 38 -7
60 -13 22 -6 52 -13 67 -16 15 -2 33 -8 38 -11 6 -4 21 -8 33 -10 42 -5 339
-97 402 -124 11 -5 65 -27 120 -49 55 -22 138 -58 185 -80 118 -54 136 -58
151 -30 7 13 15 25 18 28 4 3 18 21 31 40 55 81 94 97 258 106 184 10 184 10
56 82 -88 50 -404 212 -424 217 -9 3 -44 17 -75 30 -16 7 -61 25 -100 40 -38
15 -84 33 -102 41 -17 8 -36 14 -42 14 -6 0 -25 6 -43 14 -38 17 -132 46 -168
53 -13 2 -27 9 -31 14 -3 6 -9 10 -13 9 -15 -5 -126 23 -126 32 0 5 -4 7 -8 4
-4 -3 -26 0 -48 5 -38 10 -59 15 -174 38 -30 6 -66 14 -80 16 -41 9 -280 43
-350 50 -36 4 -85 9 -110 11 -51 5 -607 13 -612 9z"/>
<path d="M5167 10114 c-1 -1 -42 -5 -92 -8 -49 -3 -101 -8 -115 -10 -14 -2
-52 -7 -85 -10 -33 -4 -73 -8 -90 -11 -103 -17 -170 -29 -240 -46 -45 -10 -94
-20 -110 -23 -52 -10 -326 -95 -387 -120 -21 -9 -39 -16 -40 -15 -5 1 -82 -30
-260 -105 -21 -9 -41 -16 -44 -15 -4 0 -10 -4 -13 -9 -7 -11 -103 -57 -113
-54 -5 1 -8 -3 -8 -8 0 -6 -5 -10 -11 -10 -6 0 -25 -10 -42 -22 -18 -13 -34
-22 -37 -22 -7 2 -91 -46 -112 -64 -10 -8 -18 -12 -18 -8 0 4 -6 2 -12 -4 -7
-6 -69 -48 -138 -93 -177 -116 -318 -225 -410 -316 l-45 -44 30 -10 c36 -11
194 -68 290 -105 39 -14 72 -27 75 -28 8 -1 38 -14 145 -61 55 -23 104 -43
110 -43 6 0 17 -6 23 -12 7 -7 16 -13 20 -13 24 -1 530 -255 567 -285 6 -5 15
-9 20 -10 6 -1 28 -12 50 -25 22 -12 85 -47 140 -78 l100 -55 130 39 c72 22
137 42 145 44 311 74 367 83 488 80 90 -1 92 -2 370 -176 299 -187 292 -183
310 -161 6 9 12 26 12 39 0 13 4 23 9 23 4 0 8 8 7 18 -1 23 64 192 75 192 4
0 10 13 14 30 4 16 10 32 15 35 5 3 30 37 55 75 50 76 200 231 283 295 29 21
52 43 52 47 0 4 4 8 10 8 9 0 35 19 65 48 8 6 18 12 22 12 5 0 18 8 29 18 24
23 215 132 230 132 6 0 17 7 24 15 7 8 18 15 25 15 7 0 39 12 71 27 33 15 61
28 64 29 3 0 19 6 35 13 63 27 176 50 271 56 203 12 221 28 133 124 -22 24
-47 57 -55 73 -19 37 -25 97 -12 121 7 14 5 22 -9 32 -19 14 -197 105 -210
107 -7 1 -83 33 -138 58 -62 28 -399 139 -470 155 -11 2 -47 11 -80 19 -83 20
-201 44 -255 51 -25 3 -56 8 -70 10 -72 13 -151 22 -264 31 -65 5 -524 12
-529 8z"/>
<path d="M7648 9935 c-2 -2 -37 -4 -78 -6 -88 -3 -115 -13 -153 -54 -30 -31
-62 -85 -51 -85 3 0 -6 -14 -20 -31 -27 -32 -29 -39 -26 -77 1 -12 -6 -36 -14
-53 -14 -27 -14 -34 -1 -59 16 -32 61 -70 81 -70 16 0 26 -16 30 -49 7 -48 10
-60 17 -67 13 -14 7 -51 -13 -77 -23 -30 -78 -66 -112 -73 -35 -8 -137 -19
-258 -29 -25 -2 -54 -6 -65 -10 -59 -19 -191 -73 -272 -112 -51 -24 -95 -43
-98 -43 -3 0 -13 -6 -21 -15 -9 -8 -22 -15 -30 -15 -8 0 -14 -4 -14 -10 0 -5
-4 -10 -9 -10 -12 0 -155 -94 -180 -118 -9 -9 -35 -30 -56 -47 -126 -99 -345
-360 -345 -411 0 -8 -3 -14 -8 -14 -9 0 -22 -38 -69 -190 -39 -130 -49 -247
-28 -334 24 -98 53 -136 184 -231 41 -30 82 -79 99 -118 18 -40 49 -136 57
-177 2 -8 15 -46 30 -85 15 -38 27 -78 28 -87 1 -10 5 -18 9 -18 4 0 8 -5 8
-10 0 -6 10 -32 23 -58 13 -27 26 -56 30 -64 4 -13 -23 -28 -131 -74 -75 -32
-139 -59 -142 -60 -3 0 -14 -4 -25 -9 -75 -31 -114 -43 -119 -38 -3 4 -6 2 -6
-4 0 -19 -41 -6 -57 18 -9 13 -33 42 -53 64 -19 22 -51 66 -70 99 -19 32 -45
75 -58 95 -12 20 -27 46 -32 58 -5 13 -17 35 -27 49 -20 30 -20 31 -31 96 -8
42 -6 50 12 67 20 18 93 47 109 43 4 -1 7 2 7 6 0 5 7 9 15 10 8 1 22 3 30 4
8 1 15 5 15 10 0 5 4 7 8 4 5 -3 19 1 33 8 13 7 26 13 29 13 24 6 37 16 37 28
0 8 -7 16 -16 17 -41 3 -77 3 -86 -2 -5 -2 -18 -5 -27 -6 -10 -1 -20 -3 -23
-4 -3 -1 -8 -3 -12 -4 -55 -15 -105 -30 -133 -40 -19 -8 -38 -14 -43 -15 -4 0
-31 -7 -61 -16 -29 -9 -63 -18 -75 -20 -13 -2 -31 -7 -41 -10 -21 -7 -49 -13
-100 -21 -41 -7 -63 -12 -70 -14 -3 -1 -8 -2 -12 -1 -15 2 -78 -30 -78 -40 0
-15 59 -69 76 -70 40 -3 55 -2 125 10 66 12 81 11 124 -3 70 -24 75 -28 109
-84 149 -244 177 -294 172 -307 -3 -8 -12 -15 -20 -15 -18 0 -10 -34 16 -72
10 -14 18 -31 18 -37 0 -6 4 -11 9 -11 5 0 11 -8 14 -17 4 -10 17 -37 31 -60
21 -34 24 -48 16 -68 -5 -14 -8 -25 -5 -25 2 0 -3 -16 -11 -35 -8 -19 -12 -35
-9 -35 3 0 -20 -27 -52 -59 -45 -48 -61 -58 -82 -55 -14 2 -48 7 -76 12 -98
16 -239 6 -344 -24 -145 -43 -239 -101 -356 -220 -62 -63 -90 -102 -124 -170
-80 -164 -96 -219 -107 -388 -8 -119 25 -300 72 -403 8 -17 14 -35 14 -40 0
-5 22 -48 50 -95 44 -79 70 -114 108 -154 6 -7 12 -15 12 -18 0 -6 50 -56 111
-111 19 -17 62 -50 97 -73 34 -24 62 -47 62 -52 0 -6 -3 -9 -7 -8 -7 2 -91
-27 -143 -49 -8 -3 -17 -7 -20 -8 -3 -1 -20 -6 -37 -10 -18 -4 -33 -12 -33
-18 0 -6 -3 -8 -6 -4 -4 3 -22 0 -40 -8 -19 -8 -34 -11 -34 -8 0 3 -7 0 -15
-7 -8 -7 -15 -9 -15 -5 0 4 -6 2 -13 -4 -8 -6 -22 -12 -33 -14 -10 -2 -26 -7
-34 -10 -21 -8 -423 -148 -435 -151 -5 -2 -17 -6 -25 -9 -8 -3 -35 -13 -60
-21 -25 -8 -130 -44 -235 -81 -104 -36 -228 -79 -275 -95 -136 -46 -404 -140
-420 -147 -8 -4 -19 -8 -25 -9 -5 -1 -13 -3 -17 -4 -5 -1 -11 -3 -15 -5 -5 -1
-17 -5 -28 -9 -11 -5 -46 -18 -77 -30 -32 -11 -58 -24 -58 -28 0 -4 11 -3 24
2 13 5 26 6 29 3 3 -3 12 -1 19 3 7 5 20 9 28 9 8 1 31 5 50 10 19 4 42 9 50
10 8 1 49 9 91 19 42 10 84 19 95 21 10 2 20 4 22 5 3 3 10 5 67 15 28 4 55 9
60 11 17 4 64 14 93 19 15 3 35 8 44 11 10 3 28 7 40 9 24 5 197 42 233 50 11
3 33 8 48 10 39 7 306 64 337 72 14 3 32 8 40 9 49 10 457 98 515 111 39 8 79
16 90 18 11 2 38 8 60 14 22 5 51 12 65 15 14 2 45 9 70 15 25 5 60 13 79 16
19 3 37 7 40 9 3 2 24 7 46 10 22 4 47 8 55 11 19 6 63 15 123 25 26 5 58 12
70 16 12 4 29 8 37 9 8 2 91 19 184 39 93 21 181 39 195 41 14 3 46 9 71 16
25 6 56 13 70 16 45 9 55 11 55 13 0 1 11 3 25 4 14 0 31 5 38 9 6 5 12 6 12
3 0 -2 15 0 33 5 17 5 43 11 57 13 14 3 55 11 91 20 85 19 141 31 197 41 12 2
30 6 40 9 9 3 29 8 45 11 15 3 39 7 55 10 15 3 35 8 44 11 10 3 30 7 45 10 16
2 39 7 53 10 14 3 36 8 49 10 13 3 51 12 85 20 34 8 77 17 96 20 19 2 43 7 52
10 19 6 54 14 83 19 11 1 220 46 465 100 456 99 464 100 515 111 17 3 77 17
135 31 58 13 114 26 125 29 38 7 180 56 210 72 17 9 32 16 35 17 3 0 32 18 65
40 72 47 273 245 250 245 -3 0 -1 6 5 13 12 13 54 79 55 87 0 3 9 20 18 38 10
17 15 32 11 32 -4 0 -1 6 5 14 7 8 14 22 16 32 3 11 11 46 20 79 8 33 18 74
21 90 8 37 11 255 4 255 -3 0 -6 17 -6 38 -2 41 -9 81 -25 130 -6 18 -12 39
-13 45 -9 39 -79 197 -88 197 -4 0 -8 9 -8 20 0 11 -4 20 -8 20 -5 0 -15 12
-22 28 -28 54 -160 201 -251 276 -53 44 -190 125 -261 154 -133 55 -227 74
-390 77 -161 3 -242 -10 -373 -60 -108 -41 -105 -41 -105 -12 0 37 -14 41 -74
18 l-53 -20 -21 47 c-20 43 -27 67 -37 127 -2 11 -6 34 -9 50 -10 48 -19 242
-12 260 3 10 11 13 18 8 7 -4 22 -9 33 -11 11 -1 36 -10 55 -20 l35 -17 0 -90
c-1 -89 -2 -91 -43 -154 -32 -49 -39 -67 -31 -78 18 -21 40 -15 76 23 57 60
70 97 74 200 2 47 6 57 41 88 21 20 43 36 49 36 6 0 8 4 4 9 -3 5 -8 30 -11
56 -3 26 -14 61 -25 78 -19 32 -25 67 -12 67 4 0 40 -23 80 -51 76 -52 92 -55
46 -7 -27 29 -27 30 24 41 26 6 33 -1 34 -35 3 -49 -14 -103 -48 -154 -35 -53
-39 -94 -8 -94 24 0 103 88 112 124 14 58 22 112 24 157 2 30 7 60 12 67 5 6
6 12 2 12 -5 0 -1 8 9 19 9 10 19 42 23 70 3 28 9 54 13 56 4 3 27 -9 51 -25
24 -16 45 -27 48 -25 2 2 -17 27 -43 56 -25 28 -46 56 -46 63 0 6 -10 23 -23
37 -19 22 -39 34 -130 81 -26 13 -86 19 -229 22 -122 3 -128 4 -197 39 -39 20
-83 47 -98 61 -25 23 -26 30 -26 115 0 76 5 101 28 158 16 37 33 73 37 80 15
19 65 174 73 223 4 25 19 71 33 102 23 48 33 60 68 73 43 18 108 21 209 12 61
-5 95 4 95 26 0 7 9 31 21 52 11 22 26 67 32 100 11 51 17 62 42 74 43 20 45
28 20 88 -18 46 -20 60 -11 87 17 46 39 76 56 76 8 0 23 7 34 15 15 12 17 22
12 70 -7 54 -24 115 -48 165 -6 14 -39 52 -73 85 -85 82 -148 106 -295 110
-60 1 -110 1 -112 0z m-509 -1513 c-1 -25 8 -135 15 -194 12 -96 33 -153 63
-178 22 -18 100 -53 173 -76 68 -22 82 -33 52 -40 -12 -4 -22 -9 -22 -13 0 -4
-16 -15 -35 -24 l-34 -16 -48 36 c-59 44 -203 187 -203 201 0 5 -6 12 -14 15
-7 3 -35 37 -61 77 -39 59 -46 76 -41 103 10 53 42 95 93 121 55 27 64 26 62
-12z m-192 -542 c18 -17 36 -30 42 -30 5 0 11 -3 13 -7 5 -12 95 -73 107 -73
6 0 11 -4 11 -10 0 -5 5 -10 10 -10 6 0 35 -17 66 -37 46 -31 52 -38 38 -46
-9 -5 -33 -10 -53 -10 -29 0 -60 16 -166 87 -170 115 -157 103 -139 137 18 37
31 36 71 -1z m875 9 c76 -26 158 -66 158 -77 0 -10 -47 -52 -58 -52 -5 0 -19
-11 -32 -25 l-23 -25 -36 27 c-20 15 -38 29 -41 32 -11 13 -78 41 -116 49 -22
5 -48 13 -58 19 -16 9 -15 10 2 26 11 10 29 19 40 22 12 2 30 8 39 14 27 16
57 13 125 -10z m-412 -323 c0 3 6 2 13 -3 6 -6 29 -13 50 -17 l37 -7 1 -92 c1
-108 4 -162 13 -237 l7 -55 -20 25 c-35 41 -34 41 -113 180 -26 47 -48 93 -48
102 0 11 -6 16 -19 13 -21 -4 -55 27 -49 46 2 6 23 22 47 35 33 17 49 21 63
13 10 -5 18 -7 18 -3z m-618 -172 l32 -17 -25 -18 c-13 -11 -29 -23 -35 -28
-16 -13 -34 7 -34 39 0 44 13 49 62 24z m-1307 -48 c-24 -16 -65 -30 -65 -21
0 7 59 34 75 35 5 0 1 -6 -10 -14z m1793 -60 c8 -5 27 -28 42 -53 38 -60 36
-68 -100 -318 -21 -38 -53 -99 -71 -135 -19 -35 -40 -71 -46 -78 -7 -7 -13
-17 -13 -21 0 -5 -21 -46 -46 -92 -78 -142 -100 -181 -139 -254 -21 -38 -46
-83 -55 -100 -10 -16 -32 -57 -50 -90 -18 -33 -39 -68 -48 -78 -15 -16 -16
-16 -35 0 -10 10 -30 37 -44 61 -29 49 -28 55 13 257 13 66 26 129 28 140 26
135 85 323 117 370 28 40 35 49 118 141 24 27 69 81 100 119 68 85 74 90 136
120 50 24 69 27 93 11z m212 -340 c0 -13 6 -41 14 -63 16 -45 14 -50 -51 -135
-46 -60 -124 -207 -129 -242 -2 -11 -10 -39 -18 -61 -8 -22 -17 -58 -22 -80
-9 -49 -10 -307 -1 -355 3 -19 9 -48 12 -64 15 -74 82 -238 128 -311 87 -141
211 -275 331 -360 l69 -49 -31 -13 c-18 -7 -42 -15 -55 -17 -12 -3 -22 -5 -22
-7 0 -1 -9 -3 -20 -5 -11 -2 -101 -26 -200 -54 -256 -72 -565 -156 -608 -165
-9 -2 -21 -6 -25 -9 -5 -3 -19 -7 -33 -10 -13 -3 -67 -17 -119 -31 -52 -14
-104 -28 -116 -30 -12 -3 -40 -11 -63 -19 -22 -9 -41 -13 -41 -11 0 3 -12 0
-27 -6 -16 -6 -35 -12 -43 -14 -8 -2 -40 -10 -71 -19 -31 -9 -66 -19 -78 -21
-32 -7 -52 -13 -88 -24 -18 -5 -33 -8 -33 -5 0 2 30 43 66 91 72 96 111 172
142 279 18 59 35 144 37 179 0 15 15 12 78 -18 32 -15 63 -27 70 -27 21 0 44
-35 37 -56 -3 -10 -5 -25 -4 -31 1 -7 2 -17 3 -23 0 -5 7 -10 15 -10 8 0 24
-13 36 -30 25 -36 43 -38 64 -8 17 23 23 24 212 30 88 3 114 17 114 61 0 23
-29 67 -44 67 -4 0 -39 19 -77 41 -72 43 -113 84 -103 101 4 6 8 35 10 65 5
62 -14 128 -52 186 l-25 39 77 141 c42 78 86 158 98 177 11 19 21 40 22 47 1
7 9 20 18 29 9 8 16 19 16 24 0 5 20 43 45 85 24 41 41 75 37 75 -4 0 -2 4 3
8 6 4 18 23 29 42 54 101 113 210 133 245 12 22 28 51 33 65 6 13 14 27 18 30
4 3 21 32 37 64 31 62 116 215 141 253 14 23 14 23 34 3 11 -11 20 -31 20 -44z
m880 46 c25 -6 56 -13 70 -15 14 -3 43 -12 65 -20 50 -19 68 -24 79 -25 5 0
12 -4 15 -9 3 -4 24 -17 46 -28 89 -44 190 -120 269 -201 89 -91 186 -254 232
-389 36 -105 50 -316 30 -443 -32 -200 -179 -425 -350 -535 -53 -35 -136 -78
-136 -71 0 3 -6 2 -12 -3 -18 -14 -104 -41 -158 -50 -102 -17 -317 -7 -415 19
-22 5 -41 10 -42 9 -2 0 -24 9 -50 20 -68 30 -98 41 -98 37 0 -2 -11 7 -25 20
-13 12 -28 22 -32 22 -17 0 -125 86 -194 155 -78 78 -159 193 -200 281 -31 68
-65 164 -58 164 3 0 0 8 -5 18 -26 48 -35 284 -15 382 17 85 53 191 70 211 8
8 14 20 14 26 0 15 67 124 90 147 19 19 20 19 42 -6 13 -13 35 -40 50 -59 14
-19 35 -44 45 -56 10 -12 27 -32 37 -45 28 -33 128 -149 146 -168 8 -9 42 -47
75 -84 33 -38 76 -86 95 -107 70 -76 83 -97 94 -150 13 -59 116 -69 130 -13 4
16 19 30 40 39 37 16 50 44 36 80 -10 27 -47 55 -71 55 -15 0 -54 36 -144 133
-130 140 -401 498 -388 511 4 3 1 6 -5 6 -31 0 8 33 81 69 83 40 159 66 232
77 22 3 41 7 43 9 7 7 232 -4 272 -13z m-1989 -84 c23 -26 20 -37 -32 -138
-22 -42 -39 -81 -39 -88 0 -7 -4 -12 -9 -12 -5 0 -12 -8 -16 -19 -8 -27 -35
-55 -75 -77 -35 -19 -110 -92 -110 -107 0 -18 -24 9 -67 77 -56 87 -97 172
-90 190 6 14 156 91 197 100 3 1 31 14 64 29 32 15 61 27 65 27 3 1 24 9 46
20 50 24 44 24 66 -2z m-485 -451 c17 -28 53 -88 80 -132 81 -131 108 -181 93
-169 -8 7 -45 35 -84 63 -38 28 -75 55 -82 61 -7 5 -15 10 -18 10 -3 0 -23 11
-45 25 -37 23 -39 27 -29 52 6 16 10 29 9 31 -7 12 26 112 37 112 5 0 22 -24
39 -53z m2084 -67 c8 0 117 -110 198 -199 22 -24 38 -50 35 -58 -8 -20 -37 5
-115 98 -20 24 -44 54 -55 66 -46 54 -52 63 -46 63 4 0 -3 7 -15 16 -12 8 -22
21 -21 27 0 9 2 9 6 0 2 -7 8 -13 13 -13z m-2410 -83 c56 -9 95 -20 101 -29 8
-12 -18 -118 -33 -135 -6 -7 -8 -13 -5 -13 3 0 -3 -28 -13 -62 -41 -139 -92
-304 -98 -313 -3 -5 -7 -16 -8 -25 -12 -79 -43 -130 -86 -145 -53 -18 -70 -39
-73 -93 -8 -120 100 -183 189 -110 26 21 47 28 97 32 35 3 93 8 129 11 36 3
88 8 117 10 29 2 57 6 63 10 5 3 10 1 10 -5 0 -6 5 -8 11 -4 12 7 25 8 161 18
37 2 71 6 75 8 4 1 26 3 48 3 38 0 40 -1 46 -37 3 -21 4 -40 1 -42 -2 -3 -5
-29 -7 -59 -2 -66 -35 -207 -47 -207 -5 0 -7 -4 -4 -8 11 -18 -71 -154 -139
-230 -48 -53 -163 -142 -184 -142 -6 0 -11 -4 -11 -10 0 -5 -6 -10 -12 -10 -7
0 -24 -6 -38 -13 -25 -13 -94 -33 -155 -45 -37 -7 -229 -7 -270 0 -55 9 -168
50 -234 86 -94 49 -157 96 -228 169 -135 138 -216 297 -260 513 -3 14 -6 72
-6 130 0 127 18 216 68 334 19 44 79 141 101 163 7 8 17 20 21 26 20 32 136
120 203 155 78 40 127 57 195 68 22 3 42 8 44 10 4 4 193 -3 231 -9z m359
-161 c68 -51 137 -119 176 -171 17 -22 32 -42 35 -45 14 -12 63 -106 94 -177
40 -95 49 -138 33 -152 -14 -11 -586 -21 -627 -11 -15 4 -23 12 -21 21 2 8 5
28 7 44 1 17 6 44 9 60 4 17 8 37 10 45 2 8 4 15 5 15 1 0 3 9 5 19 2 11 7 31
11 45 4 14 8 33 9 41 1 8 5 22 8 30 4 8 9 29 12 45 8 38 13 60 15 60 1 0 3 7
5 15 10 40 15 60 34 122 11 37 22 72 26 78 7 12 75 -25 154 -84z m385 -6 c27
-30 36 -48 34 -70 -3 -37 -11 -38 -29 -2 -8 15 -16 29 -19 32 -8 8 -40 67 -40
74 0 16 21 2 54 -34z m346 -239 c0 -5 -12 -32 -26 -60 -29 -56 -56 -69 -48
-23 16 100 26 117 55 101 10 -5 19 -14 19 -18z m73 -274 c26 -41 40 -141 24
-180 l-12 -28 -22 21 c-20 18 -30 60 -25 101 1 4 -3 21 -8 39 -6 22 -5 38 3
51 15 25 21 24 40 -4z m-1003 -128 c0 -4 -8 -7 -17 -7 -10 0 -43 -3 -75 -6
-41 -5 -58 -4 -64 6 -4 7 -4 10 0 7 4 -4 19 -4 33 0 36 10 123 10 123 0z"/>
<path d="M8085 9010 c-3 -5 -3 -14 0 -20 3 -5 1 -10 -5 -10 -6 0 -9 -4 -6 -9
8 -13 -67 -87 -90 -90 -39 -4 -131 -3 -191 2 l-63 6 -24 -47 c-14 -27 -32 -77
-41 -111 -9 -35 -40 -123 -70 -197 -31 -78 -55 -154 -57 -184 -4 -50 -4 -50
39 -76 58 -34 68 -36 214 -39 69 -1 143 -8 165 -14 21 -7 45 -14 52 -16 7 -3
14 -4 17 -5 3 0 20 -7 38 -16 84 -42 120 -72 162 -134 25 -36 59 -82 76 -102
24 -27 33 -50 37 -86 4 -44 1 -53 -25 -82 -22 -25 -39 -33 -76 -37 -26 -3 -51
-11 -56 -17 -4 -6 -11 -47 -15 -91 -8 -102 -7 -100 -38 -165 -29 -63 -89 -131
-133 -153 -17 -8 -53 -17 -80 -18 l-50 -3 -18 -51 c-34 -91 -40 -86 65 -58 81
23 114 26 263 27 251 1 328 -14 516 -103 173 -81 358 -226 454 -356 17 -22 38
-49 48 -59 9 -11 17 -26 17 -33 0 -7 3 -13 8 -13 4 0 18 -18 32 -39 40 -66 45
-48 25 114 -9 76 -13 100 -15 100 -1 0 -3 11 -5 25 -2 14 -6 39 -10 55 -3 17
-7 39 -9 50 -2 11 -6 29 -9 40 -3 11 -9 34 -12 50 -2 17 -7 41 -10 55 -4 14
-9 39 -12 55 -3 17 -8 32 -11 35 -4 3 -8 18 -10 34 -3 28 -93 311 -112 351 -5
11 -25 59 -44 107 -48 117 -174 370 -242 485 -22 38 -122 196 -144 228 -8 12
-28 42 -45 66 -16 24 -32 46 -35 49 -3 3 -31 39 -62 80 -31 41 -69 90 -85 107
-15 18 -46 54 -68 80 -46 53 -202 213 -227 232 -11 8 -18 9 -23 1z"/>
<path d="M2375 8294 c33 -8 78 -19 100 -24 22 -5 58 -15 80 -21 22 -6 54 -13
70 -16 17 -3 36 -10 43 -16 7 -5 15 -7 19 -4 3 4 15 1 26 -5 12 -6 28 -12 37
-12 19 -2 76 -20 210 -64 58 -19 112 -36 120 -37 8 -2 16 -4 18 -5 1 -2 5 -3
10 -5 4 -1 15 -5 25 -8 42 -16 53 -20 64 -22 23 -5 178 -68 188 -77 5 -4 15
-8 22 -8 21 0 215 -98 279 -141 137 -93 140 -180 6 -246 -31 -15 -59 -28 -62
-28 -3 0 -9 -3 -15 -6 -5 -4 -23 -10 -40 -14 -16 -4 -37 -9 -45 -11 -8 -2 -40
-10 -70 -19 -30 -9 -62 -17 -70 -19 -8 -2 -35 -9 -60 -16 -25 -7 -53 -14 -62
-16 -44 -10 -58 -13 -133 -33 -44 -12 -91 -24 -105 -27 -14 -3 -34 -8 -45 -11
-11 -4 -24 -8 -30 -9 -5 -1 -53 -14 -105 -28 -52 -15 -106 -29 -120 -32 -14
-3 -43 -11 -65 -19 -22 -7 -60 -18 -85 -24 -25 -7 -52 -15 -60 -18 -8 -3 -21
-7 -28 -9 -50 -10 -437 -147 -490 -173 -9 -4 -64 -31 -122 -59 -130 -63 -199
-102 -224 -124 -11 -10 -28 -20 -38 -24 -10 -3 -18 -10 -18 -15 0 -5 -3 -8 -7
-7 -14 5 -84 -55 -99 -85 -33 -63 -46 -226 -47 -572 0 -255 8 -418 28 -525 3
-14 10 -54 15 -90 12 -79 19 -118 25 -147 3 -13 6 -25 6 -28 0 -2 7 -33 16
-67 8 -35 16 -70 18 -78 2 -8 11 -44 20 -80 9 -36 18 -69 20 -75 8 -37 19 -71
24 -80 3 -5 6 -12 7 -15 16 -101 201 -525 322 -738 23 -41 42 -78 42 -83 0 -5
4 -9 8 -9 5 0 16 -15 25 -32 25 -49 96 -159 129 -202 13 -16 28 -36 34 -44 9
-12 15 -12 42 2 18 9 32 14 32 10 0 -4 7 -1 15 6 8 7 15 9 15 5 0 -4 6 -3 13
2 6 5 39 18 72 29 33 10 62 21 65 24 6 6 30 12 48 13 6 0 12 4 12 9 0 4 3 7 8
7 4 -1 10 0 15 1 4 1 10 3 15 5 4 1 14 4 22 8 8 3 42 15 75 27 33 11 67 23 75
27 8 3 20 7 25 9 74 24 192 70 197 78 4 6 8 8 8 4 0 -5 24 1 53 13 28 11 59
22 67 24 8 2 101 36 205 75 105 39 240 89 300 111 61 22 117 43 125 46 8 4 17
7 20 8 3 1 12 4 20 8 8 3 74 27 145 53 72 25 141 51 155 57 14 5 30 11 35 13
6 1 48 16 95 34 47 17 90 32 95 34 6 1 28 10 50 20 21 9 46 18 55 20 8 2 31 9
50 17 19 7 38 12 43 11 4 -1 7 2 7 6 0 5 6 9 13 9 6 1 37 11 67 23 30 12 60
22 65 24 6 1 47 15 92 31 76 27 81 31 71 50 -6 11 -14 22 -18 25 -26 18 -179
290 -164 290 4 0 2 6 -4 13 -17 20 -55 166 -68 257 -24 181 11 421 83 563 13
27 23 51 21 52 -10 10 -65 15 -328 30 -25 2 -45 4 -45 5 0 1 -23 3 -51 5 -58
4 -143 13 -189 20 -16 3 -46 7 -65 10 -121 15 -255 42 -385 75 -22 6 -44 12
-50 13 -43 11 -195 71 -195 78 0 5 -7 9 -15 9 -42 0 -180 111 -209 169 -57
110 5 241 174 371 25 19 47 37 50 40 11 13 191 119 275 162 50 25 175 83 278
127 103 45 209 93 235 108 114 62 201 135 228 191 18 37 28 132 14 132 -4 0
-11 11 -14 25 -15 59 -146 164 -296 237 -138 68 -480 197 -480 181 0 -3 -6 -1
-12 4 -7 6 -35 16 -63 22 -27 7 -57 16 -65 19 -8 3 -19 6 -25 7 -5 1 -30 7
-55 14 -25 7 -53 15 -62 17 -10 2 -28 7 -40 10 -13 3 -30 7 -38 9 -8 2 -15 4
-15 5 0 1 -7 3 -15 5 -36 8 -68 15 -105 24 -22 5 -51 12 -65 15 -14 3 -36 8
-50 11 -14 4 -34 8 -45 11 -11 2 -42 9 -70 14 -27 6 -59 13 -70 15 -11 2 -31
6 -45 9 -35 9 -81 18 -105 21 -11 1 -20 3 -20 5 0 1 -9 3 -20 4 -25 4 -82 14
-115 21 -14 3 -50 7 -80 10 l-55 5 60 -16z"/>
<path d="M3978 3145 c-2 -2 -16 -6 -31 -9 -15 -3 -38 -8 -53 -11 -81 -17 -200
-84 -269 -152 -56 -55 -109 -126 -119 -160 -4 -13 -12 -23 -17 -23 -5 0 -9 -9
-9 -19 0 -11 -5 -23 -10 -26 -6 -4 -8 -11 -5 -16 4 -5 1 -9 -6 -9 -7 0 -10 -3
-6 -6 3 -3 -1 -23 -8 -44 -19 -53 -28 -130 -28 -235 0 -137 16 -225 58 -306 9
-16 13 -29 10 -29 -3 0 -1 -6 5 -12 5 -7 27 -38 47 -68 39 -59 140 -160 161
-160 6 0 12 -4 12 -9 0 -5 19 -18 43 -30 78 -37 112 -48 173 -55 11 -1 24 -5
30 -7 23 -13 312 6 332 21 1 2 5 3 10 4 4 1 12 4 17 7 6 4 25 10 43 14 17 3
32 11 32 16 0 5 6 9 13 9 8 0 24 9 37 20 13 11 26 20 30 20 13 0 127 116 157
160 37 54 90 176 99 227 4 21 8 47 10 58 7 34 6 238 -1 280 -19 118 -43 180
-113 288 -46 71 -134 153 -202 187 -50 26 -144 61 -178 67 -34 6 -259 13 -264
8z m169 -290 c120 -35 203 -173 207 -342 1 -24 5 -43 9 -43 5 0 5 -4 2 -10 -3
-5 -8 -40 -10 -78 -2 -37 -8 -80 -14 -95 -6 -15 -9 -27 -6 -27 9 0 -40 -98
-67 -132 -50 -64 -105 -90 -188 -89 -105 2 -162 39 -232 152 -33 53 -52 154
-51 269 1 99 5 127 28 195 33 97 92 165 171 194 58 23 90 24 151 6z"/>
<path d="M5349 3145 c-2 -2 -24 -6 -49 -10 -54 -8 -163 -50 -205 -78 -55 -38
-115 -106 -145 -163 -16 -31 -27 -61 -24 -66 3 -4 1 -8 -3 -8 -9 0 -11 -15
-13 -92 -1 -57 5 -83 35 -144 32 -65 94 -132 167 -178 31 -20 59 -36 61 -36 3
0 22 -8 43 -17 22 -9 41 -17 44 -17 9 -1 94 -38 110 -47 8 -5 22 -12 30 -15
63 -24 98 -61 104 -112 9 -69 -76 -115 -202 -111 -78 3 -221 31 -274 55 -20 9
-43 14 -51 11 -11 -4 -36 -90 -63 -217 -3 -14 -7 -35 -9 -46 -4 -16 2 -24 23
-32 15 -6 36 -13 47 -18 11 -4 29 -9 40 -11 11 -2 36 -8 55 -13 19 -5 51 -12
70 -16 41 -8 260 -12 275 -5 5 3 21 5 35 6 155 8 330 123 393 259 48 103 38
260 -21 353 -63 99 -130 143 -377 248 -122 53 -183 101 -166 132 5 10 8 20 8
23 -1 3 6 16 15 28 25 37 81 51 178 47 91 -4 90 -4 192 -31 74 -20 83 -17 92
31 2 17 10 48 17 70 7 22 12 43 11 47 -1 4 3 19 8 33 5 14 12 39 15 54 5 27 2
29 -50 45 -30 10 -69 20 -87 22 -18 3 -40 8 -48 11 -17 6 -276 14 -281 8z"/>
<path d="M6498 3145 c-2 -2 -23 -6 -48 -8 -56 -7 -153 -36 -161 -49 -3 -5 -13
-10 -21 -11 -32 -5 -119 -81 -156 -137 -77 -114 -86 -259 -25 -372 24 -44 123
-148 141 -148 4 0 19 -10 32 -22 14 -13 25 -22 25 -20 0 2 31 -10 68 -27 38
-17 73 -31 79 -31 15 0 151 -69 176 -90 15 -12 26 -35 29 -57 4 -32 0 -43 -24
-69 -47 -53 -131 -67 -268 -44 -88 14 -93 16 -173 43 l-72 24 -5 -21 c-3 -11
-16 -69 -30 -128 -30 -133 -25 -167 26 -168 8 0 20 -5 27 -12 7 -7 12 -9 12
-6 0 4 15 2 33 -3 41 -13 75 -20 107 -23 14 -1 30 -4 35 -7 13 -8 241 -4 285
5 33 6 89 18 100 21 3 1 22 9 42 18 21 10 42 17 48 17 5 0 10 3 10 8 0 4 14
13 32 21 46 20 112 94 148 165 28 54 32 72 34 155 3 99 -8 147 -47 211 -31 51
-86 107 -118 121 -16 6 -29 16 -29 22 0 6 -3 7 -7 4 -3 -4 -13 -1 -22 6 -9 8
-56 31 -106 51 -127 54 -199 87 -205 94 -3 4 -14 12 -25 18 -31 17 -41 66 -20
98 29 43 71 60 157 62 87 1 150 -8 235 -35 32 -11 62 -16 66 -11 5 4 22 65 38
136 34 146 34 143 -46 166 -43 12 -42 12 -95 23 -33 7 -276 15 -282 10z"/>
<path d="M7717 3143 c-3 -2 -17 -6 -33 -9 -16 -3 -47 -10 -69 -16 -22 -7 -42
-12 -45 -12 -3 -1 -32 -14 -65 -31 -64 -32 -225 -181 -225 -209 0 -9 -4 -16
-9 -16 -21 0 -93 -194 -107 -291 -9 -54 -11 -210 -5 -224 3 -5 7 -18 8 -27 7
-45 21 -105 30 -128 4 -8 7 -17 7 -20 5 -22 51 -110 58 -110 4 0 8 -5 8 -11 0
-15 65 -95 107 -132 71 -63 167 -114 246 -133 4 -1 8 -3 10 -4 11 -10 241 -15
317 -6 76 8 237 73 248 99 2 4 9 7 15 7 22 0 119 102 161 169 86 135 109 227
109 426 0 116 -5 162 -29 235 -7 25 -14 48 -14 53 1 10 -30 67 -49 90 -8 9
-11 17 -7 17 11 0 -71 97 -113 135 -58 52 -128 91 -213 120 -72 24 -101 29
-210 30 -70 1 -129 0 -131 -2z m213 -299 c50 -27 102 -89 134 -157 65 -142 52
-410 -25 -518 -10 -15 -19 -31 -19 -36 -1 -4 -12 -17 -26 -28 -14 -11 -34 -28
-45 -37 -30 -24 -134 -45 -144 -28 -3 5 -12 7 -20 4 -22 -9 -105 35 -139 74
-74 83 -97 153 -100 303 -3 147 6 203 39 272 49 99 101 147 180 167 41 10 134
1 165 -16z"/>
<path d="M1656 3133 c-1 -2 -20 -5 -42 -7 -21 -3 -39 -5 -39 -6 0 -1 -8 -3
-17 -5 -37 -7 -153 -47 -188 -65 -53 -27 -138 -95 -193 -154 -48 -52 -132
-205 -142 -261 -3 -16 -8 -41 -11 -55 -8 -33 -8 -267 -1 -301 32 -154 158
-345 263 -399 16 -8 31 -17 34 -20 9 -9 123 -58 155 -66 12 -3 59 -13 100 -21
73 -15 490 -1 490 17 0 1 9 3 19 5 11 2 50 11 87 20 57 14 68 20 72 41 2 13 1
24 -2 24 -8 0 -6 68 2 76 3 3 2 17 -3 30 -6 14 -6 24 0 24 5 0 5 12 0 30 -5
17 -5 30 0 30 5 0 5 13 0 30 -5 17 -5 32 0 35 5 3 5 16 0 30 -6 15 -6 25 0 25
5 0 5 12 1 28 -5 15 -5 37 0 49 5 13 4 25 -1 28 -7 4 -7 13 0 24 5 10 6 21 3
25 -4 3 -5 28 -4 54 1 26 3 64 4 85 1 20 -1 37 -5 37 -4 0 -5 7 -2 15 7 18
-14 47 -27 39 -5 -3 -119 -5 -254 -4 l-245 1 0 -136 0 -135 53 -1 c28 -1 69
-1 90 -1 20 0 37 -3 38 -6 0 -4 3 -50 5 -102 2 -52 6 -100 8 -106 17 -46 -199
-45 -295 0 -57 28 -139 94 -139 113 0 6 -3 13 -7 15 -13 5 -52 91 -61 133 -8
39 -9 196 -1 225 11 41 74 148 102 173 39 35 141 84 193 94 51 9 207 10 264 1
25 -4 67 -14 94 -23 27 -8 55 -15 61 -15 12 0 22 22 30 60 4 21 16 82 20 100
2 8 4 15 5 15 2 0 12 56 14 79 1 22 -42 51 -89 60 -16 3 -43 8 -60 11 -31 7
-373 14 -379 8z"/>
<path d="M8917 3133 c-2 -1 -25 -3 -52 -4 -28 -1 -58 -6 -67 -11 -9 -4 -19 -4
-22 0 -7 12 -65 2 -73 -12 -4 -6 -8 -67 -10 -136 -1 -69 -2 -130 -3 -135 -2
-6 -2 -14 -1 -20 0 -5 2 -242 3 -525 l3 -515 162 -1 c89 -1 168 3 175 7 10 6
13 56 14 224 0 118 2 217 5 219 2 2 51 7 109 10 167 10 221 21 318 68 71 35
161 117 190 175 38 75 52 140 48 236 -5 130 -42 216 -127 298 -35 34 -111 78
-141 83 -7 1 -17 4 -23 8 -5 3 -26 9 -45 12 -19 3 -46 8 -60 12 -23 6 -398 13
-403 7z m314 -273 c80 -22 131 -82 134 -160 2 -39 -13 -90 -25 -90 -4 0 -10
-8 -13 -19 -2 -10 -25 -31 -50 -45 -37 -22 -63 -28 -136 -33 l-91 -6 0 175 c0
96 2 177 5 180 10 10 135 9 176 -2z"/>
<path d="M2480 2450 l0 -680 421 -2 c231 -2 423 -1 426 2 2 3 12 5 21 5 9 0
16 5 15 11 -2 11 -3 53 -3 97 0 9 0 24 0 32 0 8 0 22 0 30 0 8 0 22 0 30 0 8
0 23 0 33 0 9 0 27 0 40 l0 22 -261 0 c-143 0 -258 4 -255 8 2 4 1 14 -3 21
-5 7 -5 28 -1 47 4 19 4 34 -1 34 -5 0 -5 10 -1 23 9 27 9 48 -1 64 -4 7 -3
22 3 33 7 13 7 26 2 37 -5 9 -6 28 -2 43 4 15 4 33 0 40 -4 6 -4 27 0 46 4 19
4 34 -1 34 -5 0 -5 10 -1 23 9 27 9 48 -1 64 -4 7 -3 22 3 33 7 12 7 26 2 36
-5 9 -6 33 -2 54 4 21 4 44 -1 51 -4 7 -3 21 2 30 6 11 5 20 -1 24 -5 3 -6 16
-2 28 9 27 9 48 -1 64 -4 7 -3 22 3 33 7 13 7 26 2 37 -6 9 -6 29 -2 45 5 16
5 30 -1 33 -5 4 -5 14 1 25 7 13 7 21 0 25 -6 4 -8 11 -5 16 4 5 -65 9 -174 9
l-181 0 0 -680z"/>
<path d="M9056 1544 c-39 -12 -86 -29 -105 -39 -38 -20 -151 -128 -151 -143 0
-6 -6 -17 -13 -24 -14 -14 -45 -87 -55 -128 -8 -33 -8 -236 0 -278 21 -112
125 -246 231 -296 66 -31 92 -37 183 -43 86 -6 212 22 283 64 109 63 188 190
207 333 6 40 8 167 4 180 -1 3 -4 20 -7 38 -10 73 -69 176 -138 244 -100 97
-290 137 -439 92z m225 -221 c52 -47 87 -135 85 -217 0 -25 4 -46 9 -46 7 0 7
-3 0 -8 -5 -4 -10 -20 -10 -37 1 -41 -15 -92 -42 -140 -13 -22 -23 -37 -23
-33 0 4 -11 -4 -24 -17 -30 -30 -104 -42 -149 -24 -48 19 -103 82 -123 141
-17 52 -23 205 -9 228 3 5 8 19 10 30 7 36 39 95 63 115 63 52 159 55 213 8z"/>
<path d="M3707 1554 c-1 -1 -54 -4 -118 -6 -64 -3 -120 -8 -126 -11 -10 -6
-12 -911 -2 -922 19 -18 282 -26 388 -12 115 16 271 67 271 89 0 4 6 8 14 8
39 0 145 156 160 236 2 16 8 40 11 54 9 40 6 225 -4 225 -2 0 -4 10 -7 22 -7
41 -53 128 -86 165 -91 102 -207 142 -431 151 -37 2 -69 2 -70 1z m168 -209
c47 -9 108 -57 135 -105 22 -40 24 -57 24 -150 0 -66 -5 -116 -14 -135 -7 -16
-14 -32 -14 -35 -2 -13 -44 -57 -71 -76 -43 -30 -91 -45 -162 -51 l-63 -5 0
287 0 286 68 -5 c37 -3 81 -7 97 -11z"/>
<path d="M5418 1555 c-2 -2 -39 -6 -83 -9 -54 -4 -84 -11 -91 -21 -8 -11 -12
-150 -13 -465 l-2 -450 130 0 131 0 0 181 c0 132 3 178 11 173 12 -7 32 -10
76 -13 23 -1 70 -60 77 -97 2 -10 9 -32 16 -49 6 -16 11 -31 11 -32 -1 -2 -1
-4 0 -5 0 -2 2 -10 4 -18 7 -35 34 -132 37 -136 6 -6 256 -9 262 -3 3 3 -5 39
-18 80 -13 41 -34 108 -46 149 -28 91 -52 141 -85 174 -25 25 -33 46 -17 46
18 0 94 82 109 118 20 45 25 149 10 198 -23 75 -102 132 -227 165 -37 9 -284
21 -292 14z m196 -196 c52 -14 74 -37 81 -83 6 -37 -7 -69 -42 -104 -18 -18
-70 -32 -120 -32 l-43 0 0 103 c0 67 4 107 12 115 15 15 61 15 112 1z"/>
<path d="M6281 1546 c-8 -10 -9 -21 0 -42 6 -16 13 -40 15 -53 3 -13 11 -39
19 -57 8 -19 12 -34 9 -34 -3 0 0 -9 6 -21 6 -11 13 -28 15 -37 1 -9 17 -61
35 -116 18 -54 33 -103 35 -110 1 -6 5 -19 9 -28 4 -9 9 -25 11 -35 2 -10 4
-19 5 -20 2 -2 3 -6 4 -10 2 -7 59 -193 71 -231 3 -7 5 -16 6 -20 11 -43 40
-108 52 -116 12 -10 57 -11 247 -7 l45 1 69 208 c38 114 69 213 69 220 0 6 4
12 9 12 4 0 8 6 8 13 0 8 13 53 29 100 16 48 27 87 24 87 -3 0 -1 6 5 13 5 6
22 53 36 102 15 50 30 97 33 105 10 25 16 51 14 66 -1 8 -41 12 -130 13 l-128
2 -17 -61 c-10 -34 -20 -71 -22 -83 -3 -12 -6 -26 -8 -32 -2 -5 -6 -23 -11
-40 -40 -157 -108 -400 -116 -422 -12 -28 -18 -6 -103 332 -9 35 -24 89 -40
145 -9 30 -18 66 -20 80 -3 14 -9 37 -15 51 -10 27 -10 27 -127 28 -65 1 -121
4 -125 6 -4 3 -12 -1 -18 -9z"/>
<path d="M1110 1080 l0 -470 124 0 124 0 4 30 c3 16 2 30 -1 30 -8 0 -5 65 3
79 4 5 2 13 -4 16 -8 5 -8 11 0 20 8 10 8 19 1 34 -7 12 -7 22 -1 26 5 3 7 12
4 20 -6 15 55 104 71 105 9 0 61 -83 65 -105 1 -5 10 -21 20 -35 9 -14 39 -69
65 -122 l49 -98 149 0 148 0 -32 58 c-18 31 -42 73 -54 92 -19 31 -51 87 -135
235 -13 22 -36 64 -52 94 l-29 54 48 71 c26 39 53 78 60 86 61 77 153 203 153
210 0 6 5 10 10 10 6 0 10 6 10 13 0 10 -34 14 -147 15 l-148 2 -41 -62 c-22
-35 -76 -120 -119 -190 -44 -70 -82 -123 -85 -117 -4 5 -6 43 -6 84 1 41 -3
75 -7 75 -4 0 -3 9 3 19 5 11 7 22 2 25 -9 5 -7 70 3 85 3 6 1 11 -5 11 -7 0
-8 6 -2 16 5 9 7 25 5 35 -5 17 -17 19 -129 19 l-124 0 0 -470z"/>
<path d="M2030 1078 l0 -473 67 2 c38 1 94 2 127 2 l58 1 -4 45 c-2 25 -1 45
3 45 3 0 4 15 2 33 -2 17 -4 41 -3 52 2 28 2 43 0 168 0 15 0 42 0 60 0 17 -1
68 -1 112 0 44 0 87 0 95 2 66 1 102 -4 110 -4 6 -2 10 2 10 5 0 7 17 5 38 -1
20 -2 51 -2 67 1 17 1 37 0 45 0 8 0 25 0 38 0 22 -2 22 -125 22 l-125 0 0
-472z"/>
<path d="M2460 1080 l0 -470 58 -1 c108 -2 152 0 162 6 7 4 10 111 8 311 -1
167 1 307 5 310 4 4 7 2 7 -5 0 -7 17 -49 39 -94 21 -45 39 -86 40 -92 1 -5 8
-17 15 -25 7 -8 22 -36 32 -62 10 -27 23 -48 27 -48 5 0 5 -4 2 -10 -3 -5 -1
-10 4 -10 6 0 10 -3 9 -7 -3 -11 122 -257 134 -264 5 -3 67 -7 138 -8 l130 -2
0 470 0 471 -118 0 -118 0 1 -45 c1 -24 4 -47 7 -51 4 -3 3 -16 -2 -29 -5 -13
-6 -25 -3 -28 3 -3 6 -101 7 -217 3 -207 2 -212 -15 -179 -9 19 -15 37 -12 41
2 5 -1 8 -6 8 -6 0 -11 5 -11 12 0 11 -169 358 -180 368 -3 3 -18 31 -33 63
l-29 57 -149 0 -149 0 0 -470z"/>
<path d="M4450 1080 l0 -470 103 -1 c56 0 194 -1 307 -3 113 -2 211 -1 218 2
8 3 12 33 12 103 l0 99 -190 0 -190 0 0 85 0 85 58 1 c31 0 106 2 166 3 l110
1 4 103 3 102 -170 0 -171 0 0 75 0 75 180 0 180 0 0 105 0 105 -310 0 -310 0
0 -470z"/>
<path d="M7279 1528 c0 -13 0 -48 1 -78 1 -54 1 -67 -1 -92 0 -7 1 -37 3 -66
2 -28 1 -52 -2 -52 -7 0 -4 -89 3 -97 4 -3 2 -14 -3 -24 -6 -10 -6 -20 -2 -23
5 -3 6 -28 2 -55 -3 -27 -3 -48 2 -45 4 3 4 -6 -1 -19 -5 -13 -6 -30 -1 -37 5
-7 4 -23 0 -36 -5 -12 -7 -24 -4 -27 3 -2 6 -60 8 -128 2 -68 4 -129 5 -135 0
-6 21 -9 49 -8 26 1 168 3 316 3 256 1 268 2 263 20 -2 10 0 26 5 35 6 10 5
16 -2 16 -6 0 -8 5 -5 11 9 14 12 79 4 79 -4 0 -5 9 -2 20 5 19 0 20 -187 20
l-192 0 4 83 c3 78 4 82 28 88 14 3 33 2 43 -3 9 -5 17 -5 17 -1 0 4 49 7 110
6 80 -1 113 2 123 11 9 9 12 39 11 97 -1 46 -2 86 -3 89 0 4 -36 6 -78 7 -43
0 -117 1 -165 2 l-88 1 0 75 0 75 98 1 c98 1 242 5 253 8 3 0 5 31 4 69 0 37
2 76 6 87 14 45 14 45 -312 45 l-309 0 -1 -22z"/>
<path d="M8059 1488 c-1 -35 0 -67 1 -73 1 -5 1 -39 0 -75 -1 -36 -2 -72 -2
-80 1 -8 1 -158 1 -332 l1 -318 137 -1 c407 -3 465 -1 473 11 6 10 7 109 1
180 -1 13 -28 16 -173 18 -94 1 -173 3 -174 5 -2 2 -5 165 -8 363 -2 197 -4
359 -5 360 -1 1 -57 2 -126 3 l-125 2 -1 -63z"/>
</g>
</svg>
