<?xml version="1.0" encoding="UTF-8" standalone="no"?>
<svg
   xmlns:dc="http://purl.org/dc/elements/1.1/"
   xmlns:cc="http://creativecommons.org/ns#"
   xmlns:rdf="http://www.w3.org/1999/02/22-rdf-syntax-ns#"
   xmlns:svg="http://www.w3.org/2000/svg"
   xmlns="http://www.w3.org/2000/svg"
   xmlns:sodipodi="http://sodipodi.sourceforge.net/DTD/sodipodi-0.dtd"
   xmlns:inkscape="http://www.inkscape.org/namespaces/inkscape"
   version="1.1"
   id="svg28"
   width="1010"
   height="1072"
   viewBox="0 0 1010 1072"
   sodipodi:docname="GKV_Logo2-master.svg"
   inkscape:version="1.0.2 (e86c8708, 2021-01-15)">
  <metadata
     id="metadata34">
    <rdf:RDF>
      <cc:Work
         rdf:about="">
        <dc:format>image/svg+xml</dc:format>
        <dc:type
           rdf:resource="http://purl.org/dc/dcmitype/StillImage" />
        <dc:title />
      </cc:Work>
    </rdf:RDF>
  </metadata>
  <defs
     id="defs32" />
  <sodipodi:namedview
     pagecolor="#ffffff"
     bordercolor="#666666"
     borderopacity="1"
     objecttolerance="10"
     gridtolerance="10"
     guidetolerance="10"
     inkscape:pageopacity="0"
     inkscape:pageshadow="2"
     inkscape:window-width="2053"
     inkscape:window-height="1109"
     id="namedview30"
     showgrid="false"
     inkscape:zoom="0.46436863"
     inkscape:cx="765.06122"
     inkscape:cy="927.5016"
     inkscape:window-x="34"
     inkscape:window-y="141"
     inkscape:window-maximized="0"
     inkscape:current-layer="g36"
     inkscape:document-rotation="0" />
  <g
     inkscape:groupmode="layer"
     inkscape:label="Image"
     id="g36">
    <path
       style="fill:#ee1b24;fill-opacity:1"
       d="m 531,246.80985 c -6.325,-3.86988 -18.25,-11.35022 -26.5,-16.62297 -8.25,-5.27275 -16.8,-10.22149 -19,-10.99721 -4.74795,-1.67413 -19.75296,-1.09581 -31.5,1.21407 -10.95654,2.15443 -37.3413,9.06658 -45.9214,12.03026 l -7.42141,2.56345 -5.57859,-3.16507 C 353.12285,208.02836 322.43725,192.80515 286.5,177.96623 c -7.76389,-3.2058 -30.94268,-11.70437 -42.35027,-15.52784 -1.50257,-0.50362 3.72183,-5.4863 16.46979,-15.70776 48.71755,-39.06232 107.28599,-66.620344 167.38959,-78.761309 57.39683,-11.594197 121.25182,-10.076624 175.8075,4.178227 26.59899,6.950046 60.96179,19.73964 77.662,28.905252 l 7.31369,4.01398 -1.04415,3.40217 c -1.71738,5.59573 0.67824,11.98131 6.90783,18.41301 9.51198,9.82058 7.6579,11.6757 -12.69187,12.69895 -15.47249,0.77802 -20.67716,2.17367 -39.97948,10.72068 -20.90204,9.25536 -33.65537,17.24981 -51.48463,32.27323 -25.21026,21.24285 -38.12625,40.56652 -44.56586,66.67518 -0.64436,2.6125 -1.68065,4.71535 -2.30285,4.67301 -0.62221,-0.0423 -6.30629,-3.24327 -12.63129,-7.11316 z"
       id="path136" />
    <path
       id="path189"
       style="fill:#000000"
       d="M 744.30859 78.330078 C 742.2225 78.352168 739.82214 78.420088 737 78.529297 C 714.14169 79.413848 714.88879 79.218539 709.53906 85.716797 C 706.81421 89.026649 705.14548 91.938733 705.47852 92.806641 C 705.80163 93.648654 705.151 94.905313 703.95898 95.740234 C 701.20352 97.670236 699.62175 101.83926 701.00977 103.51172 C 701.76963 104.4273 701.49108 105.74972 700.00781 108.26367 C 698.45058 110.90298 698.1755 112.32142 698.875 114.12305 C 700.16984 117.45802 705.03478 121.76567 707.95508 122.16406 C 710.13642 122.46163 710.44757 123.05628 710.73242 127.47656 C 710.9088 130.21365 711.49193 132.89037 712.02734 133.42578 C 714.6456 136.04404 712.08624 142.01561 706.86523 145.4707 C 702.01872 148.67797 696.81369 149.75212 680.5 150.91016 C 668.35693 151.77213 666.74353 152.13998 656.03125 156.50781 C 634.69871 165.20594 617.13696 175.03105 604.5 185.33594 C 577.82967 207.08444 566.22457 222.41162 558.55664 246.01367 C 552.787 263.77278 551.69319 276.27245 554.95508 287.18164 C 556.67629 292.93808 562.14767 300.07474 567.55859 303.62305 C 579.79466 311.64706 583.30338 316.53456 586.49414 330 C 588.41418 338.1028 593.96161 353.49016 598.80664 364.15234 L 601.82812 370.80469 L 596.66406 373.01953 C 566.40295 385.99304 557.74597 389.22291 555.53125 388.37305 C 554.69411 388.05181 553.0444 386.07265 551.86523 383.97461 C 550.68606 381.87657 548.99736 379.95505 548.11133 379.70312 C 547.22529 379.45121 541.83959 371.27627 536.14258 361.53711 C 526.84762 345.64718 525.77762 343.31959 525.73242 338.85938 C 525.70142 335.79985 526.22477 333.39636 527.0918 332.60938 C 527.8665 331.90616 534.48705 329.43017 541.80469 327.10547 C 554.80791 322.97454 558.00472 320.95853 554.89648 318.85156 C 552.57845 317.28025 543.46438 318.82306 530.64062 322.95703 C 514.19852 328.25751 501.00268 331.71265 492 333.07422 C 483.09885 334.42044 478 336.34486 478 338.35938 C 478 340.39859 483.36503 344.70149 486.86719 345.4707 C 488.47311 345.82342 492.47815 345.4116 495.78516 344.55469 C 503.55794 342.54056 505.41271 342.59226 512 345 C 515.00947 346.1 517.54296 347 517.63086 347 C 517.71876 347 522.86054 355.14158 529.05664 365.0918 C 537.99266 379.44204 540.03153 383.36755 538.91211 384.07617 C 538.13592 384.56752 536.9375 384.97637 536.25 384.98438 C 534.06166 385.01117 534.85038 386.96239 541.52539 398.04102 L 548.05078 408.87109 L 545.79102 416.54883 C 544.06699 422.40879 543.00459 424.42839 541.30078 425.07617 C 540.07297 425.54299 538.03932 427.53441 536.7832 429.50195 C 534.92523 432.4122 534.03381 432.98612 532 432.58008 C 520.73762 430.3316 511.18928 429.77985 502.35742 430.86523 C 491.35413 432.21745 483.55889 434.68876 472.5 440.33203 C 466.30961 443.49094 462.33134 446.57258 454.91016 453.95703 C 446.45756 462.3678 444.70535 464.74587 440.14648 474 C 434.14011 486.19244 431.28205 496.54026 430.38281 509.36133 C 427.90902 544.63191 447.67556 582.86396 478.08984 601.63672 C 481.37981 603.66741 483.71734 605.63633 483.28516 606.01367 C 482.5571 606.64935 467.0051 612.08831 387.5 639.50195 C 371 645.19121 341.3 655.45901 321.5 662.32031 C 301.7 669.18162 282.575 675.79738 279 677.02148 C 275.425 678.24559 272.07328 679.64086 271.55078 680.12305 C 271.02828 680.60524 270.85645 681 271.16992 681 C 272.05972 681 339.58244 666.57607 428 647.49805 C 476.55481 637.0213 515.57065 628.65135 551.95312 620.90625 C 564.85186 618.16037 581.50185 614.55609 588.95312 612.89648 C 596.4044 611.23687 610.825 608.12639 621 605.98438 C 631.175 603.84236 658.4 597.9999 681.5 593.00195 C 720.14085 584.64156 741.00736 580.15311 809 565.57812 C 841.53951 558.60292 852.91574 553.75188 867.99805 540.42188 C 899.49033 512.58848 907.65804 465.35263 888.01953 424.62109 C 882.01855 412.17468 876.45872 404.39728 866.03516 393.86523 C 844.33378 371.93799 818.47741 361 788.34766 361 C 774.70627 361 764.58406 362.88705 753 367.5918 C 742.00811 372.05607 742.44943 372.02843 742.81445 368.25 C 743.19647 364.29555 741.39755 363.99394 735.4707 367.01562 C 731.15115 369.21785 729 368.99857 729 366.35938 C 729 365.42291 728.37254 363.94645 727.60547 363.07812 C 724.53838 359.60627 720.31954 325.8209 722.30664 320.64258 C 722.82868 319.28217 723.65094 319.34814 729.19922 321.20508 C 732.66425 322.36479 735.83028 323.80523 736.23438 324.40625 C 737.35459 326.07246 737.1389 339.50271 735.94141 342.65234 C 735.35946 344.18299 733.30504 347.36339 731.375 349.71875 C 728.89659 352.74333 728.05177 354.58773 728.5 356 C 729.51006 359.18241 733.37223 358.47989 736.89062 354.47266 C 742.41353 348.18243 744.15218 343.58547 744.10938 335.39453 C 744.07777 329.34984 744.35531 328 745.62891 328 C 746.48577 328 747.42328 327.1 747.71094 326 C 747.9986 324.9 748.82336 324 749.54492 324 C 751.38749 324 754.14346 321.03929 753.4082 319.84961 C 753.07224 319.30601 752.61946 317.01773 752.40234 314.76367 C 752.18523 312.5096 751.39362 309.95252 750.64453 309.08203 C 749.89543 308.21154 748.79263 306.0375 748.19336 304.25 C 746.624 299.56891 748.53528 299.97152 756.5 306 C 764.1193 311.76703 766.89964 312.55463 762.07812 307.58008 L 758.76172 304.16016 L 762.57422 303.10742 C 764.67114 302.52843 766.59416 302.26213 766.84766 302.51562 C 767.83584 303.50381 766.86806 314.3535 765.56836 316.85547 C 764.81281 318.30993 762.81204 321.23711 761.12109 323.35938 C 758.66905 326.43685 758.25128 327.60089 759.05859 329.10938 C 760.66238 332.10607 763.55898 331.33215 767.35742 326.89453 C 772.94305 320.36897 774.29034 316.55845 774.92578 305.47266 C 775.40438 297.12319 775.87647 294.96738 777.75 292.58789 C 779.18332 290.7675 780 288.35738 780 285.94727 C 780 278.88069 780.66971 278.56633 786.25781 283.01562 C 789.03186 285.22436 791.54441 286.78763 791.8418 286.49023 C 792.13919 286.19284 790.10254 283.5985 787.31445 280.72461 C 784.52635 277.85072 781.95548 274.25779 781.60156 272.74023 C 780.74971 269.08769 774.54038 264.69379 766.17969 261.82422 C 760.49297 259.87241 757.41711 259.52543 745.5 259.49023 L 731.5 259.44922 L 724 255.80664 C 719.875 253.80339 715.375 250.9638 714 249.49805 C 711.70387 247.05038 711.50119 246.08537 711.52539 237.66602 C 711.55039 228.96768 711.76548 228.06554 715.71094 220 C 720.91014 209.37148 725.02155 197.19491 725.73047 190.32617 C 726.07377 186.99988 726.95936 184.44245 728.13672 183.37695 C 729.16155 182.44949 730 180.64381 730 179.36523 C 730 177.64388 731.10302 176.46572 734.25 174.82812 C 738.89785 172.40956 746.73455 171.94063 757.23047 173.45117 C 763.85359 174.40435 765.51156 173.55641 766.54688 168.68164 C 766.91845 166.93215 767.86171 164.77389 768.64258 163.88672 C 770.20187 162.11513 770.90038 159.76818 771.86328 153.06055 C 772.43032 149.11049 772.85323 148.53023 775.70117 147.79492 C 777.46159 147.34039 779.16254 146.54493 779.48242 146.02734 C 779.80231 145.50975 778.99753 142.55554 777.69336 139.46289 L 775.32227 133.83984 L 777.41211 128.4375 C 778.99564 124.34153 779.99778 123.03048 781.55859 123.01758 C 782.69097 123.00858 784.44982 122.39207 785.4668 121.64844 C 787.04554 120.49404 787.22421 119.42376 786.69141 114.32617 C 784.8683 96.883647 773.8412 83.732905 757.5 79.515625 C 753.99666 78.611496 750.56688 78.2638 744.30859 78.330078 z M 682.19922 226 C 682.47408 226 682.99681 230.8375 683.35938 236.75 C 684.22991 250.94609 685.72502 259.82521 687.86328 263.49609 C 690.37217 267.80326 694.40561 270.1753 705.7793 274.02539 L 715.81836 277.42188 L 710.35938 280.71094 C 707.35677 282.51968 704.74179 284 704.54883 284 C 704.35587 284 701.5056 281.97566 698.21484 279.50195 C 685.59234 270.01344 667 247.95557 667 242.46875 C 667 241.20202 667.84103 238.21512 668.86914 235.83203 C 670.39486 232.29546 671.74539 230.99458 676.21875 228.75 C 679.2331 227.2375 681.92436 226 682.19922 226 z M 658.5 280.11328 L 666.5 286.18359 C 670.9 289.52263 679.13279 294.98089 684.79492 298.3125 C 691.24286 302.10647 694.60589 304.62514 693.79492 305.05078 C 693.08279 305.42454 690.475 305.97677 688 306.2793 C 683.89691 306.78085 683.05899 306.48478 678.5 302.92188 C 675.75 300.7727 669.9 296.77044 665.5 294.02734 C 661.1 291.28424 656.89659 288.6416 656.1582 288.1543 C 655.05847 287.42854 655.1489 286.62154 656.6582 283.69141 L 658.5 280.11328 z M 742.91406 281 C 746.65497 281 761.66439 286.41209 764.98633 288.95898 L 767.47461 290.86719 L 765.13867 293.35352 C 763.85394 294.72106 761.5215 296.36955 759.95703 297.01758 C 758.39256 297.6656 756.97534 299.01535 756.80664 300.01758 C 756.5466 301.56245 755.73896 301.22328 751.5 297.7832 C 745.54569 292.95105 739.61925 290.06403 735.5 289.99023 C 732.72421 289.94043 728.09659 287.52207 729.07227 286.63086 C 730.98644 284.88241 740.5301 281 742.91406 281 z M 706.5625 314.54297 C 706.72426 314.55197 706.86341 314.58106 706.97656 314.63086 C 707.81417 314.99955 711.0875 316.01098 714.25 316.87891 L 720 318.45703 L 720.03711 330.97852 C 720.05731 337.86531 720.66227 346.5375 721.38086 350.25 C 722.0991 353.9625 722.42005 356.99338 722.09375 356.98438 C 720.63745 356.9452 704 328.82465 704 326.40234 C 704 324.13612 703.65248 323.83286 701.52148 324.24023 C 699.70016 324.5884 698.63162 324.08758 697.49414 322.35156 C 695.98738 320.05197 696.07409 319.90902 700.70117 316.97461 C 703.17345 315.40673 705.43017 314.48254 706.5625 314.54297 z M 643.40234 331.10156 C 643.8381 331.12846 644.40762 331.23152 645.1543 331.38086 C 648.2617 332.00234 651.00729 333.645 650.99219 334.87305 C 650.98819 335.21821 649.23224 336.5014 647.08984 337.72461 C 642.7279 340.21507 642 339.65244 642 333.79297 C 642 331.63209 642.0951 331.02074 643.40234 331.10156 z M 519.29883 335.70117 C 519.52789 335.72577 519.60052 335.83757 519.46875 336.05078 C 519.07669 336.68513 517.25035 337.83268 515.41016 338.60156 C 511.52247 340.22594 508.63342 340.44344 511.25977 338.91406 C 514.364 337.10639 518.30622 335.59451 519.29883 335.70117 z M 693.83984 342.28711 C 694.46537 342.25371 695.02912 342.29211 695.50781 342.41211 C 698.9704 343.28117 704.22133 352.4937 703.41602 356.28711 C 703.09048 357.82055 698.21986 367.49555 692.5918 377.78711 C 686.96375 388.07867 675.23961 409.55 666.53906 425.5 C 657.83851 441.45 649.16887 457.3125 647.27344 460.75 C 645.37801 464.1875 643.49468 467 643.08789 467 C 640.92443 467 634 456.91759 634 453.76758 C 634 448.56333 644.13492 401.16524 646.45898 395.5 C 647.81275 392.2 649.23242 388.15 649.61328 386.5 C 650.00216 384.81522 653.67383 379.77355 657.99023 375 C 666.40878 365.68984 675.07217 355.4837 679.25391 349.94727 C 682.0364 346.26339 689.46118 342.52103 693.83984 342.28711 z M 714.61523 370.33203 C 714.92012 370.20708 715 370.61623 715 371.33203 C 715 372.2843 715.675 373.32209 716.5 373.63867 C 717.41029 373.98798 718 375.4994 718 377.48438 C 718 379.28335 718.68876 382.4055 719.53125 384.42188 C 721.23761 388.50576 721.25963 388.44645 715.38281 395.68164 C 707.02608 405.96994 700.26856 421.07668 697.41797 435.83789 C 695.55137 445.50373 695.61484 462.75196 697.55664 472.98828 C 702.9247 501.28638 721.57114 529.41753 745.29883 545.01758 C 749.52954 547.79912 751.53656 549.66934 750.74805 550.09375 C 750.06138 550.46334 726.775 556.93074 699 564.46484 C 671.225 571.99895 634.55 581.95895 617.5 586.59766 C 600.45 591.23636 585.60152 595.31373 584.50391 595.66016 C 583.08561 596.10781 583.83534 594.72895 587.0957 590.89453 C 599.60093 576.18746 605.12327 563.52159 608.49609 541.80469 L 609.07031 538.10742 L 612.67969 540.55664 C 614.66451 541.90357 618.1362 543.52729 620.39453 544.16406 C 626.57877 545.90778 628.20183 547.80724 627.02344 551.91602 C 625.91305 555.78775 626.37008 557 628.9375 557 C 630.01654 557 631.26313 558.22104 632 560 C 633.57704 563.80732 637.18023 564.0954 638.79883 560.54297 C 639.83329 558.27258 640.30244 558.13015 644.95898 558.68164 C 648.29692 559.07697 650 558.9097 650 558.1875 C 650 557.43844 652.66331 557.28495 658.50586 557.69727 C 668.40692 558.396 671 557.103 671 551.4668 C 671 547.76337 670.10226 546.85994 662.51953 542.92578 C 653.11259 538.04516 647.92456 533.78992 648.58789 531.5 C 651.18397 522.53793 649.73102 512.68898 644.81055 505.89648 L 641.90625 501.88867 L 649.33789 488.19336 C 653.42512 480.66169 664.41071 460.55 673.75 443.5 C 683.08929 426.45 695.77861 403.275 701.94922 392 C 710.76803 375.88618 713.70059 370.70688 714.61523 370.33203 z M 789.51562 371.14062 C 814.12201 371.28465 839.30687 381.56101 858.76758 400.90625 C 870.77603 412.84345 880.53298 429.71588 885.17188 446.56641 C 888.39431 458.27185 888.40095 481.18625 885.18555 492.5 C 876.85542 521.81026 855.11261 543.26713 826.3457 550.56445 C 818.50113 552.55439 814.43267 552.98239 804.12109 552.90039 C 781.85833 552.72328 764.54372 546.9728 747.02734 533.94141 C 714.51136 509.75099 699.48655 469.72041 708.95312 432.5 C 711.99395 420.54421 723.56882 399 726.95117 399 C 727.46368 399 730.0437 401.8125 732.68359 405.25 C 739.74502 414.44496 753.55335 430.48288 769.19531 447.65625 C 779.24855 458.69377 783 463.49496 783 465.32422 C 783 469.22896 783.99504 470.94517 787.22461 472.61523 C 791.26641 474.70533 795.86556 472.92412 796.6582 468.96094 C 797.06767 466.91359 797.95286 466.05942 800.11523 465.62695 C 808.15389 464.01921 804.73348 452.08611 796.20312 451.97852 C 792.2737 451.92892 751.92145 403.40277 744.49219 389.79297 L 741.92188 385.08594 L 747.21094 382.05469 C 760.19615 374.61505 774.7518 371.05423 789.51562 371.14062 z M 605.38477 378.85742 L 607.16992 381.17969 C 608.15202 382.45626 608.96632 383.84592 608.97852 384.26758 C 609.01302 385.45713 598.0007 407.15146 595.74219 410.34375 C 594.63586 411.90749 591.80471 414.01263 589.45117 415.02148 C 586.74947 416.17956 583.94241 418.52635 581.83594 421.38867 C 580.00092 423.88213 578.20224 425.93944 577.83789 425.96094 C 577.47355 425.98244 573.95389 420.61451 570.01758 414.03125 C 564.90529 405.4812 562.95157 401.28799 563.17969 399.35742 C 563.47535 396.85528 565.05333 395.99428 584.44141 387.75586 L 605.38477 378.85742 z M 554.64844 420.46484 C 554.77182 420.47284 554.89321 420.53144 555.00391 420.64844 C 555.44669 421.1163 560.77765 429.7125 566.85156 439.75 C 572.92547 449.7875 577.8061 457.98861 577.69727 457.97461 C 577.58844 457.96061 574.8 455.69407 571.5 452.9375 C 566.38173 448.66209 552.66476 439.72158 549.71484 438.73828 C 549.2044 438.56813 549.76494 435.07036 550.95898 430.96484 C 552.15298 426.85932 553.37 422.6663 553.66406 421.64844 C 553.88462 420.88501 554.2783 420.44173 554.64844 420.46484 z M 763.22266 429 C 764.21093 429 791 456.58395 791 457.60156 C 791 458.25272 790.31792 459.04733 789.48438 459.36719 C 788.42635 459.77319 784.77572 456.10773 777.39062 447.22461 C 766.86032 434.55828 762.53884 429 763.22266 429 z M 511.20117 440 C 520.04103 440 534.66711 442.34678 536.41992 444.04688 C 537.24066 444.84292 534.75918 453.44116 519.29883 503.36719 C 517.78861 508.24416 516.08986 512.36861 515.52539 512.5332 C 514.96093 512.69779 513.22393 513.11373 511.66406 513.45703 C 506.76299 514.53569 503.99786 518.23491 504.00586 523.70508 C 504.02156 535.12877 515.20612 541.14862 523.26562 534.07227 L 526.59961 531.14453 L 556.04883 528.63867 C 572.24655 527.2604 588.5375 525.92983 592.25 525.68164 L 599 525.23047 L 598.99219 533.86523 C 598.96389 568.75811 574.46028 599.22485 541.32617 605.56445 C 534.35235 606.89876 520.79434 607.28066 515 606.30664 C 496.93596 603.27008 477.83719 593.05852 465.41406 579.79297 C 442.23993 555.04716 433.85348 521.72184 443.125 491.22266 C 452.32223 460.96789 480.1892 440 511.20117 440 z M 546.92578 448 C 547.30619 448 550.29094 449.60815 553.55859 451.57422 C 573.45304 463.54429 587.20954 480.5707 594.64453 502.42578 C 598.50436 513.77174 599.51752 512.99891 580.75 513.00391 C 571.8125 513.00591 558.875 513.18489 552 513.40039 C 545.125 513.61588 537.52544 513.58508 535.11328 513.33203 L 530.72852 512.87109 L 531.32422 507.18555 C 532.22484 498.60119 545.5636 448 546.92578 448 z M 594.56445 453.14844 C 595.09355 453.08604 597.26701 454.79239 599.60547 457.13086 C 603.64009 461.16548 604.10526 462.09304 603.82031 465.52344 L 603.5 469.37891 L 598.69727 461.57617 C 596.05544 457.28462 594.1588 453.50918 594.48242 453.18555 C 594.50262 453.16535 594.52925 453.15264 594.56445 453.14844 z M 631.38477 479.5293 C 631.45457 479.5343 631.5238 479.54491 631.59375 479.56641 C 632.36735 479.80442 633.68646 480.21543 634.52539 480.47852 C 635.79437 480.87646 635.54514 481.95721 633.04688 486.90625 C 630.21451 492.51713 628.1197 495.12345 627.90234 493.30859 C 627.17829 487.26305 629.22146 479.38946 631.38477 479.5293 z M 640.01562 507 C 642.25041 507 645.41018 515.53901 645.45508 521.69922 C 645.50798 528.94957 644.41648 530.6802 641.20898 528.43359 C 639.39407 527.16237 639 525.92324 639 521.49023 C 639 518.5223 638.50306 515.00513 637.89648 513.67383 C 636.74096 511.13774 638.05534 507 640.01562 507 z M 542.38867 521.32031 C 546.07451 521.34801 546.45047 521.5496 544 521.96875 C 541.525 522.3921 536.41188 523.06339 532.63672 523.46094 C 527.10805 524.04314 525.85814 523.92257 526.2168 522.8418 C 526.54881 521.84133 529.44094 521.462 537.58203 521.34961 C 539.56394 521.32221 541.16006 521.31111 542.38867 521.32031 z " />
    <path
       style="fill:#141112"
       d="M 183.64383,677.75 C 170.03639,658.6694 154.16273,629.94404 143.99471,606 128.95457,570.58289 119.67497,534.51921 114.78985,492.5 c -1.8801,-16.17159 -1.59405,-66.53493 0.47072,-82.87567 1.89098,-14.9654 1.67661,-14.62308 14.77539,-23.59461 31.76038,-21.7531 71.00053,-35.78912 167.59296,-59.94723 32.96242,-8.24402 40.84945,-10.96042 46.57443,-16.0409 5.23069,-4.64183 5.64516,-8.75151 1.43881,-14.26633 -10.67973,-14.00184 -70.31383,-36.86402 -137.86786,-52.85499 -5.34913,-1.26621 -9.56659,-2.46131 -9.37213,-2.65578 0.47399,-0.47399 20.70544,3.00822 38.60036,6.64384 83.19475,16.90227 137.95326,35.81377 157.89025,54.52929 14.65184,13.75416 11.26779,27.36057 -10.07091,40.49251 -7.57648,4.66261 -12.18505,6.82962 -35.32187,16.6088 -34.58205,14.61671 -60.49863,31.65549 -69.62388,45.77403 -7.11221,11.00397 -6.2334,19.51693 2.95611,28.63555 17.79964,17.66234 65.3661,29.25764 133.91777,32.64521 7.8375,0.3873 14.25,1.10212 14.25,1.58848 0,0.48636 -1.11948,3.09347 -2.48773,5.79358 -6.63157,13.08678 -10.29384,35.38051 -8.5541,52.07228 2.28325,21.90637 9.66818,40.83051 22.71702,58.21311 2.37864,3.16864 4.32481,5.93236 4.32481,6.14159 0,0.20923 -1.2375,0.69087 -2.75,1.0703 -1.5125,0.37943 -12.875,4.43232 -25.25,9.00643 -12.375,4.57411 -31.95,11.77979 -43.5,16.01261 -11.55,4.23283 -25.05,9.19337 -30,11.02343 C 293.82404,645.62062 188.96952,684 188.44935,684 c -0.19156,0 -2.35405,-2.8125 -4.80552,-6.25 z"
       id="path94" />
    <path
       id="path92"
       style="fill:#ee1b24;fill-opacity:1"
       d="M 753.16016 757.01953 C 742.25262 757.0319 730.91547 759.20644 722 763.23828 C 702.15027 772.2149 687.86673 793.68874 685.01758 818.83984 C 680.71971 856.7796 702.46989 889.67186 735.75 895.56055 C 745.06299 897.20842 762.0215 896.66573 770.53125 894.44922 C 784.55729 890.7959 797.84572 881.51453 805.4707 870.04492 C 813.53254 857.91818 816.70799 847.63543 817.68359 830.5 C 819.79317 793.4472 799.9781 764.96717 767.5 758.37109 C 762.9873 757.45459 758.11813 757.01391 753.16016 757.01953 z M 882.70117 758.21094 C 868.4124 758.17869 842.3226 759.55618 839.46094 760.6543 C 838.2008 761.13787 838 770.29302 838 827.43945 C 838 863.86394 838.29935 893.96732 838.66602 894.33398 C 839.58907 895.25704 871.22278 895.1462 872.6875 894.21484 C 873.55384 893.66396 873.82373 887.49777 873.6875 871.36914 L 873.5 849.2793 L 886 848.6875 C 900.43511 848.00477 907.64872 846.36261 917.6582 841.47656 C 925.75988 837.52178 933.34642 830.05068 936.86719 822.56055 C 942.28253 811.03992 942.45852 794.84963 937.28906 783.80273 C 929.31877 766.77062 915.40498 759.57652 888 758.31641 C 886.54256 758.24939 884.74242 758.21554 882.70117 758.21094 z M 882.29883 785.00586 C 891.62396 785.01308 896.39551 786.40028 900.57227 790.32227 C 909.83535 799.0203 905.79705 815.15478 893.29102 819.41602 C 890.72608 820.28998 885.38378 821 881.36914 821 L 874.09375 821 L 873.79688 804.42383 C 873.63372 795.3067 873.859 787.2067 874.29883 786.42383 C 874.8754 785.39757 877.10744 785.00186 882.29883 785.00586 z M 751.33203 785.47656 C 755.40197 785.42076 759.43139 786.05364 761.92773 787.39453 C 772.68177 793.171 779.94851 808.71555 779.97461 826 C 780.00495 846.10285 772.25013 862.41981 760.5 866.97461 C 746.19896 872.51823 730.54864 863.2616 725.24219 846.12305 C 723.93786 841.91039 723.5 836.98682 723.5 826.5 C 723.5 814.36666 723.79981 811.72989 725.74805 806.71875 C 729.63758 796.71435 733.91911 791.18971 740.5 787.6875 C 743.15229 786.27601 747.2621 785.53237 751.33203 785.47656 z " />
    <path
       style="fill:#ee1b24;fill-opacity:1"
       d="m 217,827 v -68 h 18 18 v 53 53 h 26 26 v 15 15 h -44 -44 z"
       id="path88" />
    <path
       style="fill:#ee1b24;fill-opacity:1"
       d="M 131,895.38699 C 116.99038,893.67805 105.9995,889.81161 96.325021,883.18882 85.38466,875.69945 78.032069,865.47994 73.386233,851.30574 70.778724,843.35037 70.500951,841.1963 70.509843,829 c 0.01131,-15.5144 1.45427,-22.25306 7.237118,-33.7976 5.986682,-11.95147 16.664959,-22.29965 30.016969,-29.08907 2.34516,-1.19251 8.64516,-3.38605 14,-4.87454 8.95527,-2.48931 11.21971,-2.70765 28.23607,-2.72257 14.63838,-0.0128 20.22406,0.37969 26.7595,1.88049 12.63502,2.90149 12.17236,1.88036 8.28204,18.27916 l -3.30859,13.94667 -8.11647,-2.36677 c -18.20692,-5.30914 -37.73543,-3.85647 -49.38607,3.67371 -6.55942,4.23955 -8.99054,7.18585 -13.01274,15.77029 -2.47631,5.2851 -2.71334,6.82158 -2.66893,17.30023 0.0453,10.68568 0.26632,11.96769 3.12147,18.10486 4.10569,8.82518 9.18758,14.20751 17.08567,18.09572 5.61227,2.76292 7.86278,3.27778 15.8555,3.62735 5.12316,0.22407 10.47062,0.11732 11.88324,-0.23722 L 159.063,865.94608 158.7815,854.22304 158.5,842.5 149.25,842.21247 140,841.92495 V 828.46247 815 h 26.5 26.5 v 36.85158 36.85158 l -6.25,1.65013 c -14.39957,3.80177 -21.80508,4.8383 -36.75,5.1438 -8.525,0.17426 -17.075,0.12472 -19,-0.1101 z"
       id="path86" />
    <path
       style="fill:#ee1b24;fill-opacity:1"
       d="m 599,895.96827 c -7.15638,-0.84652 -17.69931,-3.39947 -22.75,-5.50887 -4.05262,-1.69256 -4.05683,-2.1306 -0.17751,-18.44878 l 3.07249,-12.92429 4.87926,1.92323 c 14.21362,5.60248 33.76446,7.77687 41.36626,4.60064 7.73218,-3.23071 10.08469,-10.64739 5.08754,-16.03939 C 628.01877,846.91721 614.4924,840 611.76264,840 c -0.75264,0 -5.1278,-1.81799 -9.72258,-4.03997 -21.75801,-10.52193 -30.91398,-24.63397 -27.94477,-43.0711 2.49157,-15.47123 13.92922,-27.43858 31.40471,-32.85911 8.99587,-2.79033 26.15006,-3.74973 37.46465,-2.09532 11.19242,1.63655 21.03535,4.73978 21.03535,6.63193 0,1.48427 -6.05993,26.63211 -6.5716,27.27119 -0.14867,0.18569 -3.76258,-0.86775 -8.03091,-2.34098 -9.09767,-3.14009 -23.51361,-4.385 -30.07449,-2.59712 -4.84859,1.32127 -9.323,6.02898 -9.323,9.80913 0,4.60605 5.56369,8.43315 21.33248,14.67398 22.0602,8.7308 29.97011,14.6403 35.56641,26.57174 2.25836,4.81489 2.60111,6.86332 2.60111,15.54563 0,8.80519 -0.32666,10.69728 -2.734,15.83589 -3.70551,7.90966 -7.77226,12.81003 -14.13664,17.03446 -13.3217,8.84244 -31.90305,12.1679 -53.62936,9.59792 z"
       id="path80" />
    <path
       style="fill:#ee1b24;fill-opacity:1"
       d="m 488,896.31735 c -9.33459,-1.01288 -29,-6.28998 -29,-7.78199 0,-0.68968 6.04971,-27.10776 6.47297,-28.2664 0.33673,-0.92176 1.53901,-0.7641 4.78561,0.62756 12.41927,5.32352 31.77362,7.67215 40.83976,4.95587 8.47137,-2.53808 11.18596,-10.81488 5.49518,-16.75478 -2.76838,-2.88956 -5.27546,-4.09492 -23.70987,-11.39921 -15.02584,-5.95371 -23.99829,-13.21153 -29.5617,-23.9125 -2.42185,-4.6583 -3.62586,-9.89592 -3.59259,-15.05508 0.035,-5.43314 1.03883,-9.77885 3.98756,-15.80448 C 471.88773,766.2296 490.27583,757 515.36987,757 528.50887,757 551,761.57452 551,764.24689 c 0,1.06686 -6.95435,27.04079 -7.34444,27.43088 -0.13274,0.13274 -3.82204,-0.91856 -8.19845,-2.33623 -11.40866,-3.69565 -25.37035,-4.3582 -31.8102,-1.50955 -8.21791,3.63517 -9.3111,11.1462 -2.31705,15.91984 1.81458,1.23851 8.85961,4.51561 15.65561,7.28246 17.30969,7.04726 23.20097,10.41224 29.04185,16.58811 7.56651,8.00047 10.37439,14.86005 10.38925,25.38063 0.0177,12.56174 -2.82374,19.5643 -11.3605,27.99697 -7.37014,7.28027 -14.51698,11.20465 -24.74231,13.58615 -6.55794,1.52736 -25.05804,2.5185 -32.31376,1.7312 z"
       id="path78"
       sodipodi:nodetypes="ssssssssasssssssssssss" />
    <path
       id="path76"
       style="fill:#ee1b24;fill-opacity:1"
       d="m 378,757 c -32.21093,0 -56.20235,18.24222 -65.17578,49.55664 -2.94872,10.29007 -3.17156,31.27641 -0.43945,41.44336 3.22937,12.0174 9.05341,22.47472 16.9414,30.42188 10.10899,10.18483 20.14276,15.43076 33.64649,17.58984 7.38629,1.18098 24.99751,0.36302 32.92382,-1.5293 15.95211,-3.80838 32.47522,-17.04938 39.42774,-31.5957 5.96851,-12.48754 7.92619,-18.07828 7.95599,-36.11754 C 443.3004,814.55855 442.08355,808.96057 440.74023,804 432.82363,774.76582 409.10779,757 378,757 Z m -1.58203,28.21484 c 1.12135,-0.0393 2.2324,0.0144 3.32422,0.16407 15.81339,2.16747 25.22851,17.69882 25.22851,41.62109 0,19.7952 -6.11808,33.37069 -17.74804,39.38477 -5.91171,3.05707 -15.29029,2.70064 -22.14063,-0.8418 -4.36919,-2.2594 -10.79802,-10.16529 -12.92773,-15.89649 -6.13792,-16.51756 -4.6187,-39.87773 3.39258,-52.14648 4.73222,-7.24711 13.0216,-12.01003 20.87109,-12.28516 z"
       sodipodi:nodetypes="ssssssssssssssssss" />
    <path
       style="fill:#141112"
       d="M 804.25,1011.2357 775,1010.9706 v -47.01478 -47.01477 l 12.75,0.27987 12.75,0.27988 0.26245,36.22698 0.26245,36.22697 17.73755,0.27303 L 836.5,990.5 l 0.2836,10.1246 c 0.25323,9.0404 0.0926,10.1648 -1.5,10.5 -0.98098,0.2065 -14.9461,0.2561 -31.0336,0.1103 z"
       id="path72" />
    <path
       style="fill:#141112"
       d="m 698.75,1011.3327 c -1.63501,-0.4472 -1.75,-3.5623 -1.75,-47.40532 V 917 h 31.03498 31.03499 l -0.28499,10.25 -0.28498,10.25 -17.75,0.27307 -17.75,0.27308 v 7.45275 7.45274 l 16.75,0.27418 16.75,0.27418 0.16022,9 c 0.0918,5.15601 -0.29594,9.55208 -0.90779,10.29259 -0.7995,0.96762 -4.988,1.25685 -16.66022,1.15046 L 723.5,973.80092 723.21107,982.40046 722.92213,991 H 741.96107 761 v 10 10 l -28.25,0.014 c -15.5375,0.01 -29.15,0.1899 -30.25,0.4053 -1.1,0.2154 -2.7875,0.1763 -3.75,-0.087 z"
       id="path70" />
    <path
       style="fill:#141112"
       d="m 626.71075,1011.1864 c -0.88923,-0.1728 -1.89648,-1.2978 -2.23835,-2.5 -0.6409,-2.2536 -9.35648,-29.76526 -20.809,-65.6857 -3.59481,-11.275 -6.83846,-21.7375 -7.20812,-23.25 l -0.6721,-2.75 h 14.10841 C 620.96863,917 624,917.28594 624,918.33082 c 0,0.73196 2.87368,11.86946 6.38595,24.75 3.51227,12.88055 7.14655,27.01918 8.07619,31.41918 0.92963,4.4 1.92914,8.675 2.22113,9.5 0.292,0.825 3.11517,-8.4 6.27372,-20.5 3.15855,-12.1 7.21812,-27.5125 9.02127,-34.25 L 659.25671,917 h 13.37165 c 7.44849,0 13.37164,0.40652 13.37164,0.91772 0,0.99234 -30.01536,92.36718 -30.52024,92.91178 -0.40369,0.4355 -26.68698,0.7609 -28.76901,0.3562 z"
       id="path68" />
    <path
       id="path66"
       style="fill:#141112"
       d="m 519.53125,916.31641 c -3.45717,0.0502 -7.12583,0.22121 -11.00977,0.51367 -8.02898,0.60458 -15.03176,1.36655 -15.56054,1.69336 C 492.36826,918.88974 492,936.73846 492,965.05859 V 1011 h 13 13 V 993.36133 975.7207 l 5.10547,0.60547 c 2.80823,0.3326 5.76726,1.15254 6.57422,1.82227 2.13429,1.7713 4.85075,7.61311 6.20898,13.35156 0.65089,2.75 2.12766,8.24954 3.28321,12.2207 l 2.10156,7.2207 c 9.09324,0.2696 -0.38068,0 26.90429,0.4611 -0.98376,-3.3675 -3.22691,-9.6489 -5.76562,-18.9025 -3.6336,-13.27266 -5.55614,-17.57762 -9.70117,-21.72266 l -3.46485,-3.46289 4.62696,-3.42187 c 6.75192,-4.99382 10.07411,-11.62683 10.10351,-20.17383 0.0129,-3.73016 -0.59537,-8.26438 -1.35156,-10.07422 -5.04031,-12.06313 -18.89353,-17.67956 -43.09375,-17.32812 z m -172.74414,0.43945 c -1.5959,-0.005 -3.34791,-10e-4 -5.28711,0.008 -9.9,0.0465 -20.025,0.468 -22.5,0.9375 l -4.5,0.85352 -0.25977,45.41211 c -0.17201,30.00723 0.0868,45.76061 0.76368,46.43751 0.56342,0.5634 4.73,1.3072 9.25976,1.6543 13.18975,1.0106 15.9507,1.0006 26.72852,-0.1055 25.09419,-2.5751 39.96525,-10.9927 46.23437,-29.84764 4.54794,-13.67832 4.64741,-28.71517 -1.4707,-41.28711 -5.76589,-11.66382 -14.02203,-18.06699 -28.3418,-21.97852 -5.96809,-1.63021 -9.45564,-2.05243 -20.62695,-2.08398 z M 414,917 v 46.98633 46.98437 l 29.75,0.2656 c 16.3625,0.1456 30.7625,0.3478 32,0.4512 2.2016,0.1838 2.25,-0.037 2.25,-10.25 V 991 h -19 -19 v -8.47461 -8.47656 L 456.75,973.77539 473.5,973.5 473.78516,963.25 474.07031,953 H 457.03516 440 v -7.5 -7.5 h 18 18 V 927.5 917 h -31 z m 109.87695,18.09375 c 3.81254,0.0464 8.71622,1.06443 10.85352,2.46484 6.9718,4.5681 5.03056,15.55369 -3.36719,19.0625 C 529.54829,957.37944 525.79891,958 523.03125,958 H 518 v -10.98047 c 0,-10.95978 0.004,-10.98364 2.57031,-11.62695 0.88585,-0.22234 2.0358,-0.3143 3.30664,-0.29883 z M 340,935.71875 l 8.29883,0.51758 c 16.94293,1.05703 24.63893,9.24889 24.67383,26.26367 0.0292,14.2568 -4.02466,22.42082 -13.41211,27.01367 -3.88233,1.89945 -7.8063,2.91485 -12.59961,3.25781 L 340,993.26953 v -28.77539 z"
       sodipodi:nodetypes="ssssccccccsscccccccssscssccsscscsscsccsscccccccccccccccccccscsscscscsssscccs" />
    <path
       style="fill:#141112"
       d="M 224.75,1011.2138 215,1010.9276 V 963.96379 917 h 14.87655 14.87656 l 8.68986,16.75 c 9.72486,18.74499 14.77382,29.11737 18.13216,37.25 l 2.2712,5.5 -0.57969,-29.75 L 272.68696,917 H 284.34348 296 v 47.02822 47.02818 L 282.41619,1010.7782 268.83238,1010.5 258.45865,990 C 252.7531,978.725 245.70332,964.44264 242.79246,958.26141 L 237.5,947.02283 l 0.31714,31.8544 c 0.29987,30.12057 0.21823,31.87527 -1.5,32.23857 -0.99943,0.2113 -6.20464,0.2554 -11.56714,0.098 z"
       id="path60" />
    <path
       style="fill:#141112"
       d="M 171.99818,964.25 172,917 h 12.5 12.5 v 46.94285 46.94285 l -12.50182,0.3071 -12.50182,0.3072 0.002,-47.25 z"
       id="path58" />
    <path
       style="fill:#141112"
       d="M 79.972962,1010.9251 C 79.972962,999.97841 80,989.59167 80,963.83333 V 917 H 92.5 105 v 18.94098 c 0,10.41754 0.3375,19.1422 0.75,19.38814 0.4125,0.24593 5.90209,-8.10101 12.19909,-18.54877 6.29699,-10.44775 11.94176,-19.18497 12.54393,-19.41604 0.60216,-0.23108 7.72278,-0.29508 15.82359,-0.14222 L 161.04535,917.5 146.52267,936.9033 C 138.5352,947.57512 132,956.85578 132,957.527 c 0,0.99742 14.44201,26.68011 27.39814,48.723 l 2.7919,4.75 H 147.34502 132.5 L 123,992.52205 c -5.225,-10.16285 -9.725,-18.46782 -10,-18.45548 -0.275,0.0123 -2.1875,2.21158 -4.25,4.88721 l -3.75,4.86479 v 13.59262 13.59261 c -9.35595,-0.1317 -15.665913,-0.079 -25.027038,-0.079 z"
       id="path56"
       sodipodi:nodetypes="cscccssssscssscccssscccc" />
    <path
       id="path54"
       style="fill:#141112"
       d="m 887.02344,915.62695 c -21.14341,0.10813 -38.99696,13.72547 -44.66016,34.87305 -1.72219,6.43236 -1.72389,22.56337 -0.002,29 4.32349,16.16116 15.56913,27.837 30.74219,31.918 h 0.002 c 16.51951,4.4415 38.13159,-1.0637 47.94726,-12.21488 4.95627,-5.6306 9.48364,-14.65024 10.98633,-21.88867 0.67368,-3.24531 1.56196,-10.50709 1.3054,-16.90909 -0.51112,-12.75416 -3.19021,-19.25015 -9.84837,-28.14755 -7.17667,-9.5903 -16.38423,-14.52426 -29.81445,-16.22461 -2.24777,-0.28458 -4.47095,-0.41743 -6.6582,-0.40625 z m 0.56445,20.43164 c 2.27995,-0.002 4.47548,0.44067 6.3125,1.39063 8.00529,4.13969 12.09961,13.51026 12.09961,27.69531 0,13.81162 -4.86872,23.61075 -13.31445,26.79492 -8.26905,3.11755 -17.06012,-0.97763 -21.77539,-10.14453 -5.60153,-10.88984 -3.94007,-30.76285 3.33593,-39.91797 2.90443,-3.65452 8.3259,-5.8136 13.3418,-5.81836 z"
       sodipodi:nodetypes="scsccsssssssssssss" />
    <path
       style="fill:#141112"
       d="M 0,877.5 V 683 h 58.020228 58.020232 l -3.07119,-5.25 C 103.4893,661.54459 88.172933,628.68472 80.691049,608.5 56.553969,543.3827 47.774151,466.79814 56.558879,398 74.841236,254.82059 157.90571,130.32796 282.5,59.37141 368.90535,10.163497 467.98195,-9.0542504 567.5,4.0903687 614.07482,10.2421 659.44137,23.817093 702.78607,44.571899 c 14.91353,7.141067 39.68033,20.755705 40.66983,22.35674 0.27233,0.44065 -6.13133,1.014914 -14.23037,1.276144 -17.37012,0.560262 -22.42717,2.16324 -26.68786,8.459502 -1.4276,2.109643 -3.67728,5.319786 -4.9993,7.13365 -1.32201,1.813865 -2.55286,3.745522 -2.73521,4.292573 -0.18235,0.547051 -5.55717,-1.489286 -11.94405,-4.525193 C 655.5017,70.561387 620.69593,58.782418 591.5,52.647562 542.36515,42.323001 486.0301,41.400248 435,50.084133 420.20582,52.601685 388.849,60.728855 373.60601,65.996437 253.53028,107.49151 159.37058,202.10133 118.82042,322 c -9.65437,28.54604 -15.59785,55.67837 -19.386401,88.5 -2.11065,18.28538 -2.433328,62.20496 -0.58776,80 5.504411,53.07376 18.987131,100.2423 41.505041,145.2031 15.84691,31.641 32.0528,55.81325 58.69442,87.5469 l 3.14827,3.75 H 123.09699 44 V 877.5 1028 H 505 966 V 877.5 727 h -77 c -42.35,0 -77,-0.22412 -77,-0.49805 0,-0.27393 4.43342,-5.78643 9.85205,-12.25 C 873.27418,652.91343 904.07466,579.93054 914.17049,495.5 916.233,478.25144 915.94501,424.14573 913.69411,406 902.3741,314.74311 864.07326,234.03379 801.17258,168.88932 l -14.10194,-14.60498 1.93491,-3.79523 c 2.10728,-4.1333 1.89388,-8.84913 -0.62046,-13.71133 -1.37367,-2.65638 -1.30238,-2.8049 2.49777,-5.20383 5.2764,-3.33085 7.63204,-9.37352 6.791,-17.4202 -0.33452,-3.20052 -0.92023,-6.6322 -1.30157,-7.62596 -1.06984,-2.78796 1.17147,-1.18355 12.98131,9.29251 19.52732,17.32193 42.61897,42.3491 58.802,63.73075 52.98436,70.00494 83.91001,151.58732 90.9231,239.85661 1.50161,18.89978 0.6288,67.33908 -1.52424,84.59234 -7.70993,61.78314 -25.37464,116.86193 -54.02626,168.45455 -3.04051,5.47501 -5.5282,10.08751 -5.5282,10.25 0,0.1625 25.2,0.29545 56,0.29545 h 56 V 877.5 1072 H 505 0 Z"
       id="path44" />
    <path
       style="fill:#ee1b24;fill-opacity:1"
       d="m 778.28127,170.61738 c -0.9473,-0.0228 -1.2813,0.99501 -1.2813,2.90625 0,3.30078 -5.3359,9.10229 -9.6953,10.54101 -3.4126,1.12626 -8.7008,0.95557 -20.39451,-0.65625 -4.58292,-0.63169 -4.59307,-0.62534 -7.12891,3.73047 -1.39668,2.39907 -2.85034,5.93633 -3.23047,7.86133 -1.23251,6.24146 -4.73991,16.27898 -9.25976,26.5 -3.20039,7.23724 -4.47178,11.4786 -4.60547,15.35352 l -0.18555,5.35546 5.45508,3.10743 c 5.34882,3.0477 5.7202,3.10959 19,3.15429 11.91839,0.0401 14.58189,0.37466 22.18159,2.78516 10.331,3.27677 19.809,9.72106 21.8614,14.86328 0.7423,1.85981 3.4809,5.67417 6.0859,8.47656 5.8538,6.29732 7.4236,11.09493 5.3359,16.3125 -1.8018,4.50338 -5.895,7.0918 -11.2167,7.0918 -4.7094,0 -5.2032,0.84062 -5.2032,8.87109 0,11.04834 -3.5395,20.27684 -10.9082,28.44336 -4.7214,5.2326 -8.473,6.96197 -14.7871,6.81641 -4.42261,-0.10195 -5.30644,0.16781 -5.31444,1.62305 -0.005,0.95989 -1.1088,4.10859 -2.45312,6.99609 -1.34433,2.8875 -2.28746,5.25 -2.0957,5.25 0.19176,0 3.20769,-0.86578 6.70316,-1.92383 11.2181,-3.3957 20.838,-4.38101 37.0879,-3.79687 19.5744,0.70366 29.3149,3.21993 47.4277,12.24804 20.532,10.23389 37.809,25.86433 49.9863,45.22266 2.5083,3.9875 5.0268,7.25 5.5957,7.25 3.1917,0 -5.4758,-48.0607 -13.4355,-74.5 -17.7944,-59.10686 -50.9264,-115.41861 -94.3789,-160.4082 -6.2842,-6.50646 -9.5677,-9.43658 -11.1465,-9.47461 z"
       id="path153" />
  </g>
</svg>
