<svg xmlns="http://www.w3.org/2000/svg" data-type="fa" data-name="bicycle" width="640" height="384"><defs/><path d="M512.5 128c-16.4 0-32 3-46.4 8.5L388.4 11.3A24 24 0 00368 0h-64a16 16 0 00-16 16v16a16 16 0 0016 16h50.7l14.8 24H256V56a16 16 0 00-16-16h-87.5c-13.4 0-24.7 11-24.5 24.4A24 24 0 00152 88h48.7l-29.4 47.5A128.4 128.4 0 000 255.2 128 128 0 00252 288h52a24 24 0 0020.4-11.4l86-138.8 15 24a127.7 127.7 0 00-41.4 94.5c.1 68.8 57.9 127 126.7 127.7a128 128 0 101.8-256zm-325.7 73.8a79.8 79.8 0 0119.6 38.2H163zM128 336a80 80 0 1117.1-158.1l-45.5 73.5A24 24 0 00120 288h81.3a80.1 80.1 0 01-73.3 48zm162.6-96H255c-4-31.8-19.5-59.9-42.4-80l24.8-40h127.5zm217 95.9c-41-2.2-74-35.7-75.5-76.8a79.6 79.6 0 0119.3-55.2l44.4 71.6a16 16 0 0022 5.1l13.7-8.4a16 16 0 005.1-22l-44.5-71.7A79.9 79.9 0 01512 176a80 80 0 11-4.3 159.9z"/></svg>