<svg xmlns="http://www.w3.org/2000/svg" data-type="fa" data-name="instagram" width="448.3" height="448.1"><defs/><path d="M224 109a115 115 0 100 230 115 115 0 000-230zm0 190a75 75 0 110-150 75 75 0 010 150zm147-195a27 27 0 11-54 0 27 27 0 0154 0zm76 28c-2-36-10-68-37-94-26-26-58-35-93-36-37-3-148-3-185 0-36 1-68 9-94 36C11 64 3 96 2 132c-3 37-3 147 0 184 1 36 9 68 36 94 26 27 58 35 94 37 37 2 148 2 185 0 35-2 67-10 93-37 27-26 35-58 37-94 2-37 2-147 0-184zm-48 224c-8 20-23 35-43 43-29 11-99 9-132 9-32 0-103 2-132-9-20-8-35-23-43-43-11-29-9-99-9-132s-2-103 9-132c8-20 23-35 43-43 30-11 100-9 132-9 33 0 103-2 132 9 20 8 35 23 43 43 12 29 9 99 9 132s3 103-9 132z"/></svg>